<?xml version="1.0" encoding="utf-8"?>
<!-- Generator: Adobe Illustrator 18.1.1, SVG Export Plug-In . SVG Version: 6.00 Build 0)  -->
<svg version="1.1" id="Layer_1" xmlns="http://www.w3.org/2000/svg" xmlns:xlink="http://www.w3.org/1999/xlink" x="0px" y="0px"
	 viewBox="0 0 36 36" enable-background="new 0 0 36 36" xml:space="preserve">
<g>
	<g>
		<path fill="#DEDEDE" d="M22.3,17.3c0.7,1.2,1.1,2.5,1.1,3.9c0,4.2-3.5,7.7-7.7,7.7S8,25.5,8,21.2s3.5-7.7,7.7-7.7
			c1,0,1.9,0.2,2.8,0.5l1.2-1.4c-1.2-0.6-2.6-0.9-4-0.9c-5.3,0-9.5,4.3-9.5,9.5s4.3,9.5,9.5,9.5c5.3,0,9.5-4.3,9.5-9.5
			c0-2-0.6-3.9-1.7-5.4L22.3,17.3z"/>
	</g>
	<polyline fill="none" stroke="#E0E1E2" stroke-width="3.1706" stroke-miterlimit="10" points="12,16.8 15.4,21.7 26.7,8.2 	"/>
</g>
</svg>
