<?xml version="1.0" encoding="utf-8"?>
<!-- Generator: Adobe Illustrator 18.1.1, SVG Export Plug-In . SVG Version: 6.00 Build 0)  -->
<svg version="1.1" id="Layer_1" xmlns="http://www.w3.org/2000/svg" xmlns:xlink="http://www.w3.org/1999/xlink" x="0px" y="0px"
	 viewBox="0 0 36 36" enable-background="new 0 0 36 36" xml:space="preserve">
<g>
	<g>
		<g>
			<g>
				<path fill="#E0E1E2" d="M15.8,8.6l1.2,0.6c0.3,0.2,0.7,0.3,1.1,0.3s0.8-0.1,1.1-0.3l1.2-0.6l0.8,1c0.5,0.6,1.2,1,2,1l1.3,0.1
					l0.2,1.3c0.1,0.8,0.6,1.4,1.3,1.8l1.1,0.6l-0.4,1.2c-0.2,0.7-0.2,1.6,0.3,2.2l0.7,1.1l-0.9,0.9c-0.6,0.5-0.9,1.3-0.8,2.1
					l0.1,1.3l-1.2,0.4c-0.8,0.2-1.4,0.8-1.7,1.5l-0.5,1.2l-1.3-0.3C21,26,20.8,26,20.7,26c-0.6,0-1.2,0.2-1.6,0.6l-1,0.8l-1-0.8
					c-0.5-0.4-1-0.6-1.6-0.6c-0.2,0-0.4,0-0.5,0.1l-1.3,0.3l-0.5-1.2c-0.3-0.7-0.9-1.3-1.7-1.5l-1.2-0.4l0.1-1.3
					c0.1-0.8-0.2-1.5-0.8-2.1L8.6,19l0.7-1.1c0.4-0.7,0.5-1.5,0.3-2.2l-0.4-1.2l1.1-0.6c0.7-0.4,1.1-1.1,1.3-1.8l0.2-1.3l1.3-0.1
					c0.8,0,1.5-0.4,2-1L15.8,8.6 M20.7,6.3c-0.1,0-0.2,0-0.3,0.1l-2.2,1c-0.1,0-0.2,0.1-0.3,0.1s-0.2,0-0.3-0.1l-2.2-1
					c-0.1,0-0.2-0.1-0.3-0.1c-0.2,0-0.4,0.1-0.5,0.2l-1.5,1.9c-0.1,0.1-0.3,0.2-0.5,0.2l-2.4,0.1C10.2,8.8,10,9,9.9,9.3l-0.4,2.4
					c0,0.2-0.1,0.3-0.3,0.4l-2.1,1.2c-0.2,0.1-0.4,0.4-0.3,0.7l0.8,2.3c0.1,0.2,0,0.4-0.1,0.5l-1.3,2.1c-0.2,0.2-0.1,0.6,0.1,0.8
					l1.8,1.7c0.1,0.1,0.2,0.3,0.2,0.5l-0.2,2.4c0,0.3,0.2,0.5,0.4,0.6l2.3,0.7c0.2,0,0.3,0.2,0.4,0.3l1,2.2c0.1,0.2,0.3,0.4,0.5,0.4
					c0,0,0.1,0,0.1,0l2.4-0.5c0,0,0.1,0,0.1,0c0.1,0,0.3,0,0.4,0.1l1.9,1.5c0.1,0.1,0.2,0.1,0.4,0.1s0.3,0,0.4-0.1l1.9-1.5
					c0.1-0.1,0.2-0.1,0.4-0.1c0,0,0.1,0,0.1,0l2.4,0.5c0,0,0.1,0,0.1,0c0.2,0,0.5-0.1,0.5-0.4l1-2.2c0.1-0.2,0.2-0.3,0.4-0.3
					l2.3-0.7c0.3-0.1,0.5-0.3,0.4-0.6l-0.2-2.4c0-0.2,0.1-0.4,0.2-0.5l1.8-1.7c0.2-0.2,0.2-0.5,0.1-0.8l-1.3-2.1
					c-0.1-0.2-0.1-0.3-0.1-0.5l0.8-2.3c0.1-0.3,0-0.6-0.3-0.7l-2.1-1.2c-0.2-0.1-0.3-0.2-0.3-0.4l-0.4-2.4c0-0.3-0.3-0.5-0.6-0.5
					l-2.4-0.1c-0.2,0-0.3-0.1-0.5-0.2l-1.5-1.9C21.1,6.4,20.9,6.3,20.7,6.3L20.7,6.3z"/>
			</g>
		</g>
		<circle fill="#E0E1E2" cx="18.3" cy="17.8" r="6.3"/>
	</g>
</g>
</svg>
