<?xml version="1.0" encoding="utf-8"?>
<!-- Generator: Adobe Illustrator 18.1.1, SVG Export Plug-In . SVG Version: 6.00 Build 0)  -->
<svg version="1.1" id="Layer_1" xmlns="http://www.w3.org/2000/svg" xmlns:xlink="http://www.w3.org/1999/xlink" x="0px" y="0px"
	 viewBox="0 0 36 36" enable-background="new 0 0 36 36" xml:space="preserve">
<g>
	<g>
		<path fill="#E0E1E2" d="M25.8,15.2c0.2,0.9,0.3,1.7,0.5,2.6c0,0.1,0.1,0.1,0.1,0.2c1,1.4,1,2.9,0.4,4.4c-0.1,0.4-0.5,0.7-0.9,0.9
			c-0.2,0.2-0.4,0.3-0.5,0.6c-0.9,2-2.1,3.6-3.8,4.8c-2.7,2-5.4,1.9-8.1-0.1c-1.7-1.3-2.9-2.9-3.7-4.8c-0.1-0.2-0.3-0.4-0.5-0.5
			c-0.6-0.3-1-0.8-1.1-1.5c-0.2-0.9-0.3-1.9,0-2.8c0.1-0.3,0.2-0.6,0.4-0.8c0.7-0.7,0.6-1.6,0.7-2.5c0.1-0.4,0-0.9,0-1.4
			c0-0.3,0.1-0.4,0.3-0.5c1.8-0.7,3.6-1.2,5.4-1.5c3.6-0.5,7.1,0.1,10.4,1.4c0.4,0.2,0.6,0.4,0.5,0.8C25.9,14.9,25.9,15,25.8,15.2
			C25.9,15.2,25.8,15.2,25.8,15.2z M25.5,20.4C25.5,20.4,25.5,20.4,25.5,20.4c0-0.1,0-0.2,0-0.2c0-0.5,0-1.1-0.7-1.3
			c-0.1,0-0.2-0.2-0.2-0.3c-0.5-1-1.3-1.7-2.4-2c-0.5-0.1-1-0.2-1.5-0.3c-1.4-0.2-2.8-0.4-4-1.1c-0.7-0.4-1.4-0.5-2.2-0.4
			c-0.3,0.1-0.4,0.1-0.5,0.4c-0.7,1.8-1.8,3.2-3.7,3.7c-0.3,0.1-0.5,0.3-0.6,0.6c0,0.5-0.1,1.1,0,1.6c0,0.3,0.2,0.6,0.5,0.7
			c0.5,0.3,0.9,0.7,1.1,1.2c0.8,1.9,2,3.4,3.7,4.5c0.9,0.6,1.8,1,2.9,0.9c1-0.1,1.9-0.5,2.7-1c1.6-1.1,2.8-2.6,3.5-4.4
			c0.2-0.5,0.5-0.9,1-1.1c0.4-0.1,0.5-0.4,0.6-0.7C25.5,21,25.5,20.7,25.5,20.4z"/>
		<path fill="#E0E1E2" d="M25.9,12.6c-5.6-2.4-11.1-2.4-16.7,0c0-1.3,0-2.6,0-3.8c0-0.8,0.5-1.4,1.2-1.6c3-1,6-1.6,9.2-1.2
			c1.6,0.2,3.2,0.6,4.7,1.1c1.1,0.4,1.5,1,1.5,2.1C25.9,10.3,25.9,11.4,25.9,12.6z"/>
		<path fill="#E0E1E2" d="M20.8,18.7c0.7,0,1.3,0.6,1.3,1.3c0,0.7-0.6,1.3-1.3,1.3c-0.7,0-1.3-0.6-1.2-1.3
			C19.5,19.2,20.1,18.6,20.8,18.7z"/>
		<path fill="#E0E1E2" d="M14.3,18.7c0.7,0,1.3,0.6,1.3,1.3c0,0.7-0.6,1.3-1.3,1.3c-0.7,0-1.3-0.6-1.3-1.3
			C13.1,19.2,13.6,18.7,14.3,18.7z"/>
		<path fill="#E0E1E2" d="M17.6,26.3c-0.9,0-1.5-0.5-2.1-1.2c-0.1-0.1-0.1-0.2,0-0.3c0.1-0.1,0.2-0.1,0.3,0c0.5,0.1,0.9,0.2,1.4,0.2
			c0.7,0,1.4-0.1,2.1-0.2c0.1,0,0.3,0,0.4,0c-0.1,0.1-0.1,0.3-0.2,0.4C19,25.9,18.4,26.3,17.6,26.3z"/>
	</g>
</g>
</svg>
