<?xml version="1.0" encoding="iso-8859-1"?>
<!-- Generator: Adobe Illustrator 19.2.1, SVG Export Plug-In . SVG Version: 6.00 Build 0)  -->
<svg version="1.1" id="Layer_1" xmlns="http://www.w3.org/2000/svg" xmlns:xlink="http://www.w3.org/1999/xlink" x="0px" y="0px"
	 viewBox="0 0 620 620" style="enable-background:new 0 0 620 620;" xml:space="preserve">
<g>
	<path style="fill:#FFFFFF;stroke:#FFFFFF;stroke-miterlimit:10;" d="M311.319,518.926c0,0,2-99-174-108c0,0,4,109,154,120l-90-83
		L311.319,518.926z"/>
	<path style="fill:#FFFFFF;stroke:#FFFFFF;stroke-miterlimit:10;" d="M336.1,563.248c0,0,38-92,132-87c0,0-12.491,92.31-118,98
		l77-65L336.1,563.248z"/>
	<path style="fill:#FFFFFF;stroke:#FFFFFF;stroke-miterlimit:10;" d="M312.049,365.392c3.649,11.764,7.791,23.577,12.496,35.123
		c32.655,80.135-30.289,179.568-30.289,179.568s90.467-84.373,46.668-179.292c-4.233-9.173-8.179-18.128-11.858-26.833
		c-4.303-6.186-8.438-12.879-12.309-20.003C315.269,357.877,313.696,361.694,312.049,365.392z"/>
	<path style="fill:#FFFFFF;" d="M363.441,299.411c-10.038,9.712-22.621,16.798-36.66,20.164c-1.746,8.542-4.11,17.359-7.117,26.275
		c-0.296,0.878-0.597,1.751-0.902,2.62c3.17,8.214,6.599,16.722,10.304,25.489c23.491,33.767,52.01,52.408,70.259,43.363
		c21.592-10.703,21.046-56.316-0.429-104.08c-2.725-0.806-5.463-1.668-8.211-2.595C380.997,307.38,371.862,303.581,363.441,299.411z
		"/>
	<path style="fill:#FFFFFF;" d="M316.757,353.957c3.872,7.124,8.006,13.817,12.309,20.003c-3.705-8.767-7.135-17.275-10.304-25.489
		C318.113,350.322,317.443,352.149,316.757,353.957z"/>
	<path style="fill:#FFFFFF;" d="M265.107,175.481c6.957-4.495,14.651-7.944,22.874-10.099c1.569-13.323,4.779-27.696,9.715-42.337
		c0.927-2.748,1.898-5.45,2.907-8.106c-25.007-46.013-60.977-74.068-82.569-63.365c-21.592,10.703-21.046,56.316,0.429,104.08
		c2.725,0.806,5.463,1.668,8.211,2.595C240.834,163.023,253.819,168.93,265.107,175.481z"/>
	<path style="fill:#FFFFFF;" d="M243.84,288.96c-7.414-10.202-12.461-22.228-14.335-35.286c-10.37-1.797-21.223-4.532-32.227-8.242
		c-2.748-0.927-5.45-1.898-8.106-2.907c-46.013,25.007-74.068,60.977-63.365,82.569c10.703,21.592,56.316,21.046,104.08-0.429
		c0.806-2.724,1.668-5.463,2.595-8.211C235.78,306.67,239.621,297.45,243.84,288.96z"/>
	<path style="fill:#FFFFFF;" d="M368.105,190.075c6.199,7.109,11.159,15.321,14.531,24.317c11.922,1.73,24.581,4.734,37.447,9.072
		c2.748,0.927,5.45,1.899,8.106,2.907c46.013-25.007,74.068-60.977,63.365-82.569s-56.316-21.046-104.08,0.429
		c-0.806,2.725-1.668,5.463-2.595,8.211C380.217,166.27,374.473,178.974,368.105,190.075z"/>
	<path style="fill:#FFFFFF;" d="M230.551,225.154c2.247-10.229,6.458-19.717,12.227-28.051
		c-7.419-9.832-14.448-21.174-20.638-33.662c-1.288-2.599-2.511-5.196-3.676-7.787c-50.219-14.853-95.491-9.257-103.191,13.579
		c-7.7,22.836,24.94,54.703,73.899,73.292c2.496-1.357,5.043-2.683,7.641-3.971C208.229,232.895,219.622,228.426,230.551,225.154z"
		/>
	<path style="fill:#FFFFFF;" d="M242.779,197.103c5.946-8.591,13.542-15.946,22.328-21.623
		c-11.288-6.551-24.273-12.458-38.432-17.232c-2.748-0.927-5.487-1.789-8.211-2.595c1.165,2.591,2.388,5.189,3.676,7.787
		C228.33,175.93,235.36,187.271,242.779,197.103z"/>
	<path style="fill:#FFFFFF;" d="M229.505,253.674c-0.534-3.721-0.825-7.52-0.825-11.389c0-5.884,0.658-11.611,1.871-17.131
		c-10.93,3.272-22.323,7.741-33.738,13.399c-2.599,1.288-5.145,2.615-7.641,3.971c2.656,1.009,5.358,1.98,8.106,2.907
		C208.282,249.142,219.135,251.877,229.505,253.674z"/>
	<path style="fill:#FFFFFF;" d="M428.189,226.371c-2.496,1.357-5.043,2.683-7.641,3.971c-11.123,5.513-22.225,9.9-32.898,13.148
		c-0.186,12.443-3.228,24.188-8.504,34.618c5.735,8.276,11.169,17.45,16.074,27.347c1.288,2.599,2.511,5.196,3.676,7.787
		c50.219,14.853,95.491,9.257,103.191-13.579C509.788,276.827,477.148,244.96,428.189,226.371z"/>
	<path style="fill:#FFFFFF;" d="M379.146,278.108c-4.029,7.965-9.354,15.157-15.706,21.302c8.422,4.171,17.557,7.969,27.245,11.236
		c2.748,0.927,5.487,1.789,8.211,2.595c-1.165-2.591-2.388-5.189-3.676-7.787C390.315,295.558,384.881,286.384,379.146,278.108z"/>
	<path style="fill:#FFFFFF;" d="M382.636,214.392c3.254,8.681,5.044,18.077,5.044,27.893c0,0.404-0.024,0.802-0.03,1.205
		c10.673-3.248,21.775-7.635,32.898-13.148c2.599-1.288,5.145-2.614,7.641-3.971c-2.656-1.008-5.358-1.98-8.106-2.907
		C407.217,219.126,394.558,216.122,382.636,214.392z"/>
	<path style="fill:#FFFFFF;" d="M261.995,306.973c-7.468,4.978-15.617,9.7-24.321,14.015c-2.599,1.288-5.196,2.511-7.787,3.676
		c-14.853,50.219-9.257,95.491,13.579,103.191c21.007,7.083,49.659-19.971,68.584-62.463c-4.641-14.961-8.481-29.842-11.648-43.991
		C286.16,320.018,273.031,314.867,261.995,306.973z"/>
	<path style="fill:#FFFFFF;" d="M312.786,346.315c-4.127-8.325-7.619-16.638-10.478-24.769c-0.636-0.047-1.275-0.084-1.907-0.145
		c3.167,14.149,7.007,29.03,11.648,43.991c1.647-3.699,3.22-7.515,4.708-11.436C315.4,351.46,314.074,348.914,312.786,346.315z"/>
	<path style="fill:#FFFFFF;" d="M318.762,348.471c0.305-0.869,0.606-1.742,0.902-2.62c3.007-8.917,5.371-17.733,7.117-26.275
		c-5.719,1.372-11.675,2.129-17.801,2.19C311.919,330.25,315.173,339.17,318.762,348.471z"/>
	<path style="fill:#FFFFFF;" d="M308.18,321.785c-1.978,0-3.931-0.097-5.873-0.239c2.86,8.131,6.352,16.444,10.478,24.769
		c1.288,2.599,2.614,5.145,3.971,7.641c0.686-1.807,1.356-3.635,2.005-5.486c-3.589-9.3-6.843-18.22-9.782-26.706
		C308.713,321.768,308.449,321.785,308.18,321.785z"/>
	<path style="fill:#FFFFFF;" d="M261.995,306.973c-6.978-4.991-13.113-11.075-18.155-18.014c-4.219,8.49-8.06,17.71-11.359,27.493
		c-0.927,2.749-1.789,5.487-2.595,8.211c2.591-1.165,5.189-2.388,7.787-3.676C246.378,316.673,254.527,311.951,261.995,306.973z"/>
	<path style="fill:#FFFFFF;" d="M320.012,163.666c8.153,1.217,15.899,3.674,23.045,7.169c10.492-8.26,22.863-16.104,36.63-22.927
		c2.599-1.288,5.196-2.511,7.788-3.676c14.853-50.219,9.257-95.491-13.579-103.191c-22.836-7.7-54.703,24.94-73.292,73.899
		c1.357,2.496,2.683,5.043,3.971,7.641C311.514,136.581,316.668,150.548,320.012,163.666z"/>
	<path style="fill:#FFFFFF;" d="M287.981,165.382c6.451-1.69,13.218-2.597,20.199-2.597c4.021,0,7.971,0.305,11.832,0.881
		c-3.344-13.119-8.498-27.085-15.437-41.086c-1.288-2.599-2.614-5.145-3.971-7.641c-1.008,2.656-1.98,5.358-2.907,8.106
		C292.76,137.686,289.55,152.059,287.981,165.382z"/>
	<path style="fill:#FFFFFF;" d="M343.058,170.835c9.598,4.694,18.099,11.271,25.048,19.24c6.368-11.101,12.112-23.805,16.774-37.633
		c0.927-2.748,1.789-5.487,2.595-8.211c-2.591,1.165-5.189,2.388-7.788,3.676C365.921,154.731,353.55,162.575,343.058,170.835z"/>
</g>
</svg>
