<svg id="svg" version="1.1" width="400" height="265.625" xmlns="http://www.w3.org/2000/svg" xmlns:xlink="http://www.w3.org/1999/xlink" style="display: block;"><g id="svgg"><path id="path0" d="M53.953 24.319 C 53.693 24.632,52.948 24.718,50.466 24.718 C 47.837 24.718,47.309 24.784,47.309 25.116 C 47.309 25.412,46.999 25.515,46.113 25.515 C 45.227 25.515,44.917 25.618,44.917 25.914 C 44.917 26.209,44.607 26.312,43.721 26.312 C 42.835 26.312,42.525 26.416,42.525 26.711 C 42.525 26.959,42.274 27.110,41.860 27.110 C 41.447 27.110,41.196 27.260,41.196 27.508 C 41.196 27.774,40.930 27.907,40.399 27.907 C 39.867 27.907,39.601 28.040,39.601 28.306 C 39.601 28.525,39.422 28.704,39.203 28.704 C 38.983 28.704,38.804 28.824,38.804 28.970 C 38.804 29.116,38.445 29.236,38.007 29.236 C 37.475 29.236,37.209 29.369,37.209 29.635 C 37.209 29.854,37.030 30.033,36.811 30.033 C 36.591 30.033,36.412 30.213,36.412 30.432 C 36.412 30.651,36.233 30.831,36.013 30.831 C 35.794 30.831,35.615 31.010,35.615 31.229 C 35.615 31.449,35.435 31.628,35.216 31.628 C 34.997 31.628,34.817 31.807,34.817 32.027 C 34.817 32.246,34.638 32.425,34.419 32.425 C 34.199 32.425,34.020 32.605,34.020 32.824 C 34.020 33.043,33.841 33.223,33.621 33.223 C 33.402 33.223,33.223 33.402,33.223 33.621 C 33.223 33.841,33.043 34.020,32.824 34.020 C 32.605 34.020,32.425 34.199,32.425 34.419 C 32.425 34.638,32.246 34.817,32.027 34.817 C 31.807 34.817,31.628 34.997,31.628 35.216 C 31.628 35.435,31.449 35.615,31.229 35.615 C 31.010 35.615,30.831 35.781,30.831 35.985 C 30.831 36.188,30.651 36.424,30.432 36.508 C 30.213 36.592,30.033 36.964,30.033 37.334 C 30.033 37.755,29.884 38.007,29.635 38.007 C 29.369 38.007,29.236 38.272,29.236 38.804 C 29.236 39.336,29.103 39.601,28.837 39.601 C 28.571 39.601,28.439 39.867,28.439 40.399 C 28.439 40.837,28.319 41.196,28.173 41.196 C 28.027 41.196,27.907 41.495,27.907 41.860 C 27.907 42.274,27.756 42.525,27.508 42.525 C 27.289 42.525,27.110 42.641,27.110 42.782 C 27.110 42.924,27.289 42.971,27.508 42.887 C 27.761 42.790,27.907 42.890,27.907 43.161 C 27.907 43.396,27.728 43.588,27.508 43.588 C 27.220 43.588,27.110 43.883,27.110 44.651 C 27.110 45.419,26.999 45.714,26.711 45.714 C 26.386 45.714,26.312 46.157,26.312 48.106 C 26.312 50.055,26.238 50.498,25.914 50.498 C 25.560 50.498,25.515 61.174,25.515 144.983 C 25.515 228.793,25.560 239.468,25.914 239.468 C 26.226 239.468,26.312 239.834,26.312 241.163 C 26.312 242.346,26.433 242.959,26.711 243.189 C 26.930 243.371,27.110 243.864,27.110 244.285 C 27.110 244.788,27.246 245.050,27.508 245.050 C 27.774 245.050,27.907 245.316,27.907 245.847 C 27.907 246.286,28.027 246.645,28.173 246.645 C 28.319 246.645,28.439 246.824,28.439 247.043 C 28.439 247.262,28.618 247.442,28.837 247.442 C 29.103 247.442,29.236 247.708,29.236 248.239 C 29.236 248.771,29.369 249.037,29.635 249.037 C 29.854 249.037,30.033 249.216,30.033 249.435 C 30.033 249.654,30.213 249.834,30.432 249.834 C 30.651 249.834,30.831 250.013,30.831 250.233 C 30.831 250.452,30.959 250.631,31.115 250.631 C 31.272 250.631,31.579 250.811,31.799 251.030 C 32.018 251.249,32.428 251.429,32.710 251.429 C 32.992 251.429,33.223 251.608,33.223 251.827 C 33.223 252.047,33.402 252.226,33.621 252.226 C 33.841 252.226,34.020 252.346,34.020 252.492 C 34.020 252.638,34.558 252.757,35.216 252.757 C 36.102 252.757,36.412 252.861,36.412 253.156 C 36.412 253.422,36.678 253.555,37.209 253.555 C 37.741 253.555,38.007 253.688,38.007 253.953 C 38.007 254.293,38.701 254.352,42.658 254.352 C 46.615 254.352,47.309 254.293,47.309 253.953 C 47.309 253.658,47.619 253.555,48.505 253.555 C 49.391 253.555,49.701 253.451,49.701 253.156 C 49.701 252.890,49.967 252.757,50.498 252.757 C 50.937 252.757,51.296 252.638,51.296 252.492 C 51.296 252.346,51.595 252.226,51.960 252.226 C 52.374 252.226,52.625 252.075,52.625 251.827 C 52.625 251.608,52.804 251.429,53.023 251.429 C 53.243 251.429,53.422 251.249,53.422 251.030 C 53.422 250.811,53.601 250.631,53.821 250.631 C 54.040 250.631,54.219 250.452,54.219 250.233 C 54.219 250.013,54.399 249.834,54.618 249.834 C 54.837 249.834,55.017 249.654,55.017 249.435 C 55.017 249.216,55.196 249.037,55.415 249.037 C 55.635 249.037,55.814 248.857,55.814 248.638 C 55.814 248.419,55.993 248.239,56.213 248.239 C 56.432 248.239,56.611 248.060,56.611 247.841 C 56.611 247.621,56.791 247.442,57.010 247.442 C 57.229 247.442,57.409 247.262,57.409 247.043 C 57.409 246.824,57.588 246.645,57.807 246.645 C 58.027 246.645,58.206 246.465,58.206 246.246 C 58.206 246.027,58.385 245.847,58.605 245.847 C 58.824 245.847,59.003 245.668,59.003 245.449 C 59.003 245.229,59.183 245.050,59.402 245.050 C 59.621 245.050,59.801 244.870,59.801 244.651 C 59.801 244.432,59.980 244.252,60.199 244.252 C 60.419 244.252,60.598 244.073,60.598 243.854 C 60.598 243.635,60.777 243.455,60.997 243.455 C 61.216 243.455,61.395 243.276,61.395 243.056 C 61.395 242.837,61.575 242.658,61.794 242.658 C 62.013 242.658,62.193 242.478,62.193 242.259 C 62.193 242.040,62.372 241.860,62.591 241.860 C 62.811 241.860,62.990 241.681,62.990 241.462 C 62.990 241.243,63.169 241.063,63.389 241.063 C 63.608 241.063,63.787 240.884,63.787 240.664 C 63.787 240.445,63.967 240.266,64.186 240.266 C 64.405 240.266,64.585 240.138,64.585 239.981 C 64.585 239.613,65.261 238.937,65.629 238.937 C 65.785 238.937,65.914 238.757,65.914 238.538 C 65.914 238.319,66.093 238.140,66.312 238.140 C 66.532 238.140,66.711 237.960,66.711 237.741 C 66.711 237.522,66.890 237.342,67.110 237.342 C 67.329 237.342,67.508 237.163,67.508 236.944 C 67.508 236.724,67.688 236.545,67.907 236.545 C 68.126 236.545,68.306 236.365,68.306 236.146 C 68.306 235.927,68.485 235.748,68.704 235.748 C 68.924 235.748,69.103 235.568,69.103 235.349 C 69.103 235.130,69.282 234.950,69.502 234.950 C 69.721 234.950,69.900 234.771,69.900 234.551 C 69.900 234.332,70.080 234.153,70.299 234.153 C 70.518 234.153,70.698 233.973,70.698 233.754 C 70.698 233.535,70.877 233.355,71.096 233.355 C 71.316 233.355,71.495 233.176,71.495 232.957 C 71.495 232.738,71.674 232.558,71.894 232.558 C 72.113 232.558,72.292 232.379,72.292 232.159 C 72.292 231.940,72.472 231.761,72.691 231.761 C 72.910 231.761,73.090 231.581,73.090 231.362 C 73.090 231.143,73.269 230.963,73.488 230.963 C 73.708 230.963,73.887 230.784,73.887 230.565 C 73.887 230.346,74.066 230.166,74.286 230.166 C 74.505 230.166,74.684 229.987,74.684 229.767 C 74.684 229.548,74.864 229.369,75.083 229.369 C 75.302 229.369,75.482 229.189,75.482 228.970 C 75.482 228.751,75.661 228.571,75.880 228.571 C 76.100 228.571,76.279 228.392,76.279 228.173 C 76.279 227.953,76.458 227.774,76.678 227.774 C 76.897 227.774,77.076 227.595,77.076 227.375 C 77.076 227.156,77.196 226.977,77.342 226.977 C 77.488 226.977,77.608 226.797,77.608 226.578 C 77.608 226.359,77.787 226.179,78.007 226.179 C 78.226 226.179,78.405 226.060,78.405 225.914 C 78.405 225.767,78.585 225.648,78.804 225.648 C 79.023 225.648,79.203 225.468,79.203 225.249 C 79.203 225.030,79.382 224.850,79.601 224.850 C 79.821 224.850,80.000 224.671,80.000 224.452 C 80.000 224.233,80.179 224.053,80.399 224.053 C 80.618 224.053,80.797 223.874,80.797 223.654 C 80.797 223.435,80.977 223.256,81.196 223.256 C 81.415 223.256,81.595 223.076,81.595 222.857 C 81.595 222.638,81.774 222.458,81.993 222.458 C 82.213 222.458,82.392 222.279,82.392 222.060 C 82.392 221.841,82.571 221.661,82.791 221.661 C 83.010 221.661,83.189 221.482,83.189 221.262 C 83.189 221.043,83.369 220.864,83.588 220.864 C 83.807 220.864,83.987 220.684,83.987 220.465 C 83.987 220.246,84.166 220.066,84.385 220.066 C 84.605 220.066,84.784 219.887,84.784 219.668 C 84.784 219.449,84.963 219.269,85.183 219.269 C 85.402 219.269,85.581 219.090,85.581 218.870 C 85.581 218.517,100.775 218.472,220.731 218.472 C 340.687 218.472,355.880 218.427,355.880 218.073 C 355.880 217.757,356.261 217.674,357.712 217.674 C 359.096 217.674,359.582 217.577,359.697 217.276 C 359.782 217.056,360.153 216.877,360.523 216.877 C 360.944 216.877,361.196 216.728,361.196 216.478 C 361.196 216.183,361.506 216.080,362.392 216.080 C 363.278 216.080,363.588 215.976,363.588 215.681 C 363.588 215.462,363.694 215.282,363.824 215.282 C 363.954 215.282,364.044 215.073,364.024 214.817 C 363.994 214.438,364.171 214.367,364.983 214.430 C 365.738 214.489,365.980 214.409,365.980 214.098 C 365.980 213.819,366.236 213.688,366.777 213.688 C 367.309 213.688,367.575 213.555,367.575 213.289 C 367.575 213.070,367.754 212.890,367.973 212.890 C 368.193 212.890,368.372 212.771,368.372 212.625 C 368.372 212.478,368.551 212.359,368.771 212.359 C 368.990 212.359,369.169 212.179,369.169 211.960 C 369.169 211.741,369.349 211.561,369.568 211.561 C 369.787 211.561,369.967 211.390,369.967 211.180 C 369.967 210.962,370.279 210.763,370.698 210.715 C 371.272 210.649,371.447 210.474,371.513 209.900 C 371.561 209.482,371.760 209.169,371.978 209.169 C 372.187 209.169,372.359 208.990,372.359 208.771 C 372.359 208.551,372.538 208.372,372.757 208.372 C 372.977 208.372,373.156 208.193,373.156 207.973 C 373.156 207.754,373.336 207.575,373.555 207.575 C 373.774 207.575,373.953 207.395,373.953 207.176 C 373.953 206.957,374.073 206.777,374.219 206.777 C 374.365 206.777,374.485 206.419,374.485 205.980 C 374.485 205.449,374.618 205.183,374.884 205.183 C 375.103 205.183,375.282 205.003,375.282 204.784 C 375.282 204.565,375.462 204.385,375.681 204.385 C 375.947 204.385,376.080 204.120,376.080 203.588 C 376.080 203.036,376.210 202.791,376.502 202.791 C 376.842 202.791,376.907 202.543,376.835 201.528 C 376.758 200.458,376.815 200.271,377.209 200.303 C 377.533 200.328,377.674 200.146,377.674 199.705 C 377.674 199.318,377.830 199.070,378.073 199.070 C 378.383 199.070,378.472 198.715,378.472 197.475 C 378.472 196.235,378.560 195.880,378.870 195.880 C 379.224 195.880,379.269 187.449,379.269 121.595 C 379.269 55.740,379.224 47.309,378.870 47.309 C 378.560 47.309,378.472 46.955,378.472 45.714 C 378.472 44.474,378.383 44.120,378.073 44.120 C 377.785 44.120,377.674 43.824,377.674 43.056 C 377.674 42.289,377.564 41.993,377.276 41.993 C 377.010 41.993,376.877 41.728,376.877 41.196 C 376.877 40.664,376.744 40.399,376.478 40.399 C 376.213 40.399,376.080 40.133,376.080 39.601 C 376.080 39.070,375.947 38.804,375.681 38.804 C 375.415 38.804,375.282 38.538,375.282 38.007 C 375.282 37.475,375.150 37.209,374.884 37.209 C 374.664 37.209,374.485 37.030,374.485 36.811 C 374.485 36.591,374.365 36.412,374.219 36.412 C 374.073 36.412,373.953 36.053,373.953 35.615 C 373.953 35.083,373.821 34.817,373.555 34.817 C 373.336 34.817,373.156 34.638,373.156 34.419 C 373.156 34.199,372.977 34.020,372.757 34.020 C 372.538 34.020,372.359 33.841,372.359 33.621 C 372.359 33.402,372.179 33.223,371.960 33.223 C 371.741 33.223,371.561 33.043,371.561 32.824 C 371.561 32.605,371.382 32.425,371.163 32.425 C 370.944 32.425,370.764 32.246,370.764 32.027 C 370.764 31.807,370.585 31.628,370.365 31.628 C 370.146 31.628,369.967 31.449,369.967 31.229 C 369.967 31.010,369.787 30.831,369.568 30.831 C 369.349 30.831,369.169 30.651,369.169 30.432 C 369.169 30.166,368.904 30.033,368.372 30.033 C 367.841 30.033,367.575 29.900,367.575 29.635 C 367.575 29.415,367.395 29.236,367.176 29.236 C 366.957 29.236,366.777 29.116,366.777 28.970 C 366.777 28.824,366.419 28.704,365.980 28.704 C 365.424 28.704,365.183 28.575,365.183 28.276 C 365.183 27.931,365.003 27.882,364.252 28.022 C 363.436 28.176,363.322 28.131,363.322 27.653 C 363.322 27.251,363.150 27.110,362.658 27.110 C 362.244 27.110,361.993 26.959,361.993 26.711 C 361.993 26.463,361.742 26.312,361.329 26.312 C 360.915 26.312,360.664 26.162,360.664 25.914 C 360.664 25.604,360.310 25.515,359.070 25.515 C 357.829 25.515,357.475 25.426,357.475 25.116 C 357.475 24.784,356.947 24.718,354.314 24.718 C 351.750 24.718,351.124 24.642,351.000 24.319 C 350.895 24.045,350.467 23.920,349.635 23.920 C 348.802 23.920,348.374 24.045,348.269 24.319 C 348.040 24.916,337.143 24.916,336.914 24.319 C 336.797 24.013,336.292 23.920,334.751 23.920 C 333.209 23.920,332.705 24.013,332.588 24.319 C 332.358 24.918,321.329 24.918,321.329 24.319 C 321.329 23.736,317.204 23.736,316.980 24.319 C 316.751 24.915,305.973 24.915,305.744 24.319 C 305.520 23.736,301.395 23.736,301.395 24.319 C 301.395 24.918,290.366 24.918,290.136 24.319 C 289.913 23.735,285.714 23.735,285.714 24.319 C 285.714 24.918,274.685 24.918,274.455 24.319 C 274.338 24.013,273.834 23.920,272.292 23.920 C 270.751 23.920,270.247 24.013,270.129 24.319 C 269.900 24.918,258.870 24.918,258.870 24.319 C 258.870 23.735,254.672 23.735,254.448 24.319 C 254.219 24.918,243.189 24.918,243.189 24.319 C 243.189 23.736,239.065 23.736,238.841 24.319 C 238.612 24.915,227.833 24.915,227.604 24.319 C 227.381 23.736,223.256 23.736,223.256 24.319 C 223.256 24.661,222.462 24.718,217.703 24.718 C 213.012 24.718,212.126 24.656,211.997 24.319 C 211.880 24.013,211.375 23.920,209.834 23.920 C 208.292 23.920,207.788 24.013,207.671 24.319 C 207.542 24.656,206.659 24.718,201.993 24.718 C 197.328 24.718,196.445 24.656,196.316 24.319 C 196.199 24.013,195.694 23.920,194.153 23.920 C 192.611 23.920,192.107 24.013,191.990 24.319 C 191.861 24.656,190.975 24.718,186.284 24.718 C 181.525 24.718,180.731 24.661,180.731 24.319 C 180.731 23.998,180.317 23.920,178.596 23.920 C 176.944 23.920,176.427 24.010,176.309 24.319 C 176.180 24.655,175.307 24.718,170.727 24.718 C 166.147 24.718,165.275 24.655,165.146 24.319 C 165.028 24.012,164.518 23.920,162.924 23.920 C 161.329 23.920,160.819 24.012,160.701 24.319 C 160.572 24.655,159.700 24.718,155.120 24.718 C 150.540 24.718,149.668 24.655,149.538 24.319 C 149.314 23.735,145.116 23.735,145.116 24.319 C 145.116 24.918,134.087 24.918,133.857 24.319 C 133.636 23.742,129.753 23.742,129.531 24.319 C 129.302 24.916,118.405 24.916,118.176 24.319 C 117.955 23.742,114.072 23.742,113.850 24.319 C 113.621 24.918,102.591 24.918,102.591 24.319 C 102.591 23.735,98.393 23.735,98.169 24.319 C 97.940 24.915,87.235 24.915,87.006 24.319 C 86.889 24.012,86.378 23.920,84.784 23.920 C 83.190 23.920,82.680 24.012,82.562 24.319 C 82.433 24.655,81.560 24.718,76.980 24.718 C 72.400 24.718,71.528 24.655,71.399 24.319 C 71.280 24.010,70.764 23.920,69.111 23.920 C 67.391 23.920,66.977 23.998,66.977 24.319 C 66.977 24.661,66.183 24.718,61.424 24.718 C 56.733 24.718,55.847 24.656,55.718 24.319 C 55.634 24.100,55.277 23.920,54.925 23.920 C 54.572 23.920,54.135 24.100,53.953 24.319 M171.296 77.608 C 171.398 77.774,174.089 77.874,178.487 77.874 C 184.557 77.874,185.515 77.928,185.515 78.272 C 185.515 78.583,185.869 78.671,187.110 78.671 C 188.350 78.671,188.704 78.760,188.704 79.070 C 188.704 79.336,188.970 79.468,189.502 79.468 C 189.940 79.468,190.299 79.588,190.299 79.734 C 190.299 79.880,190.658 80.000,191.096 80.000 C 191.628 80.000,191.894 80.133,191.894 80.399 C 191.894 80.664,192.159 80.797,192.691 80.797 C 193.223 80.797,193.488 80.930,193.488 81.196 C 193.488 81.415,193.668 81.595,193.887 81.595 C 194.106 81.595,194.286 81.774,194.286 81.993 C 194.286 82.213,194.465 82.392,194.684 82.392 C 194.904 82.392,195.083 82.571,195.083 82.791 C 195.083 83.010,195.262 83.189,195.482 83.189 C 195.701 83.189,195.880 83.369,195.880 83.588 C 195.880 83.807,196.000 83.987,196.146 83.987 C 196.292 83.987,196.412 84.166,196.412 84.385 C 196.412 84.605,196.591 84.784,196.811 84.784 C 197.030 84.784,197.211 84.993,197.213 85.249 C 197.217 85.621,197.264 85.640,197.452 85.343 C 197.582 85.139,197.879 85.046,198.113 85.136 C 198.586 85.317,198.683 85.992,198.272 86.246 C 197.862 86.500,197.958 87.176,198.405 87.176 C 198.671 87.176,198.804 87.442,198.804 87.973 C 198.804 88.505,198.937 88.771,199.203 88.771 C 199.498 88.771,199.601 89.081,199.601 89.967 C 199.601 90.853,199.705 91.163,200.000 91.163 C 200.244 91.163,200.399 91.411,200.399 91.802 C 200.399 92.308,200.508 92.413,200.923 92.305 C 201.416 92.176,201.438 92.269,201.288 93.872 C 201.160 95.241,201.214 95.661,201.561 96.008 C 201.884 96.331,201.993 96.949,201.993 98.453 C 201.993 100.064,202.073 100.465,202.392 100.465 C 202.733 100.465,202.791 101.233,202.791 105.781 C 202.791 110.919,202.808 111.096,203.322 111.096 C 203.923 111.096,203.930 111.167,203.604 113.986 C 203.431 115.480,203.465 116.157,203.748 116.834 C 204.111 117.703,203.517 118.644,202.959 118.086 C 202.866 117.994,202.791 119.958,202.791 122.452 C 202.791 126.237,202.725 127.012,202.392 127.139 C 202.081 127.259,201.993 127.789,201.993 129.560 C 201.993 131.398,201.918 131.827,201.595 131.827 C 201.285 131.827,201.196 132.182,201.196 133.422 C 201.196 134.662,201.107 135.017,200.797 135.017 C 200.509 135.017,200.399 135.312,200.399 136.080 C 200.399 136.848,200.288 137.143,200.000 137.143 C 199.734 137.143,199.601 137.409,199.601 137.940 C 199.601 138.472,199.468 138.738,199.203 138.738 C 198.937 138.738,198.804 139.003,198.804 139.535 C 198.804 140.066,198.671 140.332,198.405 140.332 C 198.186 140.332,198.007 140.512,198.007 140.731 C 198.007 140.950,197.827 141.130,197.608 141.130 C 197.342 141.130,197.209 141.395,197.209 141.927 C 197.209 142.458,197.076 142.724,196.811 142.724 C 196.591 142.724,196.412 142.904,196.412 143.123 C 196.412 143.342,196.292 143.522,196.146 143.522 C 196.000 143.522,195.880 143.701,195.880 143.920 C 195.880 144.140,195.701 144.319,195.482 144.319 C 195.262 144.319,195.083 144.498,195.083 144.718 C 195.083 144.937,194.904 145.116,194.684 145.116 C 194.465 145.116,194.286 145.296,194.286 145.515 C 194.286 145.734,194.161 145.914,194.008 145.914 C 193.856 145.914,193.766 146.123,193.809 146.379 C 193.873 146.761,193.709 146.833,192.890 146.785 C 192.164 146.743,191.894 146.833,191.894 147.118 C 191.894 147.375,191.621 147.508,191.096 147.508 C 190.565 147.508,190.299 147.641,190.299 147.907 C 190.299 148.202,189.989 148.306,189.103 148.306 C 188.445 148.306,187.907 148.425,187.907 148.571 C 187.907 148.718,187.369 148.837,186.711 148.837 C 185.825 148.837,185.515 148.941,185.515 149.236 C 185.515 149.581,184.511 149.635,178.073 149.635 C 171.635 149.635,170.631 149.581,170.631 149.236 C 170.631 148.941,170.321 148.837,169.435 148.837 C 168.777 148.837,168.239 148.718,168.239 148.571 C 168.239 148.425,167.761 148.306,167.176 148.306 C 166.408 148.306,166.113 148.195,166.113 147.907 C 166.113 147.641,165.847 147.508,165.316 147.508 C 164.784 147.508,164.518 147.375,164.518 147.110 C 164.518 146.890,164.339 146.711,164.120 146.711 C 163.900 146.711,163.721 146.532,163.721 146.312 C 163.721 146.047,163.455 145.914,162.924 145.914 C 162.392 145.914,162.126 145.781,162.126 145.515 C 162.126 145.296,161.947 145.116,161.728 145.116 C 161.508 145.116,161.329 144.937,161.329 144.718 C 161.329 144.498,161.150 144.319,160.930 144.319 C 160.711 144.319,160.532 144.140,160.532 143.920 C 160.532 143.701,160.352 143.522,160.133 143.522 C 159.867 143.522,159.734 143.256,159.734 142.724 C 159.734 142.193,159.601 141.927,159.336 141.927 C 159.116 141.927,158.937 141.748,158.937 141.528 C 158.937 141.309,158.757 141.130,158.538 141.130 C 158.272 141.130,158.140 140.864,158.140 140.332 C 158.140 139.801,158.007 139.535,157.741 139.535 C 157.475 139.535,157.342 139.269,157.342 138.738 C 157.342 138.206,157.209 137.940,156.944 137.940 C 156.648 137.940,156.545 137.630,156.545 136.744 C 156.545 135.858,156.441 135.548,156.146 135.548 C 155.858 135.548,155.748 135.253,155.748 134.485 C 155.748 133.717,155.637 133.422,155.349 133.422 C 155.044 133.422,154.950 133.086,154.950 131.991 C 154.950 130.767,154.871 130.540,154.399 130.416 C 153.938 130.296,153.894 130.184,154.133 129.738 C 154.598 128.870,154.505 124.136,154.020 123.950 C 153.675 123.818,153.621 122.436,153.621 113.754 C 153.621 105.072,153.675 103.691,154.020 103.558 C 154.491 103.378,154.613 98.225,154.153 97.940 C 153.685 97.651,153.868 97.010,154.419 97.010 C 154.886 97.010,154.950 96.833,154.950 95.548 C 154.950 94.426,155.043 94.086,155.349 94.086 C 155.637 94.086,155.748 93.791,155.748 93.023 C 155.748 92.255,155.858 91.960,156.146 91.960 C 156.441 91.960,156.545 91.650,156.545 90.764 C 156.545 89.878,156.648 89.568,156.944 89.568 C 157.209 89.568,157.342 89.302,157.342 88.771 C 157.342 88.239,157.475 87.973,157.741 87.973 C 158.007 87.973,158.140 87.708,158.140 87.176 C 158.140 86.645,158.272 86.379,158.538 86.379 C 158.757 86.379,158.937 86.199,158.937 85.980 C 158.937 85.761,159.116 85.581,159.336 85.581 C 159.601 85.581,159.734 85.316,159.734 84.784 C 159.734 84.252,159.867 83.987,160.133 83.987 C 160.352 83.987,160.532 83.807,160.532 83.588 C 160.532 83.369,160.711 83.189,160.930 83.189 C 161.150 83.189,161.329 83.010,161.329 82.791 C 161.329 82.571,161.505 82.392,161.719 82.392 C 161.957 82.392,162.050 82.236,161.957 81.993 C 161.838 81.684,162.019 81.595,162.762 81.595 C 163.437 81.595,163.721 81.477,163.721 81.196 C 163.721 80.977,163.900 80.797,164.120 80.797 C 164.339 80.797,164.518 80.618,164.518 80.399 C 164.518 80.133,164.784 80.000,165.316 80.000 C 165.754 80.000,166.113 79.880,166.113 79.734 C 166.113 79.588,166.591 79.468,167.176 79.468 C 167.944 79.468,168.239 79.358,168.239 79.070 C 168.239 78.773,168.553 78.671,169.468 78.671 C 170.513 78.671,170.648 78.613,170.375 78.284 C 170.198 78.071,170.131 77.772,170.225 77.620 C 170.443 77.267,171.081 77.260,171.296 77.608 M112.159 91.561 L 112.159 104.452 118.007 104.452 L 123.854 104.452 123.854 91.880 C 123.854 82.457,123.934 79.229,124.173 78.990 C 124.701 78.462,141.130 78.539,141.130 79.070 C 141.130 79.289,141.309 79.468,141.528 79.468 C 141.881 79.468,141.927 83.518,141.927 114.317 L 141.927 149.165 141.329 149.005 C 141.000 148.917,136.934 148.843,132.292 148.841 L 123.854 148.837 123.854 134.485 L 123.854 120.133 118.007 120.133 L 112.159 120.133 112.159 134.478 L 112.159 148.823 103.455 148.897 C 98.668 148.937,94.571 149.030,94.352 149.103 C 94.095 149.189,93.961 149.071,93.976 148.771 C 93.988 148.515,94.018 132.817,94.042 113.887 C 94.081 83.490,94.133 79.468,94.485 79.468 C 94.704 79.468,94.884 79.289,94.884 79.070 C 94.884 78.724,96.021 78.671,103.522 78.671 L 112.159 78.671 112.159 91.561 M232.558 79.070 C 232.558 79.289,232.738 79.468,232.957 79.468 C 233.309 79.468,233.355 82.673,233.355 106.711 L 233.355 133.953 244.252 133.953 L 255.150 133.953 255.150 141.395 L 255.150 148.837 235.216 148.837 L 215.282 148.837 215.282 113.754 L 215.282 78.671 223.920 78.671 C 231.421 78.671,232.558 78.724,232.558 79.070 M299.003 79.070 C 299.003 79.289,299.123 79.468,299.269 79.468 C 299.415 79.468,299.535 79.947,299.535 80.532 C 299.535 81.299,299.646 81.595,299.934 81.595 C 300.244 81.595,300.332 81.949,300.332 83.189 C 300.332 84.430,300.421 84.784,300.731 84.784 C 301.041 84.784,301.130 85.138,301.130 86.379 C 301.130 87.619,301.218 87.973,301.528 87.973 C 301.838 87.973,301.927 88.328,301.927 89.568 C 301.927 90.808,302.016 91.163,302.326 91.163 C 302.632 91.163,302.724 91.502,302.724 92.625 C 302.724 93.747,302.817 94.086,303.123 94.086 C 303.436 94.086,303.522 94.453,303.522 95.795 C 303.522 96.959,303.649 97.631,303.920 97.902 C 304.179 98.161,304.319 98.820,304.319 99.782 C 304.319 100.921,304.411 101.262,304.718 101.262 C 305.028 101.262,305.116 101.617,305.116 102.857 C 305.116 104.097,305.205 104.452,305.515 104.452 C 305.821 104.452,305.914 104.791,305.914 105.914 C 305.914 107.036,306.006 107.375,306.312 107.375 C 306.622 107.375,306.711 107.730,306.711 108.970 C 306.711 110.210,306.800 110.565,307.110 110.565 C 307.420 110.565,307.508 110.919,307.508 112.159 C 307.508 113.400,307.597 113.754,307.907 113.754 C 308.217 113.754,308.306 114.109,308.306 115.349 C 308.306 116.589,308.394 116.944,308.704 116.944 C 309.010 116.944,309.103 117.283,309.103 118.405 C 309.103 119.528,309.196 119.867,309.502 119.867 C 309.812 119.867,309.900 120.221,309.900 121.462 C 309.900 122.702,309.989 123.056,310.299 123.056 C 310.616 123.056,310.698 123.441,310.698 124.925 C 310.698 126.341,310.794 126.831,311.096 126.947 C 311.342 127.041,311.495 127.445,311.495 128.002 C 311.495 128.610,311.620 128.904,311.878 128.904 C 312.413 128.904,312.677 129.423,312.322 129.777 C 311.849 130.251,311.938 133.156,312.425 133.156 C 312.735 133.156,312.824 133.511,312.824 134.751 C 312.824 135.991,312.913 136.346,313.223 136.346 C 313.533 136.346,313.621 136.700,313.621 137.940 C 313.621 139.181,313.710 139.535,314.020 139.535 C 314.330 139.535,314.419 139.889,314.419 141.130 C 314.419 142.370,314.507 142.724,314.817 142.724 C 315.127 142.724,315.216 143.079,315.216 144.319 C 315.216 145.559,315.305 145.914,315.615 145.914 C 315.921 145.914,316.013 146.253,316.013 147.375 L 316.013 148.837 306.578 148.837 L 297.143 148.837 297.143 147.774 C 297.143 147.189,297.023 146.711,296.877 146.711 C 296.717 146.711,296.611 145.604,296.611 143.920 C 296.611 141.650,296.539 141.130,296.223 141.130 C 295.918 141.130,295.818 140.631,295.758 138.804 L 295.681 136.478 288.306 136.408 C 281.862 136.346,280.930 136.388,280.930 136.740 C 280.930 136.962,280.751 137.143,280.532 137.143 C 280.067 137.143,279.941 141.337,280.380 142.158 C 280.698 142.752,280.313 143.382,279.761 143.170 C 279.392 143.028,279.336 143.303,279.336 145.258 C 279.336 147.081,279.260 147.508,278.937 147.508 C 278.689 147.508,278.538 147.759,278.538 148.173 L 278.538 148.837 269.103 148.837 L 259.668 148.837 259.668 147.641 C 259.668 146.755,259.771 146.445,260.066 146.445 C 260.372 146.445,260.465 146.106,260.465 144.983 C 260.465 143.861,260.558 143.522,260.864 143.522 C 261.174 143.522,261.262 143.167,261.262 141.927 C 261.262 140.631,261.343 140.332,261.695 140.332 C 262.070 140.332,262.111 140.043,262.004 138.186 C 261.889 136.202,261.916 136.050,262.368 136.168 C 262.787 136.277,262.857 136.132,262.857 135.157 C 262.857 134.469,263.015 133.888,263.256 133.688 C 263.527 133.462,263.654 132.859,263.654 131.795 C 263.654 130.583,263.744 130.233,264.053 130.233 C 264.363 130.233,264.452 129.878,264.452 128.638 C 264.452 127.398,264.540 127.043,264.850 127.043 C 265.161 127.043,265.249 126.689,265.249 125.449 C 265.249 124.208,265.338 123.854,265.648 123.854 C 265.958 123.854,266.047 123.499,266.047 122.259 C 266.047 121.019,266.135 120.664,266.445 120.664 C 266.751 120.664,266.844 120.325,266.844 119.203 C 266.844 118.080,266.936 117.741,267.243 117.741 C 267.553 117.741,267.641 117.386,267.641 116.146 C 267.641 114.906,267.730 114.551,268.040 114.551 C 268.350 114.551,268.439 114.197,268.439 112.957 C 268.439 111.717,268.527 111.362,268.837 111.362 C 269.147 111.362,269.236 111.008,269.236 109.767 C 269.236 108.527,269.324 108.173,269.635 108.173 C 269.940 108.173,270.033 107.836,270.033 106.739 C 270.033 105.710,270.146 105.263,270.432 105.153 C 270.894 104.976,271.020 101.794,270.565 101.794 C 270.068 101.794,270.296 100.948,270.831 100.808 C 271.230 100.703,271.362 100.445,271.362 99.770 C 271.362 99.148,271.485 98.870,271.761 98.870 C 272.080 98.870,272.159 98.472,272.159 96.877 C 272.159 95.282,272.239 94.884,272.558 94.884 C 272.864 94.884,272.957 94.544,272.957 93.422 C 272.957 92.300,273.049 91.960,273.355 91.960 C 273.666 91.960,273.754 91.606,273.754 90.365 C 273.754 89.125,273.843 88.771,274.153 88.771 C 274.463 88.771,274.551 88.416,274.551 87.176 C 274.551 85.936,274.640 85.581,274.950 85.581 C 275.260 85.581,275.349 85.227,275.349 83.987 C 275.349 82.746,275.437 82.392,275.748 82.392 C 276.054 82.392,276.146 82.052,276.146 80.930 C 276.146 79.808,276.239 79.468,276.545 79.468 C 276.764 79.468,276.944 79.289,276.944 79.070 C 276.944 78.722,278.346 78.671,287.973 78.671 C 297.601 78.671,299.003 78.722,299.003 79.070 M343.389 79.070 C 343.389 79.289,343.568 79.468,343.787 79.468 C 344.136 79.468,344.186 81.034,344.186 91.960 C 344.186 102.887,344.136 104.452,343.787 104.452 C 343.450 104.452,343.389 105.102,343.389 108.704 C 343.389 112.404,343.334 112.957,342.969 112.957 C 342.598 112.957,342.559 113.520,342.636 117.741 C 342.718 122.193,342.458 123.899,341.977 122.060 C 341.910 121.804,341.842 122.462,341.825 123.522 L 341.794 125.449 335.548 125.449 C 330.173 125.449,329.302 125.393,329.302 125.050 C 329.302 124.831,329.123 124.651,328.904 124.651 C 328.563 124.651,328.505 123.913,328.505 119.601 C 328.505 115.290,328.447 114.551,328.106 114.551 C 327.766 114.551,327.708 113.813,327.708 109.502 C 327.708 105.190,327.649 104.452,327.309 104.452 C 326.960 104.452,326.910 102.887,326.910 91.960 C 326.910 81.034,326.960 79.468,327.309 79.468 C 327.528 79.468,327.708 79.289,327.708 79.070 C 327.708 78.724,328.756 78.671,335.548 78.671 C 342.340 78.671,343.389 78.724,343.389 79.070 M77.874 103.123 L 77.874 110.565 69.635 110.565 L 61.395 110.565 61.395 103.123 L 61.395 95.681 69.635 95.681 L 77.874 95.681 77.874 103.123 M183.920 100.842 C 183.920 101.073,184.110 101.262,184.341 101.262 C 184.810 101.262,184.729 100.690,184.236 100.526 C 184.062 100.468,183.920 100.610,183.920 100.842 M154.153 102.990 C 154.153 103.209,153.973 103.389,153.754 103.389 C 153.535 103.389,153.355 103.209,153.355 102.990 C 153.355 102.771,153.535 102.591,153.754 102.591 C 153.973 102.591,154.153 102.771,154.153 102.990 M202.882 114.684 C 202.883 115.854,202.930 116.299,202.986 115.674 C 203.042 115.049,203.041 114.092,202.984 113.548 C 202.927 113.003,202.881 113.515,202.882 114.684 M75.682 118.671 C 75.597 119.117,75.675 119.336,75.917 119.336 C 76.202 119.336,76.279 119.991,76.279 122.392 C 76.279 124.932,76.346 125.449,76.678 125.449 C 76.897 125.449,77.076 125.581,77.076 125.743 C 77.076 125.905,76.897 125.968,76.678 125.884 C 76.458 125.800,76.279 125.847,76.279 125.988 C 76.279 126.130,76.458 126.246,76.678 126.246 C 77.013 126.246,77.076 126.836,77.076 129.967 C 77.076 133.583,77.092 133.688,77.641 133.688 C 78.132 133.688,78.184 133.796,78.040 134.518 C 77.949 134.975,77.874 142.091,77.874 150.332 L 77.874 165.316 69.635 165.316 L 61.395 165.316 61.395 150.033 C 61.395 136.434,61.441 134.751,61.806 134.751 C 62.209 134.751,62.316 126.054,61.927 124.933 C 61.852 124.716,61.986 124.508,62.239 124.452 C 62.533 124.387,62.723 124.562,62.800 124.968 C 62.865 125.305,62.934 124.176,62.954 122.458 C 62.986 119.677,63.041 119.335,63.455 119.331 C 63.827 119.328,63.846 119.281,63.549 119.093 C 62.178 118.224,63.402 118.007,69.657 118.007 L 75.809 118.007 75.682 118.671 M154.153 124.518 C 154.153 124.738,153.973 124.917,153.754 124.917 C 153.535 124.917,153.355 124.738,153.355 124.518 C 153.355 124.299,153.535 124.120,153.754 124.120 C 153.973 124.120,154.153 124.299,154.153 124.518 M183.920 126.667 C 183.920 126.898,184.062 127.040,184.236 126.982 C 184.729 126.818,184.810 126.246,184.341 126.246 C 184.110 126.246,183.920 126.435,183.920 126.667 M343.389 140.997 L 343.389 148.837 335.548 148.837 L 327.708 148.837 327.708 140.997 L 327.708 133.156 335.548 133.156 L 343.389 133.156 343.389 140.997 M371.296 210.115 C 371.296 210.326,371.116 210.498,370.897 210.498 C 370.497 210.498,370.351 209.937,370.668 209.620 C 370.916 209.372,371.296 209.671,371.296 210.115 " stroke="none" fill="#000000" fill-rule="evenodd"></path><path id="path1" d="M363.343 27.575 C 363.329 27.977,363.475 28.171,363.787 28.169 C 364.074 28.166,364.140 28.090,363.960 27.969 C 363.799 27.862,363.599 27.595,363.516 27.375 C 363.415 27.109,363.357 27.175,363.343 27.575 M170.217 77.633 C 170.118 77.794,170.254 78.123,170.519 78.364 C 170.968 78.774,170.978 78.774,170.668 78.360 C 170.393 77.993,170.418 77.869,170.816 77.638 C 171.247 77.387,171.250 77.358,170.846 77.350 C 170.599 77.346,170.316 77.473,170.217 77.633 M197.355 85.515 C 197.213 85.888,197.244 85.914,197.512 85.648 C 198.026 85.138,198.351 85.252,198.185 85.885 C 198.079 86.292,198.118 86.374,198.323 86.169 C 198.687 85.805,198.409 85.050,197.911 85.050 C 197.702 85.050,197.452 85.259,197.355 85.515 M200.517 92.515 C 200.419 92.674,200.479 92.943,200.650 93.113 C 200.888 93.349,200.920 93.311,200.785 92.957 C 200.687 92.700,200.730 92.492,200.882 92.492 C 201.033 92.492,201.212 92.701,201.279 92.957 C 201.370 93.307,201.408 93.274,201.431 92.824 C 201.463 92.200,200.842 91.990,200.517 92.515 M270.391 101.141 C 270.304 101.367,270.308 101.626,270.399 101.717 C 270.490 101.808,270.565 101.692,270.565 101.459 C 270.565 101.226,270.774 100.981,271.030 100.914 C 271.466 100.800,271.465 100.791,271.022 100.762 C 270.761 100.745,270.477 100.915,270.391 101.141 M203.107 111.276 C 203.354 111.342,203.605 111.716,203.665 112.109 C 203.764 112.754,203.778 112.740,203.814 111.960 C 203.848 111.222,203.767 111.101,203.256 111.127 C 202.832 111.149,202.788 111.192,203.107 111.276 M203.012 114.916 C 202.958 116.144,203.019 116.824,203.169 116.672 C 203.390 116.450,203.408 113.220,203.190 113.001 C 203.140 112.952,203.060 113.814,203.012 114.916 M63.348 118.417 C 63.261 118.642,63.265 118.901,63.356 118.993 C 63.447 119.084,63.522 118.955,63.522 118.706 C 63.522 118.291,64.025 118.260,69.635 118.329 C 72.997 118.371,75.748 118.316,75.748 118.206 C 75.747 117.768,63.517 117.976,63.348 118.417 M69.635 119.070 L 63.654 119.218 69.552 119.277 C 73.262 119.314,75.511 119.237,75.615 119.070 C 75.705 118.924,75.742 118.830,75.697 118.863 C 75.652 118.895,72.924 118.988,69.635 119.070 M342.081 122.060 C 342.069 122.316,342.239 122.525,342.458 122.525 C 342.678 122.525,342.855 122.316,342.853 122.060 C 342.850 121.696,342.799 121.673,342.619 121.957 C 342.426 122.263,342.367 122.263,342.246 121.957 C 342.145 121.704,342.095 121.736,342.081 122.060 M61.827 124.597 C 61.755 124.714,61.819 124.983,61.970 125.195 C 62.195 125.514,62.218 125.503,62.100 125.133 C 62.010 124.852,62.125 124.640,62.407 124.566 C 62.829 124.455,62.829 124.445,62.408 124.416 C 62.161 124.399,61.899 124.481,61.827 124.597 M311.495 129.194 C 311.495 129.376,311.574 129.445,311.670 129.349 C 311.766 129.253,312.025 129.323,312.245 129.504 C 312.572 129.774,312.621 129.762,312.513 129.435 C 312.350 128.943,311.495 128.741,311.495 129.194 M154.053 129.844 C 153.894 130.259,154.561 130.710,154.873 130.398 C 154.964 130.307,154.825 130.233,154.563 130.233 C 154.171 130.233,154.145 130.163,154.419 129.834 C 154.609 129.604,154.635 129.435,154.480 129.435 C 154.331 129.435,154.139 129.619,154.053 129.844 M77.392 133.868 C 77.639 133.933,77.894 134.188,77.959 134.435 C 78.043 134.753,78.087 134.709,78.109 134.286 C 78.132 133.825,78.002 133.695,77.542 133.719 C 77.118 133.740,77.074 133.784,77.392 133.868 M280.255 142.742 C 280.158 142.899,279.906 142.960,279.694 142.878 C 279.478 142.796,279.380 142.846,279.470 142.993 C 279.715 143.389,280.322 143.309,280.495 142.857 C 280.671 142.398,280.514 142.323,280.255 142.742 M193.492 146.226 C 193.490 146.471,193.279 146.727,193.023 146.794 C 192.664 146.887,192.691 146.922,193.140 146.946 C 193.844 146.983,194.071 146.688,193.741 146.167 C 193.536 145.843,193.496 145.852,193.492 146.226 M376.794 200.305 C 376.694 200.405,376.613 200.617,376.615 200.775 C 376.618 200.934,376.737 200.884,376.881 200.664 C 377.114 200.310,377.175 200.310,377.429 200.664 C 377.662 200.989,377.696 200.992,377.612 200.681 C 377.492 200.239,377.059 200.039,376.794 200.305 M370.597 209.829 C 370.377 210.401,370.555 210.527,370.961 210.087 C 371.170 209.860,371.194 209.669,371.025 209.565 C 370.880 209.475,370.687 209.594,370.597 209.829 " stroke="none" fill="#0f0f0f" fill-rule="evenodd"></path><path id="path2" d="M287.128 98.073 C 287.128 99.023,287.176 99.412,287.235 98.937 C 287.294 98.462,287.294 97.684,287.235 97.209 C 287.176 96.734,287.128 97.123,287.128 98.073 M172.335 101.794 C 172.335 104.352,172.375 105.399,172.424 104.120 C 172.473 102.841,172.473 100.748,172.424 99.468 C 172.375 98.189,172.335 99.236,172.335 101.794 M172.340 116.146 C 172.340 119.435,172.378 120.781,172.424 119.136 C 172.471 117.492,172.471 114.801,172.424 113.156 C 172.378 111.512,172.340 112.857,172.340 116.146 M172.317 127.973 C 172.318 129.143,172.365 129.588,172.421 128.963 C 172.477 128.338,172.476 127.381,172.419 126.837 C 172.362 126.293,172.316 126.804,172.317 127.973 " stroke="none" fill="#1a091a" fill-rule="evenodd"></path><path id="path3" d="M197.927 85.758 C 198.050 86.079,198.001 86.141,197.745 85.983 C 197.509 85.837,197.456 85.868,197.585 86.076 C 197.691 86.247,197.889 86.319,198.025 86.234 C 198.352 86.033,198.344 85.316,198.015 85.316 C 197.873 85.316,197.834 85.515,197.927 85.758 M173.110 94.751 C 173.112 95.774,173.160 96.160,173.217 95.609 C 173.275 95.057,173.274 94.220,173.215 93.748 C 173.156 93.276,173.109 93.728,173.110 94.751 M287.495 95.318 C 287.143 95.670,287.309 96.004,287.753 95.833 C 287.997 95.740,288.302 95.817,288.432 96.004 C 288.597 96.245,288.642 96.190,288.583 95.817 C 288.498 95.281,287.836 94.977,287.495 95.318 M154.286 97.276 C 154.180 97.447,154.212 97.707,154.359 97.854 C 154.536 98.031,154.689 98.015,154.817 97.807 C 154.923 97.636,154.891 97.376,154.744 97.229 C 154.567 97.052,154.414 97.068,154.286 97.276 M270.565 101.395 C 270.565 101.615,270.744 101.794,270.963 101.794 C 271.183 101.794,271.362 101.615,271.362 101.395 C 271.362 101.176,271.183 100.997,270.963 100.997 C 270.744 100.997,270.565 101.176,270.565 101.395 M202.934 111.694 C 203.004 111.877,203.169 112.744,203.302 113.621 L 203.544 115.216 203.508 113.289 C 203.482 111.944,203.371 111.362,203.139 111.362 C 202.957 111.362,202.864 111.512,202.934 111.694 M203.076 116.906 C 202.665 117.675,203.103 118.334,203.654 117.778 C 203.921 117.510,203.895 117.479,203.522 117.621 C 203.266 117.718,203.056 117.675,203.056 117.526 C 203.056 117.376,203.194 117.208,203.362 117.152 C 203.530 117.096,203.610 116.877,203.540 116.665 C 203.445 116.382,203.323 116.445,203.076 116.906 M292.357 119.414 L 292.488 121.860 292.568 119.626 C 292.611 118.397,292.553 117.296,292.437 117.180 C 292.321 117.063,292.285 118.069,292.357 119.414 M63.526 118.738 C 63.528 119.052,63.595 119.100,63.732 118.885 C 63.843 118.710,64.708 118.524,65.655 118.471 L 67.375 118.375 65.449 118.324 C 63.770 118.279,63.522 118.332,63.526 118.738 M71.628 118.440 C 73.532 118.638,75.688 118.655,75.574 118.472 C 75.506 118.362,74.411 118.292,73.140 118.315 C 71.870 118.338,71.189 118.395,71.628 118.440 M311.654 129.394 C 311.562 129.543,311.616 129.744,311.774 129.842 C 312.183 130.095,312.446 129.749,312.105 129.408 C 311.914 129.217,311.766 129.212,311.654 129.394 M173.054 132.558 C 173.037 133.472,173.114 134.219,173.225 134.219 C 173.335 134.219,173.389 133.651,173.344 132.957 C 173.214 130.937,173.087 130.763,173.054 132.558 M262.060 136.777 C 262.060 137.130,262.132 137.148,262.458 136.877 C 262.678 136.695,262.857 136.501,262.857 136.446 C 262.857 136.391,262.678 136.346,262.458 136.346 C 262.239 136.346,262.060 136.540,262.060 136.777 M279.454 142.216 C 279.180 142.659,279.796 143.167,280.163 142.801 C 280.470 142.494,280.278 141.927,279.867 141.927 C 279.738 141.927,279.552 142.057,279.454 142.216 M94.086 148.704 C 94.086 148.948,94.215 149.104,94.372 149.052 C 94.529 149.000,94.658 148.843,94.658 148.704 C 94.658 148.565,94.529 148.409,94.372 148.357 C 94.215 148.304,94.086 148.461,94.086 148.704 " stroke="none" fill="#1c1111" fill-rule="evenodd"></path><path id="path4" d="M363.588 27.517 C 363.588 27.731,363.767 27.907,363.987 27.907 C 364.206 27.907,364.385 27.800,364.385 27.670 C 364.385 27.539,364.206 27.363,363.987 27.279 C 363.744 27.186,363.588 27.279,363.588 27.517 M170.631 78.015 C 170.631 78.445,171.047 78.543,171.278 78.167 C 171.359 78.037,171.247 77.861,171.028 77.777 C 170.787 77.684,170.631 77.778,170.631 78.015 M176.383 89.967 C 176.164 90.186,175.827 90.368,175.634 90.370 C 175.147 90.376,174.086 91.543,174.086 92.072 C 174.086 92.312,173.907 92.577,173.688 92.661 C 173.389 92.776,173.289 93.253,173.289 94.559 C 173.289 95.774,173.162 96.444,172.871 96.766 C 172.220 97.485,172.185 130.342,172.834 130.834 C 173.142 131.068,173.283 131.650,173.323 132.849 C 173.359 133.967,173.498 134.582,173.732 134.672 C 173.927 134.747,174.086 135.154,174.086 135.577 C 174.086 136.057,174.225 136.346,174.457 136.346 C 174.660 136.346,174.896 136.525,174.980 136.744 C 175.064 136.963,175.363 137.143,175.644 137.143 C 175.926 137.143,176.225 137.322,176.309 137.542 C 176.421 137.835,176.886 137.940,178.073 137.940 C 179.260 137.940,179.725 137.835,179.837 137.542 C 179.922 137.322,180.231 137.143,180.525 137.143 C 181.458 137.143,183.123 135.222,183.123 134.146 C 183.123 133.562,183.272 133.156,183.522 133.060 C 183.847 132.935,183.920 132.290,183.920 129.557 C 183.920 126.934,184.007 126.121,184.319 125.809 C 184.661 125.467,184.718 123.761,184.718 113.754 C 184.718 103.747,184.661 102.041,184.319 101.699 C 184.007 101.387,183.920 100.574,183.920 97.951 C 183.920 95.219,183.847 94.573,183.522 94.448 C 183.273 94.353,183.123 93.947,183.123 93.371 C 183.123 90.897,178.027 88.323,176.383 89.967 M287.641 95.857 C 287.421 95.946,287.309 96.605,287.309 97.816 C 287.309 99.171,287.205 99.700,286.906 99.867 C 286.622 100.026,286.454 100.735,286.334 102.281 C 286.242 103.485,286.064 104.533,285.940 104.609 C 285.816 104.686,285.714 105.759,285.714 106.992 C 285.714 108.809,285.639 109.236,285.316 109.236 C 284.997 109.236,284.917 109.635,284.917 111.229 C 284.917 112.824,284.837 113.223,284.518 113.223 C 284.196 113.223,284.120 113.648,284.120 115.453 C 284.120 117.215,284.034 117.717,283.711 117.841 C 283.376 117.969,283.316 118.441,283.379 120.461 L 283.455 122.924 288.239 122.924 C 292.998 122.924,293.024 122.920,293.108 122.326 C 293.165 121.923,293.057 121.728,292.776 121.728 C 292.430 121.728,292.359 121.345,292.359 119.484 C 292.359 118.250,292.239 117.167,292.093 117.076 C 291.947 116.986,291.827 116.031,291.827 114.953 C 291.827 113.567,291.711 112.878,291.429 112.596 C 291.148 112.315,291.030 111.629,291.030 110.272 C 291.030 108.969,290.906 108.211,290.647 107.924 C 290.388 107.639,290.246 106.779,290.210 105.289 C 290.172 103.710,290.053 103.037,289.796 102.939 C 289.532 102.838,289.435 102.207,289.435 100.598 C 289.435 98.886,289.347 98.362,289.037 98.243 C 288.807 98.155,288.638 97.757,288.638 97.306 C 288.638 96.430,288.404 95.670,288.144 95.702 C 288.050 95.714,287.824 95.783,287.641 95.857 M65.581 118.451 C 61.561 118.700,64.014 119.068,69.635 119.059 C 73.191 119.053,75.482 118.949,75.482 118.794 C 75.482 118.653,74.902 118.538,74.194 118.538 C 73.486 118.538,71.662 118.494,70.141 118.439 C 68.620 118.385,66.568 118.390,65.581 118.451 M364.385 214.906 C 364.385 215.375,364.958 215.293,365.122 214.801 C 365.180 214.627,365.038 214.485,364.806 214.485 C 364.575 214.485,364.385 214.674,364.385 214.906 " stroke="none" fill="#231f20" fill-rule="evenodd"></path></g></svg>