<svg id="svg" version="1.1" width="400" height="400" xmlns="http://www.w3.org/2000/svg" xmlns:xlink="http://www.w3.org/1999/xlink" style="display: block;"><g id="svgg"><path id="path0" d="" stroke="none" fill="#000000" fill-rule="evenodd"></path><path id="path1" d="" stroke="none" fill="#1c1c1c" fill-rule="evenodd"></path><path id="path2" d="" stroke="none" fill="#143b3b" fill-rule="evenodd"></path><path id="path3" d="M257.220 152.800 C 257.216 152.910,257.471 153.720,257.788 154.600 C 258.105 155.480,258.366 155.840,258.368 155.400 C 258.371 154.735,257.245 152.185,257.220 152.800 M352.800 212.400 C 352.800 213.147,352.907 213.253,353.280 212.880 C 353.653 212.507,353.653 212.293,353.280 211.920 C 352.907 211.547,352.800 211.653,352.800 212.400 M197.200 331.218 C 196.762 331.515,196.924 331.552,197.800 331.356 C 199.271 331.027,199.590 330.798,198.567 330.806 C 198.145 330.809,197.530 330.995,197.200 331.218 " stroke="none" fill="#333347" fill-rule="evenodd"></path><path id="path4" d="M178.000 55.600 C 178.000 55.845,176.075 56.000,173.024 56.000 C 170.137 56.000,167.943 56.168,167.800 56.400 C 167.664 56.620,166.033 56.800,164.176 56.800 C 162.192 56.800,160.800 56.965,160.800 57.200 C 160.800 57.429,159.600 57.600,158.000 57.600 C 156.400 57.600,155.200 57.771,155.200 58.000 C 155.200 58.229,154.000 58.400,152.400 58.400 C 150.800 58.400,149.600 58.571,149.600 58.800 C 149.600 59.020,148.610 59.200,147.400 59.200 C 146.190 59.200,145.200 59.359,145.200 59.552 C 145.200 59.746,143.490 60.033,141.401 60.190 C 139.311 60.346,137.500 60.638,137.377 60.837 C 137.254 61.037,136.716 61.200,136.182 61.200 C 135.004 61.200,131.663 61.961,130.705 62.447 C 130.323 62.641,129.378 62.800,128.605 62.800 C 127.832 62.800,127.200 62.980,127.200 63.200 C 127.200 63.420,126.480 63.600,125.600 63.600 C 124.720 63.600,124.000 63.780,124.000 64.000 C 124.000 64.220,123.280 64.400,122.400 64.400 C 121.520 64.400,120.800 64.580,120.800 64.800 C 120.800 65.020,120.181 65.200,119.424 65.200 C 118.667 65.200,117.936 65.380,117.800 65.600 C 117.664 65.820,117.124 66.000,116.600 66.000 C 116.076 66.000,115.536 66.180,115.400 66.400 C 115.264 66.620,114.724 66.800,114.200 66.800 C 113.676 66.800,113.136 66.980,113.000 67.200 C 112.864 67.420,112.133 67.600,111.376 67.600 C 110.619 67.600,110.000 67.780,110.000 68.000 C 110.000 68.220,109.460 68.400,108.800 68.400 C 108.140 68.400,107.600 68.580,107.600 68.800 C 107.600 69.020,107.060 69.200,106.400 69.200 C 105.740 69.200,105.200 69.380,105.200 69.600 C 105.200 69.820,104.840 70.000,104.400 70.000 C 103.960 70.000,103.600 70.180,103.600 70.400 C 103.600 70.620,103.060 70.800,102.400 70.800 C 101.740 70.800,101.200 70.980,101.200 71.200 C 101.200 71.420,100.660 71.600,100.000 71.600 C 99.340 71.600,98.800 71.780,98.800 72.000 C 98.800 72.220,98.438 72.400,97.995 72.400 C 97.243 72.400,95.654 73.102,95.200 73.635 C 95.090 73.764,94.145 74.118,93.100 74.422 C 92.055 74.726,91.200 75.115,91.200 75.287 C 91.200 75.459,90.840 75.600,90.400 75.600 C 89.960 75.600,89.600 75.780,89.600 76.000 C 89.600 76.220,89.060 76.400,88.400 76.400 C 87.740 76.400,87.200 76.580,87.200 76.800 C 87.200 77.020,86.937 77.200,86.615 77.200 C 85.887 77.200,78.249 80.847,78.067 81.282 C 77.993 81.457,77.588 81.600,77.167 81.600 C 76.745 81.600,76.400 81.780,76.400 82.000 C 76.400 82.220,76.040 82.400,75.600 82.400 C 75.160 82.400,74.800 82.580,74.800 82.800 C 74.800 83.020,74.440 83.200,74.000 83.200 C 73.560 83.200,73.199 83.335,73.197 83.500 C 73.193 83.837,71.275 84.800,70.609 84.800 C 70.371 84.800,69.917 85.160,69.600 85.600 C 69.283 86.040,68.703 86.400,68.312 86.400 C 67.920 86.400,67.600 86.580,67.600 86.800 C 67.600 87.020,67.364 87.200,67.075 87.200 C 66.787 87.200,66.202 87.515,65.775 87.900 C 65.349 88.285,64.460 88.869,63.800 89.197 C 63.140 89.526,62.309 90.111,61.953 90.497 C 61.597 90.884,61.052 91.200,60.741 91.200 C 60.431 91.200,59.917 91.560,59.600 92.000 C 59.283 92.440,58.703 92.800,58.312 92.800 C 57.920 92.800,57.600 92.959,57.600 93.154 C 57.600 93.349,56.959 93.813,56.176 94.185 C 55.393 94.556,54.653 95.117,54.533 95.430 C 54.413 95.744,54.064 96.000,53.758 96.000 C 53.453 96.000,52.505 96.630,51.653 97.400 C 50.800 98.170,49.975 98.800,49.819 98.800 C 49.429 98.800,46.383 101.372,43.780 103.900 C 42.590 105.055,41.455 106.000,41.256 106.000 C 40.790 106.000,31.603 114.977,31.590 115.445 C 31.585 115.640,30.505 116.939,29.190 118.331 C 27.876 119.723,26.800 121.022,26.800 121.218 C 26.800 121.413,26.170 122.203,25.400 122.973 C 24.630 123.743,24.000 124.577,24.000 124.826 C 24.000 125.075,23.460 125.783,22.800 126.400 C 22.140 127.017,21.600 127.691,21.600 127.898 C 21.600 128.106,21.240 128.602,20.800 129.000 C 20.360 129.398,20.000 129.938,20.000 130.200 C 20.000 130.462,19.640 131.002,19.200 131.400 C 18.760 131.798,18.400 132.366,18.400 132.662 C 18.400 132.958,18.247 133.200,18.060 133.200 C 17.873 133.200,17.110 134.415,16.364 135.900 C 15.619 137.385,14.791 138.829,14.524 139.109 C 13.750 139.922,10.000 147.977,10.000 148.827 C 10.000 149.252,9.820 149.600,9.600 149.600 C 9.380 149.600,9.200 149.960,9.200 150.400 C 9.200 150.840,9.020 151.200,8.800 151.200 C 8.580 151.200,8.400 151.740,8.400 152.400 C 8.400 153.060,8.220 153.600,8.000 153.600 C 7.780 153.600,7.600 153.960,7.600 154.400 C 7.600 154.840,7.420 155.200,7.200 155.200 C 6.980 155.200,6.800 155.740,6.800 156.400 C 6.800 157.060,6.620 157.600,6.400 157.600 C 6.180 157.600,6.000 158.140,6.000 158.800 C 6.000 159.460,5.820 160.000,5.600 160.000 C 5.380 160.000,5.200 160.619,5.200 161.376 C 5.200 162.133,5.020 162.864,4.800 163.000 C 4.580 163.136,4.400 163.676,4.400 164.200 C 4.400 164.724,4.220 165.264,4.000 165.400 C 3.780 165.536,3.600 166.267,3.600 167.024 C 3.600 167.781,3.420 168.400,3.200 168.400 C 2.980 168.400,2.800 169.300,2.800 170.400 C 2.800 171.500,2.620 172.400,2.400 172.400 C 2.178 172.400,2.000 173.459,2.000 174.776 C 2.000 176.083,1.820 177.264,1.600 177.400 C 1.380 177.536,1.200 178.681,1.200 179.944 C 1.200 181.207,1.002 182.438,0.760 182.680 C 0.135 183.305,0.128 211.709,0.753 211.918 C 1.025 212.008,1.200 213.151,1.200 214.833 C 1.200 216.411,1.372 217.600,1.600 217.600 C 1.820 217.600,2.000 218.489,2.000 219.576 C 2.000 220.663,2.180 221.664,2.400 221.800 C 2.620 221.936,2.800 222.757,2.800 223.624 C 2.800 224.491,2.980 225.200,3.200 225.200 C 3.420 225.200,3.600 225.920,3.600 226.800 C 3.600 227.680,3.780 228.400,4.000 228.400 C 4.220 228.400,4.400 228.940,4.400 229.600 C 4.400 230.260,4.580 230.800,4.800 230.800 C 5.020 230.800,5.200 231.329,5.200 231.976 C 5.200 232.623,5.380 233.264,5.600 233.400 C 5.820 233.536,6.000 234.087,6.000 234.624 C 6.000 235.161,6.180 235.600,6.400 235.600 C 6.620 235.600,6.800 236.039,6.800 236.576 C 6.800 237.113,6.980 237.664,7.200 237.800 C 7.420 237.936,7.600 238.487,7.600 239.024 C 7.600 239.561,7.780 240.000,8.000 240.000 C 8.220 240.000,8.400 240.360,8.400 240.800 C 8.400 241.240,8.580 241.600,8.800 241.600 C 9.020 241.600,9.200 241.960,9.200 242.400 C 9.200 242.840,9.380 243.200,9.600 243.200 C 9.820 243.200,10.000 243.623,10.000 244.140 C 10.000 244.657,10.706 246.412,11.568 248.040 C 12.430 249.668,13.637 251.990,14.249 253.200 C 14.862 254.410,15.686 255.691,16.081 256.047 C 16.477 256.403,16.800 256.948,16.800 257.259 C 16.800 257.569,17.160 258.083,17.600 258.400 C 18.040 258.717,18.400 259.257,18.400 259.600 C 18.400 259.943,18.760 260.483,19.200 260.800 C 19.640 261.117,20.000 261.625,20.000 261.928 C 20.000 262.231,20.540 262.983,21.200 263.600 C 21.860 264.217,22.400 264.933,22.400 265.192 C 22.400 265.451,23.120 266.354,24.000 267.200 C 24.880 268.046,25.600 268.933,25.600 269.172 C 25.600 269.671,40.658 284.800,41.155 284.800 C 41.334 284.800,42.003 285.295,42.641 285.900 C 43.279 286.505,44.701 287.720,45.800 288.600 C 46.900 289.480,47.890 290.290,48.000 290.401 C 48.110 290.511,48.695 290.856,49.300 291.168 C 49.905 291.480,50.400 291.885,50.400 292.068 C 50.400 292.250,50.672 292.400,51.004 292.400 C 51.336 292.400,52.172 292.940,52.863 293.600 C 53.554 294.260,54.362 294.800,54.659 294.800 C 54.957 294.800,55.200 294.980,55.200 295.200 C 55.200 295.420,55.520 295.600,55.912 295.600 C 56.303 295.600,56.883 295.960,57.200 296.400 C 57.517 296.840,58.057 297.200,58.400 297.200 C 58.743 297.200,59.283 297.560,59.600 298.000 C 59.917 298.440,60.497 298.800,60.888 298.800 C 61.280 298.800,61.600 298.980,61.600 299.200 C 61.600 299.420,61.811 299.600,62.069 299.600 C 62.326 299.600,62.859 299.891,63.252 300.247 C 64.032 300.953,68.639 303.423,74.000 306.011 C 75.870 306.913,77.878 307.910,78.462 308.226 C 79.046 308.542,79.811 308.800,80.162 308.800 C 80.513 308.800,80.800 308.980,80.800 309.200 C 80.800 309.420,81.160 309.600,81.600 309.600 C 82.040 309.600,82.400 309.780,82.400 310.000 C 82.400 310.220,82.940 310.400,83.600 310.400 C 84.260 310.400,84.800 310.580,84.800 310.800 C 84.800 311.020,85.160 311.200,85.600 311.200 C 86.040 311.200,86.400 311.380,86.400 311.600 C 86.400 311.820,86.760 312.000,87.200 312.000 C 87.640 312.000,88.000 312.180,88.000 312.400 C 88.000 312.620,88.540 312.800,89.200 312.800 C 89.860 312.800,90.400 312.980,90.400 313.200 C 90.400 313.420,90.760 313.600,91.200 313.600 C 91.640 313.600,92.000 313.780,92.000 314.000 C 92.000 314.220,92.540 314.400,93.200 314.400 C 93.860 314.400,94.400 314.580,94.400 314.800 C 94.400 315.020,94.839 315.200,95.376 315.200 C 95.913 315.200,96.464 315.380,96.600 315.600 C 96.736 315.820,97.276 316.000,97.800 316.000 C 98.324 316.000,98.864 316.180,99.000 316.400 C 99.136 316.620,99.687 316.800,100.224 316.800 C 100.761 316.800,101.200 316.980,101.200 317.200 C 101.200 317.420,101.740 317.600,102.400 317.600 C 103.060 317.600,103.600 317.780,103.600 318.000 C 103.600 318.220,104.140 318.400,104.800 318.400 C 105.460 318.400,106.000 318.580,106.000 318.800 C 106.000 319.020,106.540 319.200,107.200 319.200 C 107.860 319.200,108.400 319.380,108.400 319.600 C 108.400 319.820,109.120 320.000,110.000 320.000 C 110.880 320.000,111.600 320.180,111.600 320.400 C 111.600 320.620,112.129 320.800,112.776 320.800 C 113.423 320.800,114.052 320.960,114.173 321.156 C 114.294 321.351,114.979 321.608,115.696 321.727 C 116.413 321.845,117.720 322.127,118.600 322.353 C 126.776 324.451,130.420 325.200,132.455 325.200 C 133.305 325.200,134.000 325.380,134.000 325.600 C 134.000 325.820,134.900 326.000,136.000 326.000 C 137.100 326.000,138.000 326.180,138.000 326.400 C 138.000 326.622,139.067 326.800,140.400 326.800 C 141.733 326.800,142.800 326.978,142.800 327.200 C 142.800 327.425,143.925 327.600,145.376 327.600 C 146.793 327.600,148.064 327.780,148.200 328.000 C 148.336 328.220,149.596 328.400,151.000 328.400 C 152.404 328.400,153.664 328.580,153.800 328.800 C 153.936 329.020,155.556 329.200,157.400 329.200 C 159.244 329.200,160.864 329.380,161.000 329.600 C 161.140 329.827,163.137 330.000,165.624 330.000 C 168.275 330.000,170.000 330.158,170.000 330.400 C 170.000 330.656,173.533 330.800,179.800 330.800 C 186.486 330.800,189.600 330.936,189.600 331.227 C 189.600 331.518,190.847 331.576,193.500 331.409 C 195.645 331.274,201.765 331.076,207.100 330.968 C 212.937 330.851,216.800 330.619,216.800 330.386 C 216.800 330.160,218.708 330.000,221.400 330.000 C 224.200 330.000,226.000 329.843,226.000 329.600 C 226.000 329.363,227.467 329.200,229.600 329.200 C 231.733 329.200,233.200 329.037,233.200 328.800 C 233.200 328.569,234.459 328.400,236.176 328.400 C 237.813 328.400,239.264 328.220,239.400 328.000 C 239.536 327.780,240.627 327.600,241.824 327.600 C 243.021 327.600,244.000 327.420,244.000 327.200 C 244.000 326.978,245.067 326.800,246.400 326.800 C 247.733 326.800,248.800 326.622,248.800 326.400 C 248.800 326.180,249.760 326.000,250.933 326.000 C 252.107 326.000,253.200 325.865,253.364 325.700 C 253.527 325.535,255.222 325.185,257.131 324.923 C 261.799 324.281,263.252 324.009,264.200 323.600 C 264.982 323.262,266.053 323.049,269.509 322.544 C 270.449 322.406,271.315 322.138,271.433 321.947 C 271.551 321.756,272.166 321.600,272.800 321.600 C 273.434 321.600,274.064 321.420,274.200 321.200 C 274.336 320.980,274.977 320.800,275.624 320.800 C 276.271 320.800,276.800 320.620,276.800 320.400 C 276.800 320.180,277.419 320.000,278.176 320.000 C 278.933 320.000,279.664 319.820,279.800 319.600 C 279.936 319.380,280.476 319.200,281.000 319.200 C 281.524 319.200,282.064 319.020,282.200 318.800 C 282.336 318.580,282.977 318.400,283.624 318.400 C 284.271 318.400,284.800 318.220,284.800 318.000 C 284.800 317.780,285.419 317.600,286.176 317.600 C 286.933 317.600,287.664 317.420,287.800 317.200 C 287.936 316.980,288.487 316.800,289.024 316.800 C 289.561 316.800,290.000 316.620,290.000 316.400 C 290.000 316.180,290.540 316.000,291.200 316.000 C 291.860 316.000,292.400 315.820,292.400 315.600 C 292.400 315.380,292.940 315.200,293.600 315.200 C 294.260 315.200,294.800 315.020,294.800 314.800 C 294.800 314.580,295.160 314.400,295.600 314.400 C 296.040 314.400,296.400 314.220,296.400 314.000 C 296.400 313.780,296.940 313.600,297.600 313.600 C 298.260 313.600,298.800 313.420,298.800 313.200 C 298.800 312.980,299.340 312.800,300.000 312.800 C 300.660 312.800,301.200 312.620,301.200 312.400 C 301.200 312.180,301.560 312.000,302.000 312.000 C 302.440 312.000,302.800 311.820,302.800 311.600 C 302.800 311.380,303.155 311.200,303.588 311.200 C 304.021 311.200,305.017 310.840,305.800 310.400 C 306.583 309.960,307.579 309.600,308.012 309.600 C 308.445 309.600,308.800 309.420,308.800 309.200 C 308.800 308.980,309.057 308.800,309.372 308.800 C 309.687 308.800,311.111 308.260,312.537 307.600 C 313.963 306.940,315.270 306.400,315.441 306.400 C 315.962 306.400,323.391 302.648,323.533 302.313 C 323.607 302.141,324.012 302.000,324.433 302.000 C 324.855 302.000,325.200 301.842,325.200 301.649 C 325.200 301.455,325.740 301.073,326.400 300.800 C 327.060 300.527,327.600 300.145,327.600 299.951 C 327.600 299.758,327.960 299.600,328.400 299.600 C 328.840 299.600,329.200 299.420,329.200 299.200 C 329.200 298.980,329.560 298.800,330.000 298.800 C 330.440 298.800,330.800 298.620,330.800 298.400 C 330.800 298.180,331.120 298.000,331.512 298.000 C 331.903 298.000,332.483 297.640,332.800 297.200 C 333.117 296.760,333.697 296.400,334.088 296.400 C 334.480 296.400,334.800 296.220,334.800 296.000 C 334.800 295.780,335.340 295.600,336.000 295.600 C 336.660 295.600,337.200 295.420,337.200 295.200 C 337.200 294.971,338.400 294.800,340.000 294.800 C 341.600 294.800,342.800 294.971,342.800 295.200 C 342.800 295.420,343.340 295.600,344.000 295.600 C 344.660 295.600,345.200 295.736,345.200 295.902 C 345.200 296.069,345.785 296.464,346.500 296.780 C 347.215 297.097,348.149 297.680,348.575 298.078 C 349.002 298.475,349.587 298.800,349.875 298.800 C 350.164 298.800,350.400 298.980,350.400 299.200 C 350.400 299.420,350.688 299.600,351.040 299.600 C 351.391 299.600,352.183 300.140,352.800 300.800 C 353.417 301.460,354.209 302.000,354.560 302.000 C 354.912 302.000,355.200 302.141,355.200 302.314 C 355.200 302.486,355.707 302.927,356.327 303.293 C 356.947 303.659,358.252 304.688,359.227 305.580 C 360.202 306.471,361.136 307.200,361.302 307.200 C 361.778 307.200,371.600 317.138,371.600 317.620 C 371.600 317.858,372.500 318.929,373.600 320.000 C 374.700 321.071,375.600 322.060,375.600 322.196 C 375.600 322.332,376.139 323.019,376.798 323.722 C 377.457 324.425,377.997 325.182,377.998 325.404 C 377.999 325.626,378.450 326.293,379.000 326.887 C 379.550 327.480,380.000 328.125,380.000 328.321 C 380.000 328.516,380.360 329.002,380.800 329.400 C 381.240 329.798,381.600 330.338,381.600 330.600 C 381.600 330.862,381.960 331.402,382.400 331.800 C 382.840 332.198,383.200 332.856,383.200 333.262 C 383.200 333.668,383.380 334.000,383.600 334.000 C 383.820 334.000,384.000 334.242,384.000 334.538 C 384.000 334.834,384.360 335.402,384.800 335.800 C 385.240 336.198,385.600 336.738,385.600 337.000 C 385.600 337.262,385.960 337.802,386.400 338.200 C 386.840 338.598,387.200 339.102,387.200 339.319 C 387.200 339.536,387.740 340.229,388.400 340.860 C 389.060 341.491,389.600 342.194,389.600 342.422 C 389.600 342.650,390.042 343.278,390.582 343.818 C 391.888 345.124,394.800 345.250,394.800 344.000 C 394.800 343.560,394.980 343.200,395.200 343.200 C 395.420 343.200,395.600 342.221,395.600 341.024 C 395.600 339.827,395.780 338.736,396.000 338.600 C 396.546 338.263,396.546 318.800,396.000 318.800 C 395.760 318.800,395.600 317.200,395.600 314.800 C 395.600 312.400,395.440 310.800,395.200 310.800 C 394.971 310.800,394.800 309.600,394.800 308.000 C 394.800 306.400,394.629 305.200,394.400 305.200 C 394.180 305.200,394.000 304.401,394.000 303.424 C 394.000 302.447,393.820 301.536,393.600 301.400 C 393.380 301.264,393.200 300.364,393.200 299.400 C 393.200 298.436,393.020 297.536,392.800 297.400 C 392.580 297.264,392.400 296.533,392.400 295.776 C 392.400 295.019,392.243 294.400,392.052 294.400 C 391.860 294.400,391.578 293.455,391.425 292.300 C 391.128 290.057,389.920 286.019,388.762 283.400 C 388.373 282.520,387.826 281.125,387.547 280.300 C 387.268 279.475,386.895 278.800,386.720 278.800 C 386.544 278.800,386.400 278.451,386.400 278.024 C 386.400 277.597,386.220 277.136,386.000 277.000 C 385.780 276.864,385.600 276.313,385.600 275.776 C 385.600 275.239,385.465 274.799,385.300 274.797 C 384.941 274.793,384.000 272.856,384.000 272.120 C 384.000 271.834,383.820 271.600,383.600 271.600 C 383.380 271.600,383.200 271.240,383.200 270.800 C 383.200 270.360,383.065 269.999,382.900 269.997 C 382.420 269.992,381.600 267.940,381.600 266.744 C 381.600 266.141,381.403 265.525,381.162 265.376 C 380.902 265.216,380.820 264.556,380.962 263.753 C 381.093 263.009,381.310 261.770,381.444 261.000 C 381.578 260.230,381.848 259.600,382.044 259.600 C 382.240 259.600,382.400 259.240,382.400 258.800 C 382.400 258.360,382.580 258.000,382.800 258.000 C 383.020 258.000,383.200 257.683,383.200 257.296 C 383.200 256.909,383.560 256.368,384.000 256.093 C 384.440 255.818,384.800 255.347,384.800 255.046 C 384.800 254.744,385.079 254.266,385.420 253.984 C 385.761 253.701,386.390 252.700,386.819 251.759 C 387.247 250.818,387.779 249.937,388.000 249.800 C 388.411 249.546,389.843 246.631,390.073 245.582 C 390.143 245.262,390.515 244.709,390.900 244.353 C 391.285 243.997,391.600 243.247,391.600 242.686 C 391.600 242.126,391.735 241.607,391.900 241.533 C 392.399 241.312,394.000 237.978,394.000 237.162 C 394.000 236.743,394.180 236.400,394.400 236.400 C 394.620 236.400,394.800 236.040,394.800 235.600 C 394.800 235.160,394.980 234.800,395.200 234.800 C 395.420 234.800,395.600 234.271,395.600 233.624 C 395.600 232.977,395.780 232.336,396.000 232.200 C 396.220 232.064,396.400 231.333,396.400 230.576 C 396.400 229.819,396.580 229.200,396.800 229.200 C 397.020 229.200,397.200 228.480,397.200 227.600 C 397.200 226.720,397.380 226.000,397.600 226.000 C 397.820 226.000,398.000 225.280,398.000 224.400 C 398.000 223.520,398.180 222.800,398.400 222.800 C 398.624 222.800,398.800 221.693,398.800 220.280 C 398.800 218.885,399.010 217.550,399.270 217.290 C 399.918 216.642,399.892 186.697,399.243 186.481 C 398.969 186.390,398.800 185.128,398.800 183.167 C 398.800 181.322,398.633 180.000,398.400 180.000 C 398.174 180.000,398.000 178.867,398.000 177.400 C 398.000 175.933,397.826 174.800,397.600 174.800 C 397.380 174.800,397.200 173.900,397.200 172.800 C 397.200 171.700,397.020 170.800,396.800 170.800 C 396.580 170.800,396.400 170.080,396.400 169.200 C 396.400 168.320,396.220 167.600,396.000 167.600 C 395.780 167.600,395.600 166.981,395.600 166.224 C 395.600 165.467,395.420 164.736,395.200 164.600 C 394.980 164.464,394.800 163.913,394.800 163.376 C 394.800 162.839,394.620 162.400,394.400 162.400 C 394.180 162.400,394.000 161.680,394.000 160.800 C 394.000 159.920,393.820 159.200,393.600 159.200 C 393.380 159.200,393.200 158.840,393.200 158.400 C 393.200 157.960,393.020 157.600,392.800 157.600 C 392.580 157.600,392.400 157.060,392.400 156.400 C 392.400 155.740,392.220 155.200,392.000 155.200 C 391.780 155.200,391.600 154.772,391.600 154.248 C 391.600 153.414,390.263 149.918,389.176 147.905 C 388.969 147.523,388.800 146.938,388.800 146.605 C 388.800 146.272,388.665 145.999,388.500 145.997 C 388.141 145.993,387.200 144.056,387.200 143.320 C 387.200 143.034,387.065 142.799,386.900 142.797 C 386.563 142.793,385.600 140.875,385.600 140.209 C 385.600 139.971,385.240 139.517,384.800 139.200 C 384.360 138.883,384.000 138.303,384.000 137.912 C 384.000 137.520,383.820 137.200,383.600 137.200 C 383.380 137.200,383.200 136.883,383.200 136.496 C 383.200 136.109,382.840 135.568,382.400 135.293 C 381.960 135.018,381.600 134.435,381.600 133.997 C 381.600 133.558,381.420 133.200,381.200 133.200 C 380.980 133.200,380.799 132.975,380.798 132.700 C 380.797 132.425,380.257 131.625,379.598 130.922 C 378.939 130.219,378.400 129.454,378.400 129.222 C 378.400 128.990,378.250 128.800,378.068 128.800 C 377.885 128.800,377.480 128.308,377.168 127.707 C 376.855 127.106,376.105 126.089,375.500 125.448 C 374.895 124.806,374.392 124.083,374.382 123.841 C 374.372 123.598,373.563 122.590,372.585 121.600 C 371.607 120.610,370.805 119.614,370.803 119.388 C 370.800 118.915,356.955 105.200,356.482 105.200 C 356.310 105.200,355.283 104.300,354.200 103.200 C 353.117 102.100,352.079 101.200,351.893 101.200 C 351.708 101.200,350.981 100.661,350.278 100.002 C 349.575 99.343,348.855 98.803,348.678 98.802 C 348.501 98.801,347.781 98.261,347.078 97.602 C 346.375 96.943,345.573 96.403,345.296 96.402 C 345.019 96.401,344.479 96.030,344.096 95.577 C 343.713 95.124,342.815 94.473,342.100 94.131 C 341.385 93.789,340.800 93.349,340.800 93.154 C 340.800 92.959,340.530 92.800,340.200 92.800 C 339.870 92.800,339.600 92.620,339.600 92.400 C 339.600 92.180,339.280 92.000,338.888 92.000 C 338.497 92.000,337.917 91.640,337.600 91.200 C 337.283 90.760,336.743 90.400,336.400 90.400 C 336.057 90.400,335.517 90.040,335.200 89.600 C 334.883 89.160,334.303 88.800,333.912 88.800 C 333.520 88.800,333.200 88.620,333.200 88.400 C 333.200 88.180,332.880 88.000,332.488 88.000 C 332.097 88.000,331.517 87.640,331.200 87.200 C 330.883 86.760,330.303 86.400,329.912 86.400 C 329.520 86.400,329.200 86.220,329.200 86.000 C 329.200 85.780,328.840 85.600,328.400 85.600 C 327.960 85.600,327.600 85.420,327.600 85.200 C 327.600 84.980,327.240 84.800,326.800 84.800 C 326.360 84.800,326.000 84.620,326.000 84.400 C 326.000 84.180,325.706 84.000,325.347 84.000 C 324.988 84.000,324.403 83.675,324.047 83.278 C 323.400 82.557,319.967 80.800,319.204 80.800 C 318.982 80.800,318.800 80.649,318.800 80.464 C 318.800 80.279,318.035 79.887,317.100 79.592 C 316.165 79.297,314.591 78.638,313.603 78.128 C 312.615 77.618,311.490 77.200,311.103 77.200 C 310.716 77.200,310.400 77.020,310.400 76.800 C 310.400 76.580,310.040 76.400,309.600 76.400 C 309.160 76.400,308.800 76.220,308.800 76.000 C 308.800 75.780,308.445 75.600,308.012 75.600 C 307.579 75.600,306.583 75.240,305.800 74.800 C 305.017 74.360,304.021 74.000,303.588 74.000 C 303.155 74.000,302.800 73.820,302.800 73.600 C 302.800 73.380,302.440 73.200,302.000 73.200 C 301.560 73.200,301.200 73.020,301.200 72.800 C 301.200 72.580,300.660 72.400,300.000 72.400 C 299.340 72.400,298.800 72.220,298.800 72.000 C 298.800 71.780,298.260 71.600,297.600 71.600 C 296.940 71.600,296.400 71.420,296.400 71.200 C 296.400 70.980,295.860 70.800,295.200 70.800 C 294.540 70.800,294.000 70.620,294.000 70.400 C 294.000 70.180,293.640 70.000,293.200 70.000 C 292.760 70.000,292.400 69.820,292.400 69.600 C 292.400 69.380,291.860 69.200,291.200 69.200 C 290.540 69.200,290.000 69.020,290.000 68.800 C 290.000 68.580,289.381 68.400,288.624 68.400 C 287.867 68.400,287.136 68.220,287.000 68.000 C 286.864 67.780,286.313 67.600,285.776 67.600 C 285.239 67.600,284.800 67.420,284.800 67.200 C 284.800 66.980,284.271 66.800,283.624 66.800 C 282.977 66.800,282.336 66.620,282.200 66.400 C 282.064 66.180,281.333 66.000,280.576 66.000 C 279.819 66.000,279.200 65.820,279.200 65.600 C 279.200 65.380,278.660 65.200,278.000 65.200 C 277.340 65.200,276.800 65.020,276.800 64.800 C 276.800 64.580,276.080 64.400,275.200 64.400 C 274.320 64.400,273.600 64.220,273.600 64.000 C 273.600 63.780,272.981 63.600,272.224 63.600 C 271.467 63.600,270.736 63.420,270.600 63.200 C 270.464 62.980,269.958 62.802,269.476 62.804 C 268.619 62.808,262.578 61.489,260.199 60.779 C 259.539 60.581,257.424 60.299,255.499 60.151 C 253.575 60.003,252.000 59.729,252.000 59.541 C 252.000 59.353,251.100 59.200,250.000 59.200 C 248.900 59.200,248.000 59.020,248.000 58.800 C 248.000 58.571,246.800 58.400,245.200 58.400 C 243.600 58.400,242.400 58.229,242.400 58.000 C 242.400 57.769,241.141 57.600,239.424 57.600 C 237.787 57.600,236.336 57.420,236.200 57.200 C 236.064 56.980,234.433 56.800,232.576 56.800 C 230.592 56.800,229.200 56.635,229.200 56.400 C 229.200 56.157,227.408 56.000,224.624 56.000 C 222.004 56.000,219.942 55.829,219.800 55.600 C 219.640 55.342,212.196 55.200,198.776 55.200 C 185.192 55.200,178.000 55.338,178.000 55.600 M98.674 121.670 C 99.674 122.609,100.108 129.639,99.200 130.200 C 98.968 130.343,98.800 132.530,98.800 135.400 C 98.800 138.270,98.632 140.457,98.400 140.600 C 98.157 140.750,98.000 143.663,98.000 148.000 C 98.000 152.337,97.843 155.250,97.600 155.400 C 97.345 155.557,97.200 160.863,97.200 170.000 C 97.200 179.137,97.345 184.443,97.600 184.600 C 97.824 184.738,98.000 186.622,98.000 188.877 C 98.000 192.777,98.035 192.937,99.100 193.853 C 100.271 194.860,104.475 195.250,105.000 194.400 C 105.136 194.180,106.047 194.000,107.024 194.000 C 108.001 194.000,108.800 193.820,108.800 193.600 C 108.800 193.380,109.700 193.200,110.800 193.200 C 111.900 193.200,112.800 193.020,112.800 192.800 C 112.800 192.580,113.700 192.400,114.800 192.400 C 115.900 192.400,116.800 192.220,116.800 192.000 C 116.800 191.780,117.520 191.600,118.400 191.600 C 119.280 191.600,120.000 191.465,120.000 191.300 C 120.000 191.135,120.675 190.966,121.500 190.924 C 123.951 190.800,126.390 190.341,126.626 189.958 C 126.748 189.761,127.636 189.600,128.600 189.600 C 129.564 189.600,130.464 189.420,130.600 189.200 C 130.736 188.980,131.456 188.800,132.200 188.800 C 132.944 188.800,133.664 188.620,133.800 188.400 C 133.936 188.180,134.432 188.000,134.902 188.000 C 135.372 188.000,136.261 187.516,136.878 186.925 L 138.000 185.850 138.000 173.149 C 138.000 165.113,138.147 160.356,138.400 160.200 C 138.626 160.060,138.800 158.089,138.800 155.656 C 138.800 153.293,138.963 151.189,139.162 150.980 C 139.361 150.771,139.627 149.160,139.752 147.400 C 139.878 145.640,140.160 143.030,140.380 141.600 C 140.600 140.170,140.992 137.200,141.249 135.000 C 141.820 130.136,145.086 126.351,146.600 128.800 C 146.736 129.020,147.276 129.200,147.800 129.200 C 148.324 129.200,148.864 129.380,149.000 129.600 C 149.136 129.820,149.867 130.000,150.624 130.000 C 151.381 130.000,152.000 130.180,152.000 130.400 C 152.000 130.620,152.540 130.800,153.200 130.800 C 153.860 130.800,154.400 130.980,154.400 131.200 C 154.400 131.420,155.120 131.600,156.000 131.600 C 156.880 131.600,157.600 131.780,157.600 132.000 C 157.600 132.220,158.063 132.400,158.629 132.400 C 161.418 132.400,161.850 134.868,160.447 142.800 C 160.233 144.010,160.045 146.035,160.029 147.300 C 160.013 148.565,159.820 149.600,159.600 149.600 C 159.371 149.600,159.200 150.800,159.200 152.400 C 159.200 154.000,159.029 155.200,158.800 155.200 C 158.563 155.200,158.400 156.667,158.400 158.800 C 158.400 160.933,158.237 162.400,158.000 162.400 C 157.754 162.400,157.600 164.392,157.600 167.576 C 157.600 170.596,157.433 172.856,157.200 173.000 C 156.945 173.158,156.800 178.737,156.800 188.424 C 156.800 198.275,156.940 203.600,157.200 203.600 C 157.447 203.600,157.600 205.667,157.600 209.000 C 157.600 212.333,157.753 214.400,158.000 214.400 C 158.238 214.400,158.400 215.925,158.400 218.176 C 158.400 220.263,158.579 222.063,158.800 222.200 C 159.020 222.336,159.200 223.967,159.200 225.824 C 159.200 227.681,159.354 229.200,159.541 229.200 C 159.729 229.200,160.008 231.299,160.161 233.864 C 160.315 236.429,160.611 238.847,160.820 239.238 C 161.029 239.628,161.200 240.760,161.200 241.754 C 161.200 242.939,161.405 243.675,161.797 243.894 C 163.153 244.653,158.639 251.200,156.759 251.200 C 156.527 251.200,155.646 251.920,154.800 252.800 C 153.954 253.680,153.022 254.400,152.728 254.400 C 152.433 254.400,151.968 254.760,151.693 255.200 C 150.679 256.824,146.400 256.038,146.400 254.229 C 146.400 253.883,146.220 253.600,146.000 253.600 C 145.780 253.600,145.600 252.621,145.600 251.424 C 145.600 250.227,145.420 249.136,145.200 249.000 C 144.980 248.864,144.800 247.773,144.800 246.576 C 144.800 245.379,144.620 244.400,144.400 244.400 C 144.178 244.400,144.000 243.333,144.000 242.000 C 144.000 240.667,143.822 239.600,143.600 239.600 C 143.371 239.600,143.200 238.400,143.200 236.800 C 143.200 235.200,143.029 234.000,142.800 234.000 C 142.579 234.000,142.400 232.956,142.400 231.667 C 142.400 230.383,142.265 229.199,142.100 229.036 C 141.935 228.872,141.572 226.277,141.293 223.269 C 141.015 220.261,140.694 216.810,140.580 215.600 C 140.113 210.627,139.563 209.991,135.753 210.024 C 134.239 210.037,132.100 210.225,131.000 210.442 C 129.900 210.658,128.460 210.930,127.800 211.045 C 127.140 211.160,126.240 211.411,125.800 211.602 C 125.001 211.950,123.397 212.242,120.000 212.657 C 119.010 212.778,118.029 213.040,117.820 213.239 C 117.611 213.437,116.767 213.600,115.944 213.600 C 115.121 213.600,114.336 213.780,114.200 214.000 C 114.064 214.220,113.063 214.400,111.976 214.400 C 110.889 214.400,110.000 214.580,110.000 214.800 C 110.000 215.020,109.021 215.200,107.824 215.200 C 106.627 215.200,105.536 215.380,105.400 215.600 C 105.264 215.820,104.578 216.006,103.876 216.013 C 102.397 216.027,101.200 216.802,101.200 217.744 C 101.200 218.105,101.020 218.400,100.800 218.400 C 100.580 218.400,100.400 218.850,100.400 219.400 C 100.400 219.950,100.566 220.400,100.768 220.400 C 100.971 220.400,101.237 221.705,101.361 223.300 C 101.874 229.950,102.087 231.600,102.434 231.600 C 102.635 231.600,102.800 232.579,102.800 233.776 C 102.800 234.973,102.980 236.064,103.200 236.200 C 103.420 236.336,103.600 237.247,103.600 238.224 C 103.600 239.201,103.780 240.000,104.000 240.000 C 104.220 240.000,104.400 240.900,104.400 242.000 C 104.400 243.100,104.580 244.000,104.800 244.000 C 105.020 244.000,105.200 244.799,105.200 245.776 C 105.200 246.753,105.380 247.664,105.600 247.800 C 105.820 247.936,106.000 248.836,106.000 249.800 C 106.000 250.764,106.180 251.664,106.400 251.800 C 106.620 251.936,106.800 252.656,106.800 253.400 C 106.800 254.144,106.980 254.864,107.200 255.000 C 107.420 255.136,107.600 255.867,107.600 256.624 C 107.600 257.381,107.780 258.000,108.000 258.000 C 108.220 258.000,108.400 258.720,108.400 259.600 C 108.400 260.480,108.580 261.200,108.800 261.200 C 109.020 261.200,109.200 262.028,109.200 263.040 C 109.200 265.868,107.316 267.600,104.240 267.600 C 103.008 267.600,102.000 267.780,102.000 268.000 C 102.000 268.220,101.201 268.400,100.224 268.400 C 99.247 268.400,98.336 268.580,98.200 268.800 C 98.064 269.020,97.145 269.200,96.158 269.200 C 93.588 269.200,91.973 267.428,91.404 263.985 C 91.242 263.003,90.980 262.020,90.822 261.800 C 90.664 261.580,90.295 260.320,90.003 259.000 C 89.710 257.680,89.320 256.429,89.136 256.220 C 88.951 256.011,88.800 255.437,88.800 254.944 C 88.800 254.451,88.620 253.936,88.400 253.800 C 88.180 253.664,88.000 252.944,88.000 252.200 C 88.000 251.456,87.820 250.736,87.600 250.600 C 87.380 250.464,87.200 249.733,87.200 248.976 C 87.200 248.219,87.020 247.600,86.800 247.600 C 86.580 247.600,86.400 247.060,86.400 246.400 C 86.400 245.740,86.220 245.200,86.000 245.200 C 85.780 245.200,85.600 244.480,85.600 243.600 C 85.600 242.720,85.420 242.000,85.200 242.000 C 84.980 242.000,84.800 241.280,84.800 240.400 C 84.800 239.520,84.620 238.800,84.400 238.800 C 84.180 238.800,84.000 238.181,84.000 237.424 C 84.000 236.667,83.820 235.936,83.600 235.800 C 83.380 235.664,83.200 234.944,83.200 234.200 C 83.200 233.456,83.020 232.736,82.800 232.600 C 82.580 232.464,82.400 231.553,82.400 230.576 C 82.400 229.599,82.220 228.800,82.000 228.800 C 81.780 228.800,81.600 228.080,81.600 227.200 C 81.600 226.320,81.420 225.600,81.200 225.600 C 80.980 225.600,80.800 224.880,80.800 224.000 C 80.800 223.120,80.620 222.400,80.400 222.400 C 80.180 222.400,80.000 222.117,80.000 221.771 C 80.000 220.197,72.682 218.973,71.800 220.400 C 71.663 220.621,69.863 220.800,67.776 220.800 C 65.525 220.800,64.000 220.962,64.000 221.200 C 64.000 221.442,62.267 221.600,59.600 221.600 C 56.933 221.600,55.200 221.758,55.200 222.000 C 55.200 222.220,54.480 222.400,53.600 222.400 C 52.720 222.400,52.000 222.220,52.000 222.000 C 52.000 221.780,51.717 221.600,51.371 221.600 C 50.427 221.600,49.600 220.586,49.600 219.429 C 49.600 218.863,49.420 218.400,49.200 218.400 C 48.980 218.400,48.800 217.961,48.800 217.424 C 48.800 216.887,48.620 216.336,48.400 216.200 C 48.180 216.064,48.000 215.524,48.000 215.000 C 48.000 214.476,47.820 213.936,47.600 213.800 C 47.380 213.664,47.200 213.113,47.200 212.576 C 47.200 212.039,47.020 211.600,46.800 211.600 C 46.580 211.600,46.400 210.880,46.400 210.000 C 46.400 209.120,46.220 208.400,46.000 208.400 C 45.780 208.400,45.600 207.950,45.600 207.400 C 45.600 206.850,45.780 206.400,46.000 206.400 C 46.220 206.400,46.400 206.114,46.400 205.764 C 46.400 204.569,48.073 203.627,50.220 203.613 C 51.331 203.606,52.411 203.436,52.620 203.235 C 52.980 202.890,54.506 202.675,60.300 202.156 C 61.675 202.033,62.800 201.767,62.800 201.566 C 62.800 201.365,63.779 201.200,64.976 201.200 C 66.173 201.200,67.264 201.020,67.400 200.800 C 67.536 200.580,68.807 200.400,70.224 200.400 C 71.675 200.400,72.800 200.225,72.800 200.000 C 72.800 199.780,73.078 199.600,73.418 199.600 C 74.794 199.600,76.000 197.741,76.000 195.618 C 76.000 194.508,75.849 193.600,75.665 193.600 C 74.717 193.600,73.606 161.258,74.063 147.000 C 74.650 128.692,75.174 123.480,76.575 122.022 L 77.750 120.800 87.749 120.800 C 97.465 120.800,97.775 120.825,98.674 121.670 M276.251 124.839 C 278.386 125.423,281.600 128.164,281.600 129.400 C 281.600 129.730,281.780 130.000,282.000 130.000 C 282.242 130.000,282.400 131.725,282.400 134.376 C 282.400 136.863,282.227 138.860,282.000 139.000 C 281.780 139.136,281.600 140.767,281.600 142.624 C 281.600 144.608,281.435 146.000,281.200 146.000 C 280.965 146.000,280.800 147.373,280.800 149.320 C 280.800 151.146,280.634 152.811,280.430 153.020 C 280.227 153.229,279.963 154.750,279.844 156.400 C 279.602 159.751,279.094 164.408,278.382 169.800 C 278.120 171.780,277.855 174.627,277.792 176.128 C 277.730 177.628,277.571 178.963,277.439 179.094 C 277.308 179.226,277.200 180.743,277.200 182.467 C 277.200 184.289,277.033 185.600,276.800 185.600 C 276.571 185.600,276.400 186.800,276.400 188.400 C 276.400 190.000,276.229 191.200,276.000 191.200 C 275.769 191.200,275.600 192.459,275.600 194.176 C 275.600 195.813,275.420 197.264,275.200 197.400 C 274.980 197.536,274.800 198.987,274.800 200.624 C 274.800 202.341,274.631 203.600,274.400 203.600 C 274.171 203.600,274.000 204.800,274.000 206.400 C 274.000 208.000,273.829 209.200,273.600 209.200 C 273.369 209.200,273.200 210.459,273.200 212.176 C 273.200 213.813,273.020 215.264,272.800 215.400 C 272.580 215.536,272.400 216.796,272.400 218.200 C 272.400 219.604,272.220 220.864,272.000 221.000 C 271.780 221.136,271.600 222.407,271.600 223.824 C 271.600 225.275,271.425 226.400,271.200 226.400 C 270.975 226.400,270.800 227.525,270.800 228.976 C 270.800 230.393,270.620 231.664,270.400 231.800 C 270.180 231.936,270.000 233.207,270.000 234.624 C 270.000 236.075,269.825 237.200,269.600 237.200 C 269.378 237.200,269.200 238.267,269.200 239.600 C 269.200 240.933,269.022 242.000,268.800 242.000 C 268.580 242.000,268.400 242.823,268.400 243.829 C 268.400 245.719,268.155 246.127,266.314 247.305 C 264.720 248.325,263.198 248.156,261.700 246.794 L 260.400 245.611 260.400 241.006 C 260.400 238.202,260.244 236.400,260.000 236.400 C 259.745 236.400,259.600 233.133,259.600 227.400 C 259.600 221.667,259.455 218.400,259.200 218.400 C 258.941 218.400,258.800 213.600,258.800 204.800 C 258.800 197.320,258.665 191.200,258.500 191.200 C 258.335 191.200,258.251 183.841,258.313 174.846 C 258.381 165.005,258.263 157.558,258.018 156.146 C 257.349 152.288,257.505 130.673,258.213 129.316 C 258.533 128.702,258.796 127.962,258.798 127.671 C 258.800 127.051,259.769 126.000,260.338 126.000 C 260.555 126.000,260.793 125.848,260.867 125.662 C 261.466 124.145,271.706 123.597,276.251 124.839 M333.700 174.897 C 335.185 175.126,336.400 175.467,336.400 175.656 C 336.400 175.845,336.760 176.000,337.200 176.000 C 337.640 176.000,338.000 176.180,338.000 176.400 C 338.000 176.620,338.273 176.800,338.606 176.800 C 339.352 176.800,344.933 182.322,345.988 184.104 C 346.411 184.817,347.255 186.390,347.863 187.600 C 348.472 188.810,349.112 189.860,349.285 189.933 C 349.458 190.007,349.600 190.592,349.600 191.233 C 349.600 191.875,349.780 192.400,350.000 192.400 C 350.220 192.400,350.400 192.940,350.400 193.600 C 350.400 194.260,350.580 194.800,350.800 194.800 C 351.020 194.800,351.200 195.340,351.200 196.000 C 351.200 196.660,351.380 197.200,351.600 197.200 C 351.820 197.200,352.000 197.999,352.000 198.976 C 352.000 199.953,352.180 200.864,352.400 201.000 C 352.633 201.144,352.800 203.377,352.800 206.344 C 352.800 209.774,352.957 211.597,353.280 211.920 C 353.653 212.293,353.653 212.507,353.280 212.880 C 352.963 213.197,352.800 214.898,352.800 217.880 C 352.800 220.627,352.643 222.400,352.400 222.400 C 352.171 222.400,352.000 223.600,352.000 225.200 C 352.000 226.800,351.829 228.000,351.600 228.000 C 351.380 228.000,351.200 228.799,351.200 229.776 C 351.200 230.753,351.020 231.664,350.800 231.800 C 350.580 231.936,350.400 232.656,350.400 233.400 C 350.400 234.144,350.220 234.864,350.000 235.000 C 349.780 235.136,349.600 235.856,349.600 236.600 C 349.600 237.344,349.420 238.064,349.200 238.200 C 348.980 238.336,348.800 239.056,348.800 239.800 C 348.800 240.544,348.620 241.264,348.400 241.400 C 348.180 241.536,348.000 242.267,348.000 243.024 C 348.000 243.781,347.820 244.400,347.600 244.400 C 347.380 244.400,347.200 245.019,347.200 245.776 C 347.200 246.533,347.020 247.264,346.800 247.400 C 346.580 247.536,346.400 248.037,346.400 248.512 C 346.400 248.988,346.054 250.553,345.631 251.989 C 345.208 253.425,344.561 255.635,344.194 256.900 L 343.526 259.200 338.534 259.200 C 333.376 259.200,332.400 258.918,332.400 257.429 C 332.400 257.083,332.220 256.800,332.000 256.800 C 331.780 256.800,331.600 256.080,331.600 255.200 C 331.600 254.320,331.420 253.600,331.200 253.600 C 330.980 253.600,330.800 253.195,330.800 252.700 C 330.799 251.068,329.119 249.600,327.253 249.600 C 326.344 249.600,325.600 249.780,325.600 250.000 C 325.600 250.220,325.317 250.400,324.971 250.400 C 324.249 250.400,323.200 251.335,323.200 251.980 C 323.200 252.598,318.926 256.800,318.297 256.800 C 318.011 256.800,317.517 257.160,317.200 257.600 C 316.883 258.040,316.427 258.400,316.187 258.400 C 315.947 258.400,315.402 258.716,314.975 259.102 C 314.077 259.916,311.173 260.785,307.940 261.208 C 306.697 261.370,305.475 261.630,305.225 261.785 C 304.554 262.200,295.600 260.079,295.600 259.505 C 295.600 259.337,295.311 259.200,294.957 259.200 C 294.302 259.200,290.000 254.896,290.000 254.240 C 290.000 254.042,289.565 252.962,289.034 251.840 C 287.555 248.717,286.622 241.618,287.567 240.673 C 287.805 240.435,288.000 239.387,288.000 238.344 C 288.000 237.301,288.180 236.336,288.400 236.200 C 288.620 236.064,288.800 235.524,288.800 235.000 C 288.800 234.476,288.980 233.936,289.200 233.800 C 289.420 233.664,289.600 233.203,289.600 232.774 C 289.600 232.346,290.050 231.063,290.600 229.923 C 291.150 228.783,291.600 227.614,291.600 227.325 C 291.600 227.036,291.780 226.800,292.000 226.800 C 292.220 226.800,292.400 226.535,292.400 226.212 C 292.400 225.412,299.632 218.415,300.467 218.407 C 300.833 218.403,301.193 218.265,301.267 218.100 C 301.488 217.601,304.822 216.000,305.638 216.000 C 306.057 216.000,306.400 215.820,306.400 215.600 C 306.400 215.380,307.109 215.200,307.976 215.200 C 308.843 215.200,309.664 215.020,309.800 214.800 C 309.936 214.580,311.016 214.400,312.200 214.400 C 313.384 214.400,314.464 214.580,314.600 214.800 C 314.736 215.020,315.647 215.200,316.624 215.200 C 317.601 215.200,318.400 215.380,318.400 215.600 C 318.400 215.820,318.749 216.000,319.176 216.000 C 319.603 216.000,320.064 216.180,320.200 216.400 C 320.336 216.620,320.887 216.800,321.424 216.800 C 321.961 216.800,322.400 216.950,322.400 217.132 C 322.400 217.315,322.895 217.720,323.500 218.032 C 324.105 218.345,325.077 219.095,325.660 219.700 C 327.374 221.478,330.800 221.030,330.800 219.029 C 330.800 218.683,330.980 218.400,331.200 218.400 C 331.420 218.400,331.600 218.040,331.600 217.600 C 331.600 217.160,331.780 216.800,332.000 216.800 C 332.220 216.800,332.400 216.260,332.400 215.600 C 332.400 214.940,332.580 214.400,332.800 214.400 C 333.020 214.400,333.200 213.691,333.200 212.824 C 333.200 211.957,333.380 211.136,333.600 211.000 C 333.832 210.857,334.000 208.670,334.000 205.800 C 334.000 202.930,333.832 200.743,333.600 200.600 C 333.380 200.464,333.200 199.924,333.200 199.400 C 333.200 198.876,333.020 198.336,332.800 198.200 C 332.580 198.064,332.400 197.513,332.400 196.976 C 332.400 196.439,332.250 196.000,332.068 196.000 C 331.885 196.000,331.480 195.506,331.168 194.903 C 330.389 193.399,328.160 191.200,327.413 191.200 C 327.076 191.200,326.800 191.020,326.800 190.800 C 326.800 190.580,326.440 190.400,326.000 190.400 C 325.560 190.400,325.200 190.220,325.200 190.000 C 325.200 189.780,324.658 189.600,323.995 189.600 C 323.332 189.600,322.408 189.375,321.942 189.100 C 321.265 188.700,321.059 188.700,320.914 189.100 C 320.803 189.408,319.977 189.600,318.767 189.600 C 317.685 189.600,316.800 189.780,316.800 190.000 C 316.800 190.220,316.300 190.400,315.688 190.400 C 315.035 190.400,314.339 190.730,314.000 191.200 C 313.683 191.640,313.221 192.000,312.974 192.000 C 312.726 192.000,312.198 192.360,311.800 192.800 C 311.402 193.240,310.878 193.600,310.635 193.600 C 310.393 193.600,309.641 194.185,308.966 194.900 C 306.654 197.345,303.979 199.600,303.389 199.600 C 302.719 199.600,302.600 198.971,303.200 198.600 C 303.420 198.464,303.600 198.020,303.600 197.614 C 303.600 196.816,305.209 193.485,305.700 193.267 C 305.865 193.193,306.000 192.810,306.000 192.416 C 306.000 192.021,306.270 191.474,306.600 191.200 C 306.930 190.926,307.200 190.454,307.200 190.151 C 307.200 189.848,307.368 189.600,307.573 189.600 C 307.778 189.600,308.062 189.234,308.204 188.787 C 308.346 188.340,308.898 187.538,309.431 187.005 C 309.964 186.472,310.400 185.846,310.400 185.612 C 310.400 185.003,317.088 178.400,317.706 178.400 C 317.991 178.400,318.483 178.040,318.800 177.600 C 319.117 177.160,319.697 176.800,320.088 176.800 C 320.480 176.800,320.800 176.620,320.800 176.400 C 320.800 176.180,321.145 176.000,321.567 176.000 C 321.988 176.000,322.393 175.841,322.467 175.646 C 322.641 175.182,329.164 174.037,330.200 174.288 C 330.640 174.395,332.215 174.669,333.700 174.897 M217.400 182.800 C 217.536 183.020,218.177 183.200,218.824 183.200 C 219.471 183.200,220.000 183.380,220.000 183.600 C 220.000 183.820,220.540 184.000,221.200 184.000 C 221.860 184.000,222.400 184.180,222.400 184.400 C 222.400 184.620,222.760 184.800,223.200 184.800 C 223.640 184.800,224.000 184.980,224.000 185.200 C 224.000 185.420,224.272 185.600,224.604 185.600 C 224.936 185.600,225.772 186.140,226.463 186.800 C 227.154 187.460,227.858 188.000,228.029 188.000 C 228.432 188.000,230.800 190.368,230.800 190.771 C 230.800 190.942,231.340 191.646,232.000 192.337 C 232.660 193.028,233.200 193.864,233.200 194.196 C 233.200 194.528,233.335 194.801,233.500 194.803 C 233.859 194.807,234.800 196.744,234.800 197.480 C 234.800 197.766,234.980 198.000,235.200 198.000 C 235.420 198.000,235.600 198.360,235.600 198.800 C 235.600 199.240,235.780 199.600,236.000 199.600 C 236.220 199.600,236.400 200.039,236.400 200.576 C 236.400 201.113,236.580 201.664,236.800 201.800 C 237.020 201.936,237.200 202.836,237.200 203.800 C 237.200 204.764,237.380 205.664,237.600 205.800 C 237.839 205.948,238.000 208.537,238.000 212.224 C 238.000 216.075,237.849 218.400,237.600 218.400 C 237.380 218.400,237.200 219.300,237.200 220.400 C 237.200 221.500,237.020 222.400,236.800 222.400 C 236.580 222.400,236.400 222.940,236.400 223.600 C 236.400 224.260,236.220 224.800,236.000 224.800 C 235.780 224.800,235.600 225.160,235.600 225.600 C 235.600 226.040,235.420 226.400,235.200 226.400 C 234.980 226.400,234.800 226.760,234.800 227.200 C 234.800 227.640,234.664 228.000,234.498 228.000 C 234.331 228.000,233.942 228.585,233.633 229.300 C 233.323 230.015,232.604 231.176,232.035 231.879 C 231.466 232.582,230.460 233.879,229.800 234.760 C 229.140 235.642,228.325 236.371,227.988 236.381 C 227.652 236.392,227.117 236.760,226.800 237.200 C 226.483 237.640,225.943 238.000,225.600 238.000 C 225.257 238.000,224.717 238.360,224.400 238.800 C 224.083 239.240,223.503 239.600,223.112 239.600 C 222.720 239.600,222.400 239.780,222.400 240.000 C 222.400 240.220,221.860 240.400,221.200 240.400 C 220.540 240.400,220.000 240.580,220.000 240.800 C 220.000 241.020,219.280 241.200,218.400 241.200 C 217.520 241.200,216.800 241.380,216.800 241.600 C 216.800 241.848,214.608 242.000,211.024 242.000 C 207.604 242.000,205.146 241.837,205.000 241.600 C 204.864 241.380,204.133 241.200,203.376 241.200 C 202.619 241.200,202.000 241.020,202.000 240.800 C 202.000 240.580,201.460 240.400,200.800 240.400 C 200.140 240.400,199.600 240.220,199.600 240.000 C 199.600 239.780,199.240 239.600,198.800 239.600 C 198.360 239.600,198.000 239.420,198.000 239.200 C 198.000 238.980,197.680 238.800,197.288 238.800 C 196.897 238.800,196.317 238.440,196.000 238.000 C 195.683 237.560,195.181 237.200,194.886 237.200 C 194.234 237.200,190.480 233.413,189.968 232.240 C 189.599 231.393,189.182 230.688,187.900 228.740 C 187.515 228.155,187.200 227.389,187.200 227.038 C 187.200 226.687,187.040 226.400,186.844 226.400 C 186.460 226.400,186.078 224.640,185.739 221.300 C 185.622 220.145,185.351 219.200,185.137 219.200 C 184.898 219.200,184.827 217.628,184.954 215.100 C 185.239 209.385,185.611 206.400,186.037 206.400 C 186.237 206.400,186.400 205.941,186.400 205.381 C 186.400 204.820,186.760 203.616,187.200 202.706 C 187.640 201.795,188.000 200.849,188.000 200.603 C 188.000 200.130,189.989 195.939,190.374 195.600 C 190.499 195.490,190.856 194.905,191.168 194.300 C 191.480 193.695,191.885 193.200,192.068 193.200 C 192.250 193.200,192.400 192.932,192.400 192.603 C 192.400 192.029,193.301 191.070,196.090 188.675 C 198.649 186.477,199.924 185.600,200.558 185.600 C 200.911 185.600,201.201 185.465,201.203 185.300 C 201.207 184.899,203.181 184.000,204.056 184.000 C 204.439 184.000,204.864 183.820,205.000 183.600 C 205.136 183.380,205.687 183.200,206.224 183.200 C 206.761 183.200,207.200 183.020,207.200 182.800 C 207.200 182.555,209.125 182.400,212.176 182.400 C 215.063 182.400,217.257 182.568,217.400 182.800 M208.600 196.000 C 208.464 196.220,208.096 196.400,207.782 196.400 C 207.065 196.400,203.600 199.928,203.600 200.658 C 203.600 200.956,203.420 201.200,203.200 201.200 C 202.980 201.200,202.800 201.560,202.800 202.000 C 202.800 202.440,202.620 202.800,202.400 202.800 C 202.180 202.800,202.000 203.160,202.000 203.600 C 202.000 204.040,201.820 204.400,201.600 204.400 C 201.380 204.400,201.200 205.120,201.200 206.000 C 201.200 206.880,201.020 207.600,200.800 207.600 C 200.554 207.600,200.400 209.592,200.400 212.776 C 200.400 215.796,200.567 218.056,200.800 218.200 C 201.020 218.336,201.200 218.769,201.200 219.162 C 201.200 220.171,202.380 222.418,203.044 222.672 C 203.350 222.790,203.600 223.226,203.600 223.643 C 203.600 224.133,203.882 224.400,204.400 224.400 C 204.840 224.400,205.200 224.580,205.200 224.800 C 205.200 225.020,205.560 225.200,206.000 225.200 C 206.440 225.200,206.800 225.380,206.800 225.600 C 206.800 225.831,208.067 226.000,209.800 226.000 C 211.450 226.000,212.800 225.843,212.800 225.650 C 212.800 225.457,213.335 225.193,213.989 225.062 C 216.052 224.650,220.000 219.739,220.000 217.586 C 220.000 217.180,220.180 216.736,220.400 216.600 C 220.620 216.464,220.800 215.384,220.800 214.200 C 220.800 213.016,220.980 211.936,221.200 211.800 C 221.420 211.664,221.600 210.764,221.600 209.800 C 221.600 208.836,221.420 207.936,221.200 207.800 C 220.980 207.664,220.800 206.764,220.800 205.800 C 220.800 204.836,220.620 203.936,220.400 203.800 C 220.180 203.664,220.000 203.201,220.000 202.771 C 220.000 198.825,210.384 193.114,208.600 196.000 M309.200 226.000 C 309.200 226.220,308.918 226.400,308.574 226.400 C 307.704 226.400,303.848 230.322,303.166 231.900 C 302.857 232.615,302.469 233.200,302.302 233.200 C 302.136 233.200,302.000 233.909,302.000 234.776 C 302.000 235.643,301.820 236.464,301.600 236.600 C 301.379 236.736,301.200 238.530,301.200 240.600 C 301.200 242.670,301.379 244.464,301.600 244.600 C 301.820 244.736,302.000 245.197,302.000 245.624 C 302.000 246.051,302.180 246.400,302.400 246.400 C 302.620 246.400,302.800 246.678,302.800 247.018 C 302.800 247.990,304.659 249.600,305.782 249.600 C 306.342 249.600,306.800 249.780,306.800 250.000 C 306.800 250.220,307.790 250.400,309.000 250.400 C 310.210 250.400,311.200 250.220,311.200 250.000 C 311.200 249.780,311.740 249.600,312.400 249.600 C 313.060 249.600,313.600 249.420,313.600 249.200 C 313.600 248.980,313.960 248.800,314.400 248.800 C 314.840 248.800,315.200 248.620,315.200 248.400 C 315.200 248.180,315.491 248.000,315.846 248.000 C 316.593 248.000,319.200 245.297,319.200 244.522 C 319.200 244.235,319.380 244.000,319.600 244.000 C 319.820 244.000,320.000 243.640,320.000 243.200 C 320.000 242.760,320.180 242.400,320.400 242.400 C 320.620 242.400,320.800 241.500,320.800 240.400 C 320.800 239.300,320.980 238.400,321.200 238.400 C 321.420 238.400,321.600 238.051,321.600 237.624 C 321.600 237.197,321.420 236.736,321.200 236.600 C 320.980 236.464,320.800 235.671,320.800 234.838 C 320.800 233.234,319.977 231.211,318.992 230.393 C 318.666 230.123,318.400 229.731,318.400 229.522 C 318.400 229.011,317.631 228.319,316.300 227.632 C 315.695 227.320,315.200 226.915,315.200 226.732 C 315.200 226.550,314.660 226.400,314.000 226.400 C 313.340 226.400,312.800 226.220,312.800 226.000 C 312.800 225.780,311.990 225.600,311.000 225.600 C 310.010 225.600,309.200 225.780,309.200 226.000 " stroke="none" fill="#434a54" fill-rule="evenodd"></path></g></svg>