<?xml version="1.0" encoding="utf-8"?>
<!-- Generated by IcoMoon.io -->
<!DOCTYPE svg PUBLIC "-//W3C//DTD SVG 1.1//EN" "http://www.w3.org/Graphics/SVG/1.1/DTD/svg11.dtd">
<svg version="1.1" xmlns="http://www.w3.org/2000/svg" xmlns:xlink="http://www.w3.org/1999/xlink" width="85" height="64" viewBox="0 0 85 64">
<path fill="#444444" d="M55.215 54.692h-24.337c-0.641 0-1.188-0.366-1.557-0.916l-12.168-20.128c-0.366-0.55-0.366-1.282 0-1.922l12.168-20.128c0.366-0.55 0.916-0.916 1.557-0.916h24.337c0.641 0 1.188 0.366 1.557 0.916l12.168 20.128c0.366 0.55 0.366 1.282 0 1.922l-12.168 20.128c-0.366 0.641-0.916 0.916-1.557 0.916zM31.792 51.031h22.324l11.071-18.299-11.071-18.299h-22.324l-11.071 18.299 11.071 18.299z"></path>
<path fill="#444444" d="M27.399 30.078c0-1.372 0-2.47-0.091-3.567h2.104l0.091 2.195h0.091c0.732-1.282 2.013-2.47 4.208-2.47 1.829 0 3.202 1.098 3.752 2.654h0.091c0.457-0.732 0.916-1.282 1.463-1.738 0.822-0.641 1.648-0.916 2.929-0.916 1.738 0 4.392 1.188 4.392 5.765v7.869h-2.379v-7.594c0-2.561-0.916-4.117-2.929-4.117-1.373 0-2.47 1.007-2.836 2.195-0.091 0.366-0.184 0.732-0.184 1.188v8.235h-2.379v-7.96c0-2.104-0.916-3.661-2.745-3.661-1.557 0-2.654 1.188-3.020 2.47-0.184 0.366-0.184 0.732-0.184 1.188v8.051h-2.379v-9.789z"></path>
<path fill="#444444" d="M57.776 39.869l-0.184-1.648h-0.091c-0.732 1.007-2.195 2.013-4.117 2.013-2.745 0-4.117-1.922-4.117-3.843 0-3.202 2.836-5.031 8.051-4.94v-0.366c0-1.098-0.275-3.111-3.020-3.111-1.282 0-2.561 0.366-3.477 1.007l-0.55-1.557c1.097-0.732 2.745-1.188 4.392-1.188 4.117 0 5.031 2.745 5.031 5.49v5.031c0 1.188 0.091 2.288 0.184 3.202h-2.104zM57.41 33.007c-2.654-0.091-5.672 0.457-5.672 3.020 0 1.557 1.007 2.288 2.288 2.288 1.738 0 2.836-1.097 3.202-2.195 0.091-0.275 0.184-0.55 0.184-0.732v-2.379z"></path>
</svg>
