<?xml version="1.0" encoding="utf-8"?>
<!-- Generated by IcoMoon.io -->
<!DOCTYPE svg PUBLIC "-//W3C//DTD SVG 1.1//EN" "http://www.w3.org/Graphics/SVG/1.1/DTD/svg11.dtd">
<svg version="1.1" xmlns="http://www.w3.org/2000/svg" xmlns:xlink="http://www.w3.org/1999/xlink" width="32" height="32" viewBox="0 0 32 32">
<path d="M31.217 27.205v-12.686c0-2.141 0-8.634-7.849-8.634-1.698 0-4.823 1.127-6.835 2.24-1.299-1.484-3.325-2.226-6.036-2.226-1.327 0-3.311 0.628-5.023 1.356v-2.369l-5.58 2.283v20.050h5.58v-14.698c1.841-0.999 3.539-1.57 4.723-1.57 1.912 0 2.554 0.999 2.554 3.953v12.33h5.594v-12.686c0-0.656 0.043-1.313 0.014-2.041 1.484-0.842 3.282-1.555 4.709-1.555 1.912 0 2.554 0.999 2.554 3.953v12.33h5.594z" fill="#000000"></path>
</svg>
