<?xml version="1.0" encoding="utf-8"?>
<!-- Generated by IcoMoon.io -->
<!DOCTYPE svg PUBLIC "-//W3C//DTD SVG 1.1//EN" "http://www.w3.org/Graphics/SVG/1.1/DTD/svg11.dtd">
<svg version="1.1" xmlns="http://www.w3.org/2000/svg" xmlns:xlink="http://www.w3.org/1999/xlink" width="85" height="64" viewBox="0 0 85 64">
<path fill="#444444" d="M48.453 16.125c-2.576-2.471-5.52-3.733-9.042-3.679-3.522-0.052-6.517 1.209-9.042 3.679-2.471 2.576-3.733 5.52-3.733 9.094 0 3.522 1.262 6.466 3.733 8.99 2.471 2.471 5.52 3.785 9.042 3.785 0.368 0 0.789-0.052 1.103-0.105l-0.525-2.838h-0.578c-2.733 0-5.047-0.946-6.991-2.892-1.892-1.892-2.838-4.206-2.838-6.939 0-2.681 0.946-5.047 2.838-6.939 1.946-1.892 4.258-2.892 6.991-2.892 2.681 0 5.047 0.998 6.939 2.892s2.892 4.258 2.892 6.939c0 1.262-0.211 2.419-0.63 3.522l2.628 1.368c0.578-1.471 0.946-3.101 0.946-4.836 0-3.628-1.262-6.571-3.733-9.147z"></path>
<path fill="#444444" d="M45.771 25.166c0-1.787-0.63-3.26-1.841-4.522-1.262-1.262-2.787-1.892-4.574-1.892s-3.26 0.63-4.522 1.892c-1.262 1.262-1.841 2.733-1.841 4.522 0 1.735 0.578 3.26 1.841 4.522s2.733 1.841 4.522 1.892h0.052l-1.525-8.62 7.674 4.049c0.105-0.578 0.211-1.262 0.211-1.841z"></path>
<path fill="#444444" d="M55.916 51.346c1.787 0.262 2.787-0.525 3.154-2.26l-9.567-13.142 6.939-1.998-17.243-9.094 3.365 19.187 3.733-5.836 9.62 13.142z"></path>
</svg>
