<?xml version="1.0" encoding="utf-8"?>
<!-- Generated by IcoMoon.io -->
<!DOCTYPE svg PUBLIC "-//W3C//DTD SVG 1.1//EN" "http://www.w3.org/Graphics/SVG/1.1/DTD/svg11.dtd">
<svg version="1.1" xmlns="http://www.w3.org/2000/svg" xmlns:xlink="http://www.w3.org/1999/xlink" width="85" height="64" viewBox="0 0 85 64">
<path fill="#444444" d="M55.215 55.057h-24.337c-0.641 0-1.188-0.366-1.557-0.916l-12.168-20.128c-0.366-0.55-0.366-1.282 0-1.922l12.168-20.128c0.366-0.55 0.916-0.916 1.557-0.916h24.337c0.641 0 1.188 0.366 1.557 0.916l12.168 20.128c0.366 0.55 0.366 1.282 0 1.922l-12.168 20.128c-0.366 0.55-0.916 0.916-1.557 0.916zM31.792 51.397h22.323l11.071-18.299-11.071-18.299h-22.323l-11.071 18.299 11.071 18.299z"></path>
<path fill="#444444" d="M31.060 31.084c0-1.738-0.091-3.111-0.091-4.392h2.195l0.091 2.288h0.091c1.007-1.648 2.561-2.561 4.758-2.561 3.202 0 5.672 2.745 5.672 6.772 0 4.758-2.929 7.138-6.038 7.138-1.738 0-3.295-0.732-4.117-2.104h-0.091v7.228h-2.379v-14.363zM33.439 34.654c0 0.366 0.091 0.732 0.091 1.007 0.457 1.648 1.922 2.836 3.661 2.836 2.561 0 4.027-2.104 4.027-5.124 0-2.654-1.373-4.94-3.933-4.94-1.648 0-3.202 1.188-3.661 3.020-0.091 0.275-0.184 0.641-0.184 1.007v2.195z"></path>
<path fill="#444444" d="M46.43 37.672c0.732 0.457 2.013 1.007 3.202 1.007 1.738 0 2.561-0.916 2.561-2.013 0-1.188-0.732-1.829-2.47-2.47-2.379-0.822-3.568-2.195-3.568-3.752 0-2.195 1.738-3.933 4.574-3.933 1.373 0 2.561 0.366 3.295 0.823l-0.641 1.738c-0.55-0.366-1.463-0.732-2.745-0.732-1.463 0-2.195 0.823-2.195 1.829 0 1.098 0.822 1.557 2.561 2.288 2.288 0.916 3.477 2.013 3.477 4.027 0 2.379-1.829 4.027-5.031 4.027-1.463 0-2.836-0.366-3.752-0.916l0.732-1.922z"></path>
</svg>
