<?xml version="1.0" encoding="utf-8"?>
<!-- Generator: Adobe Illustrator 18.1.1, SVG Export Plug-In . SVG Version: 6.00 Build 0)  -->
<svg version="1.1" id="Layer_1" xmlns="http://www.w3.org/2000/svg" xmlns:xlink="http://www.w3.org/1999/xlink" x="0px" y="0px"
	 viewBox="0 0 36 36" enable-background="new 0 0 36 36" xml:space="preserve">
<g>
	<g>
		<path fill="#E0E1E2" d="M17.8,8.4c-5.7,0-10.3,4-10.3,8.8c0,2.5,1.2,4.8,3.2,6.4c-0.5,1.1-1.2,2.3-2.5,3.4
			c-0.3,0.2-0.1,0.7,0.2,0.7c1.3,0.2,3.9,0.2,7.1-1.9c0.7,0.1,1.5,0.2,2.2,0.2c5.7,0,10.3-4,10.3-8.8C28.1,12.4,23.5,8.4,17.8,8.4z
			 M16.8,18c-0.1,1.2-0.5,2.2-1.5,2.9c-0.9,0.6-1.8,0.8-2.9,0.8c0-0.5,0-0.9,0-1.4c0.5,0,1-0.2,1.4-0.6c0.4-0.5,0.5-1,0.5-1.6
			c-0.6,0-1.3,0-1.9,0c0-1.5,0-3,0-4.5c1.5,0,3,0,4.5,0c0,0,0,0.1,0,0.1C16.8,15.1,16.9,16.5,16.8,18z M23,17.2
			c0,0.5-0.1,1.1-0.2,1.6c-0.4,1.6-1.5,2.4-3.1,2.7c-0.4,0.1-0.8,0.1-1.2,0.2c0-0.5,0-1,0-1.4c1.3-0.3,1.8-0.9,1.9-2.3
			c-0.6,0-1.2,0-1.9,0c0-1.5,0-3,0-4.5c1.5,0,3,0,4.5,0c0,0.1,0,0.2,0,0.2C23.1,14.9,23.1,16.1,23,17.2z"/>
	</g>
</g>
</svg>
