<?xml version="1.0" encoding="utf-8"?>
<!-- Generated by IcoMoon.io -->
<!DOCTYPE svg PUBLIC "-//W3C//DTD SVG 1.1//EN" "http://www.w3.org/Graphics/SVG/1.1/DTD/svg11.dtd">
<svg version="1.1" xmlns="http://www.w3.org/2000/svg" xmlns:xlink="http://www.w3.org/1999/xlink" width="85" height="64" viewBox="0 0 85 64">
<path fill="#444444" d="M42.387 25.572c1.366-0.625 2.845-0.91 4.437-0.797 1.763 0.113 3.355 0.682 4.665 1.65h9.67v-2.958h-38.046v2.958h17.858c0.456-0.341 0.91-0.625 1.422-0.853z"></path>
<path fill="#444444" d="M42.5 29.44c1.081-0.91 2.276-1.479 3.64-1.65 0.397-0.056 0.853-0.056 1.366 0h0.341c1.707 0.228 3.127 0.966 4.321 2.332 1.251 1.422 1.82 3.071 1.65 4.949-0.113 1.876-0.91 3.47-2.332 4.721s-3.071 1.82-4.949 1.65c-1.876-0.113-3.47-0.91-4.721-2.332-0.397-0.456-0.738-0.91-0.966-1.479-0.341-0.682-0.569-1.366-0.625-2.104-0.056-0.228-0.056-0.397-0.056-0.569v-0.797c0.056-0.456 0.113-0.853 0.228-1.307 0.228-0.966 0.682-1.876 1.366-2.673 0.228-0.228 0.513-0.512 0.738-0.738zM42.102 27.791c-0.228 0.228-0.513 0.397-0.738 0.625-0.625 0.569-1.138 1.138-1.535 1.763-0.569 0.853-0.91 1.707-1.138 2.673 0 0.056 0 0.113-0.056 0.172-0.056 0.341-0.113 0.738-0.113 1.138-0.056 0.285-0.056 0.513-0.056 0.797 0 0.172 0 0.341 0.056 0.513 0 0.738 0.172 1.479 0.456 2.161 0.341 0.91 0.853 1.82 1.592 2.617 1.479 1.763 3.412 2.73 5.803 2.901 1.707 0.113 3.186-0.228 4.608-0.966 0.056-0.056 0.113-0.113 0.172-0.113l0.341 0.397c0.113 0.113 0.228 0.172 0.456 0.172 0.172 0 0.285-0.056 0.456-0.113 0 0 0.056 0.056 0.056 0.113l8.645 9.896c0.228 0.228 0.456 0.341 0.738 0.397 0.341 0 0.625-0.113 0.853-0.285 0.228-0.228 0.341-0.456 0.341-0.738 0-0.341-0.056-0.625-0.285-0.853l-8.645-9.84c0 0-0.056-0.056-0.113-0.113 0.056-0.056 0.056-0.172 0.056-0.285 0.056-0.172 0-0.341-0.113-0.513l-0.341-0.341c0.113-0.172 0.172-0.285 0.285-0.397 0.853-1.194 1.366-2.617 1.479-4.209 0.172-2.276-0.569-4.321-2.048-6.143-0.513-0.569-1.023-1.023-1.535-1.422-1.251-0.853-2.673-1.366-4.265-1.422-1.991-0.172-3.755 0.341-5.403 1.422z"></path>
<path fill="#444444" d="M55.069 19.033h-32.701v-5.29h32.701v5.29zM56.889 14.199v-0.056c0.113-0.113 0.172-0.228 0.285-0.341 0.456-0.456 1.023-0.738 1.707-0.738 0.625 0 1.194 0.228 1.65 0.682 0.513 0.397 0.738 0.966 0.738 1.65 0 0.456-0.113 0.853-0.285 1.194-0.056 0.056-0.056 0.056-0.056 0.113l0.056 0.113c0.056 0 0.056 0.056 0.056 0.113l0.056 0.113 2.673 2.56c0.056 0.056 0.056 0.113 0.056 0.228 0 0.056 0 0.113-0.056 0.172s-0.172 0.113-0.228 0.113c-0.113 0-0.172 0-0.228-0.056l-2.673-2.56h-0.285l-0.113-0.113c-0.397 0.285-0.797 0.397-1.251 0.397-0.682 0.056-1.251-0.172-1.707-0.625-0.397-0.397-0.625-0.797-0.682-1.307-0.056-0.113-0.056-0.228-0.056-0.341v-0.341c0.056-0.341 0.172-0.682 0.341-0.966zM64.566 20.738l0.056-8.817h-43.506v8.817h43.449z"></path>
<path fill="#444444" d="M57.059 15.052c-0.056 0.113-0.056 0.228-0.056 0.397 0 0.113 0.056 0.228 0.056 0.397 0.056 0.341 0.228 0.682 0.569 0.966 0.341 0.341 0.797 0.512 1.366 0.512 0.513-0.056 0.966-0.228 1.366-0.625 0.341-0.341 0.513-0.797 0.513-1.366-0.056-0.512-0.228-0.966-0.625-1.307-0.341-0.397-0.797-0.569-1.366-0.569-0.513 0.056-0.966 0.228-1.307 0.625-0.285 0.284-0.456 0.625-0.513 0.966z"></path>
<path fill="#444444" d="M38.461 29.042h-15.299v2.958h14.047c0.228-1.081 0.625-2.104 1.251-2.958z"></path>
<path fill="#444444" d="M36.982 34.786v-0.569h-13.82v2.958h14.332c-0.285-0.682-0.456-1.535-0.513-2.389z"></path>
</svg>
