<?xml version="1.0" encoding="iso-8859-1"?>
<!-- Generator: Adobe Illustrator 19.2.1, SVG Export Plug-In . SVG Version: 6.00 Build 0)  -->
<svg version="1.1" id="Layer_1" xmlns="http://www.w3.org/2000/svg" xmlns:xlink="http://www.w3.org/1999/xlink" x="0px" y="0px"
	 viewBox="0 0 186.5 147.027" style="enable-background:new 0 0 186.5 147.027;" xml:space="preserve">
<g>
	<path style="fill:none;stroke:#FFFFFF;stroke-width:8;stroke-miterlimit:10;" d="M180.75,141.84h-174c-1.1,0-2-0.9-2-2V7.174
		c0-1.1,0.9-2,2-2h174c1.1,0,2,0.9,2,2V139.84C182.75,140.94,181.85,141.84,180.75,141.84z"/>
	<path style="fill:#FFFFFF;" d="M180.75,7.174h-174c-1.1,0-2,0.9-2,2v28c0,1.1,0.9,2,2,2h174c1.1,0,2-0.9,2-2v-28
		C182.75,8.073,181.85,7.174,180.75,7.174z M46.056,11.174c2.669,0,4.833,2.164,4.833,4.833s-2.164,4.833-4.833,4.833
		s-4.833-2.164-4.833-4.833S43.386,11.174,46.056,11.174z M32.056,11.174c2.669,0,4.833,2.164,4.833,4.833s-2.164,4.833-4.833,4.833
		s-4.833-2.164-4.833-4.833S29.386,11.174,32.056,11.174z M17.583,11.174c2.669,0,4.833,2.164,4.833,4.833s-2.164,4.833-4.833,4.833
		s-4.833-2.164-4.833-4.833S14.914,11.174,17.583,11.174z M178.416,33.007H9.25v-5.5h169.167V33.007z"/>
	<g>
		<path style="fill:#FFFFFF;" d="M77.271,107.05c1.243,0,2.25,1.007,2.25,2.25c0,0.645-0.275,1.223-0.71,1.633l40.692-24.883
			c-0.281,0.127-0.591,0.201-0.92,0.201c-1.243,0-2.25-1.007-2.25-2.25c0-1.243,1.007-2.25,2.25-2.25
			c0.328,0,0.638,0.074,0.92,0.201L78.569,56.92c0.582,0.408,0.964,1.081,0.964,1.845c0,1.246-1.01,2.256-2.256,2.256
			s-2.256-1.01-2.256-2.256V109.3C75.021,108.058,76.028,107.05,77.271,107.05z"/>
		<path style="fill:#FFFFFF;" d="M78.442,56.843l0.126,0.077C78.528,56.892,78.485,56.869,78.442,56.843z"/>
		<path style="fill:#FFFFFF;" d="M77.277,61.022c1.246,0,2.256-1.01,2.256-2.256c0-0.764-0.382-1.437-0.964-1.845l-0.126-0.077
			c-0.341-0.207-0.737-0.333-1.166-0.333c-1.246,0-2.256,1.01-2.256,2.256S76.031,61.022,77.277,61.022z"/>
		<path style="fill:#FFFFFF;" d="M119.95,85.777l-0.447,0.273C119.664,85.978,119.811,85.883,119.95,85.777z"/>
		<path style="fill:#FFFFFF;" d="M119.503,81.952l0.447,0.273C119.811,82.118,119.664,82.024,119.503,81.952z"/>
		<path style="fill:#FFFFFF;" d="M116.333,84.001c0,1.243,1.007,2.25,2.25,2.25c0.328,0,0.638-0.074,0.92-0.201l0.447-0.273
			c0.534-0.411,0.883-1.05,0.883-1.776c0-0.726-0.35-1.364-0.883-1.776l-0.447-0.273c-0.281-0.127-0.591-0.201-0.92-0.201
			C117.34,81.751,116.333,82.758,116.333,84.001z"/>
		<path style="fill:#FFFFFF;" d="M78.81,110.933l-0.777,0.475C78.325,111.303,78.589,111.142,78.81,110.933z"/>
		<path style="fill:#FFFFFF;" d="M77.271,111.55c0.269,0,0.524-0.055,0.763-0.142l0.777-0.475c0.435-0.41,0.71-0.988,0.71-1.633
			c0-1.243-1.007-2.25-2.25-2.25s-2.25,1.007-2.25,2.25C75.021,110.543,76.028,111.55,77.271,111.55z"/>
	</g>
</g>
</svg>
