<?xml version="1.0" encoding="iso-8859-1"?>
<!-- Generator: Adobe Illustrator 19.2.1, SVG Export Plug-In . SVG Version: 6.00 Build 0)  -->
<svg version="1.1" id="Layer_1" xmlns="http://www.w3.org/2000/svg" xmlns:xlink="http://www.w3.org/1999/xlink" x="0px" y="0px"
	 viewBox="0 0 2038 2038" style="enable-background:new 0 0 2038 2038;" xml:space="preserve">
<g>
	<path style="fill:none;" d="M825.554,965.458l409.684,250.521c1.613,0.725,3.091,1.668,4.475,2.736
		c5.338,4.116,8.836,10.505,8.838,17.768V961.349H812.626c4.287,0.001,8.25,1.262,11.664,3.337L825.554,965.458z"/>
	<path style="fill:none;" d="M1239.713,1254.264c-1.384,1.068-2.862,2.009-4.475,2.736l-407.264,249.041
		c-2.215,2.089-4.855,3.696-7.774,4.754c-2.395,0.868-4.943,1.419-7.638,1.419c-12.436,0-22.519-10.082-22.519-22.519V983.927
		c0-12.467,10.105-22.574,22.571-22.578h-22.571v550.866h458.507v-275.719C1248.549,1243.758,1245.051,1250.146,1239.713,1254.264z"
		/>
	<path style="fill:#FFFFFF;stroke:#FFFFFF;stroke-miterlimit:10;" d="M790.044,983.927v505.769
		c0,12.436,10.082,22.519,22.519,22.519c2.695,0,5.243-0.551,7.638-1.419c2.919-1.059,5.559-2.665,7.774-4.754l407.264-249.041
		c1.613-0.727,3.091-1.668,4.475-2.736c5.338-4.118,8.836-10.506,8.838-17.768v-0.011c-0.002-7.263-3.5-13.652-8.838-17.768
		c-1.384-1.068-2.862-2.011-4.475-2.736L825.554,965.458l-1.264-0.773c-3.413-2.075-7.377-3.336-11.664-3.337h-0.012
		C800.149,961.353,790.044,971.46,790.044,983.927z"/>
	<path style="fill:none;stroke:#FFFFFF;stroke-width:100;stroke-miterlimit:10;" d="M1982.167,1834.571H56.428c-1.1,0-2-0.9-2-2
		V168.95c0-1.1,0.9-2,2-2h1925.74c1.1,0,2,0.9,2,2v1663.621C1984.167,1833.671,1983.267,1834.571,1982.167,1834.571z"/>
	<path style="fill:#FFFFFF;" d="M1982.274,166.951H58.215c-1.042,0-1.894,0.852-1.894,1.894v527.465
		c0,1.042,0.852,1.894,1.894,1.894h1924.058c1.042,0,1.894-0.852,1.894-1.894V168.844
		C1984.167,167.803,1983.315,166.951,1982.274,166.951z M605.901,218.087c40.794,0,73.864,33.07,73.864,73.864
		s-33.07,73.864-73.864,73.864s-73.864-33.07-73.864-73.864S565.107,218.087,605.901,218.087z M393.812,218.087
		c40.794,0,73.864,33.07,73.864,73.864s-33.07,73.864-73.864,73.864s-73.864-33.07-73.864-73.864S353.018,218.087,393.812,218.087z
		 M181.722,218.087c40.794,0,73.864,33.07,73.864,73.864s-33.07,73.864-73.864,73.864s-73.864-33.07-73.864-73.864
		S140.928,218.087,181.722,218.087z M1936.036,611.081c0,1.042-0.852,1.894-1.894,1.894H109.752c-1.042,0-1.894-0.852-1.894-1.894
		V461.459c0-1.042,0.852-1.894,1.894-1.894h1824.39c1.042,0,1.894,0.852,1.894,1.894V611.081z"/>
</g>
</svg>
