<?xml version="1.0" encoding="utf-8"?>
<!-- Generator: Adobe Illustrator 15.1.0, SVG Export Plug-In . SVG Version: 6.00 Build 0)  -->
<!DOCTYPE svg PUBLIC "-//W3C//DTD SVG 1.1//EN" "http://www.w3.org/Graphics/SVG/1.1/DTD/svg11.dtd">
<svg version="1.1" id="Layer_1" xmlns="http://www.w3.org/2000/svg" xmlns:xlink="http://www.w3.org/1999/xlink" x="0px" y="0px"
	 width="679.491px" height="679.49px" viewBox="-33.656 50.778 679.491 679.49"
	 enable-background="new -33.656 50.778 679.491 679.49" xml:space="preserve">
<g>
	<path fill="#9FA1A4" d="M595.234,90.134H16.945c-27.901,0-50.601,22.699-50.601,50.601v499.576
		c0,27.901,22.699,50.601,50.601,50.601h578.289c27.817,0,50.518-22.632,50.602-50.449V140.735
		C645.835,112.833,623.136,90.134,595.234,90.134z M181.949,155.49c12.25,0,22.181,9.931,22.181,22.181
		c0,12.25-9.931,22.181-22.181,22.181c-12.25,0-22.181-9.931-22.181-22.181C159.768,165.421,169.698,155.49,181.949,155.49z
		 M118.26,155.49c12.25,0,22.181,9.931,22.181,22.181c0,12.25-9.931,22.181-22.181,22.181c-12.25,0-22.181-9.931-22.181-22.181
		C96.079,165.421,106.009,155.49,118.26,155.49z M54.57,155.49c12.25,0,22.181,9.931,22.181,22.181
		c0,12.25-9.931,22.181-22.181,22.181c-12.25,0-22.181-9.931-22.181-22.181C32.389,165.421,42.32,155.49,54.57,155.49z
		 M580.835,630.911H32.344V301.134h548.491V630.911z M581.381,273.504c0,0.313-0.256,0.568-0.568,0.568H32.958
		c-0.313,0-0.569-0.255-0.569-0.568v-44.931c0-0.313,0.256-0.569,0.569-0.569h547.854c0.312,0,0.568,0.256,0.568,0.569V273.504z"/>
	<path fill="#9FA1A4" d="M244.008,543.609c0.694,0,1.388-0.13,2.123-0.396c0.822-0.299,1.549-0.743,2.162-1.321l0.083-0.063
		l122.299-74.785c0.471-0.217,0.878-0.466,1.299-0.791c1.562-1.206,2.459-3.006,2.46-4.939c-0.001-1.938-0.897-3.738-2.46-4.942
		c-0.424-0.328-0.83-0.577-1.243-0.763l-123.462-75.493c-0.999-0.607-2.12-0.928-3.242-0.928c-3.465,0.001-6.281,2.819-6.281,6.28
		v151.88C237.746,540.801,240.555,543.609,244.008,543.609z"/>
	<path fill="#9FA1A4" d="M244.008,544.609c0.812,0,1.618-0.149,2.464-0.456c0.934-0.339,1.764-0.843,2.468-1.498l122.201-74.729
		c0.488-0.221,0.96-0.51,1.443-0.883c1.81-1.396,2.848-3.484,2.849-5.734c-0.001-2.247-1.039-4.336-2.849-5.73
		c-0.486-0.376-0.959-0.664-1.389-0.854l-123.026-75.23l-0.381-0.233c-1.157-0.703-2.458-1.075-3.766-1.075
		c-4.013,0.001-7.278,3.268-7.278,7.28v151.88C236.746,541.352,240.003,544.609,244.008,544.609z M237.246,385.468
		c0-3.744,3.035-6.779,6.778-6.78h0.003c1.288,0,2.478,0.379,3.503,1.002l0.379,0.232l123.026,75.23
		c0.484,0.218,0.928,0.501,1.344,0.822c1.603,1.235,2.653,3.154,2.654,5.335v0.004c-0.001,2.181-1.052,4.099-2.654,5.335
		c-0.416,0.321-0.859,0.604-1.344,0.822l-122.299,74.785c-0.665,0.628-1.458,1.109-2.334,1.428
		c-0.719,0.261-1.484,0.426-2.293,0.426c-3.735,0-6.763-3.027-6.763-6.762V385.468z"/>
</g>
</svg>
