<?xml version="1.0" encoding="utf-8"?>
<!-- Generated by IcoMoon.io -->
<!DOCTYPE svg PUBLIC "-//W3C//DTD SVG 1.1//EN" "http://www.w3.org/Graphics/SVG/1.1/DTD/svg11.dtd">
<svg version="1.1" xmlns="http://www.w3.org/2000/svg" xmlns:xlink="http://www.w3.org/1999/xlink" width="85" height="64" viewBox="0 0 85 64">
<path fill="#444444" d="M58.859 13.414c-0.657-0.657-1.362-0.939-2.3-0.939-0.892 0-1.595 0.328-2.252 0.939s-0.939 1.362-0.939 2.3c0 0.892 0.328 1.644 0.939 2.252 0.657 0.657 1.313 0.939 2.252 0.939 0.892 0 1.644-0.328 2.3-0.939 0.657-0.564 0.939-1.313 0.939-2.252s-0.328-1.69-0.939-2.3z"></path>
<path fill="#444444" d="M58.531 19.562c-0.328 0-0.705-0.095-0.892-0.095-0.469-0.046-0.939-0.046-1.362 0-0.423 0-0.892 0.095-1.313 0.095-0.375 0-0.705 0.046-1.033 0.095-0.375 0.046-0.657 0.236-0.751 0.469-0.046 0.236-0.141 0.328-0.282 0.469l-3.896 6.712c-0.095 0.236-0.141 0.469-0.046 0.751 0.046 0.328 0.236 0.516 0.469 0.705h0.046c0.282 0.141 0.516 0.141 0.844 0.095 0.282-0.046 0.469-0.236 0.657-0.423l2.159-3.849v13.141c0 0.328 0.095 0.516 0.236 0.751s0.328 0.328 0.516 0.328h0.844c0.375-0.095 0.657-0.657 0.657-1.549v-5.819c0-0.375 0.095-0.657 0.236-0.844 0.095-0.141 0.328-0.282 0.516-0.282h0.844c0.236 0 0.375 0.095 0.516 0.282 0.095 0.282 0.141 0.469 0.236 0.798v6.009c-0.046 0.844 0.282 1.313 0.844 1.362h0.705c0.141 0 0.328-0.095 0.469-0.328s0.141-0.423 0.236-0.751v-13.611l2.629 4.46c0.095 0.236 0.282 0.375 0.564 0.423 0.328 0.095 0.564 0.046 0.844-0.095l0.046-0.046c0.236-0.141 0.375-0.375 0.469-0.657 0.095-0.328 0.046-0.564-0.095-0.798l-4.037-7.040c-0.095-0.046-0.236-0.141-0.328-0.282-0.328-0.282-0.751-0.423-1.221-0.516-0.046 0.046-0.236 0.046-0.328 0.046z"></path>
<path fill="#444444" d="M45.297 28.245c0-0.892-0.328-1.644-0.892-2.3-0.657-0.657-1.454-0.939-2.3-0.939-0.892 0-1.644 0.328-2.3 0.939-0.657 0.657-0.939 1.362-0.939 2.3s0.328 1.644 0.939 2.252c0.657 0.657 1.362 0.939 2.3 0.939 0.844 0 1.644-0.328 2.3-0.939 0.564-0.61 0.892-1.362 0.892-2.252z"></path>
<path fill="#444444" d="M44.358 32.187c-0.095-0.046-0.282-0.046-0.328-0.046-0.375-0.046-0.705-0.046-0.939-0.095h-1.313c-0.469 0.046-0.939 0.046-1.408 0.046-0.375 0.046-0.705 0.095-1.033 0.141-0.375 0.095-0.564 0.282-0.705 0.516-0.095 0.095-0.141 0.282-0.282 0.423l-3.942 6.665c-0.095 0.282-0.141 0.516-0.046 0.798 0.046 0.328 0.282 0.469 0.469 0.705l0.095 0.046c0.282 0.095 0.516 0.141 0.798 0.095 0.328-0.095 0.469-0.282 0.657-0.516l2.252-3.849v13.188c0 0.282 0.046 0.516 0.141 0.751 0.141 0.236 0.328 0.328 0.516 0.328h0.844c0.423-0.095 0.705-0.657 0.705-1.549v-5.819c0-0.375 0.046-0.564 0.141-0.798 0.141-0.236 0.328-0.328 0.516-0.282h0.892c0.141-0.046 0.328 0.046 0.469 0.282 0.095 0.236 0.236 0.423 0.236 0.705v6.055c0 0.844 0.282 1.313 0.892 1.362h0.657c0.236 0 0.375-0.095 0.469-0.328 0.141-0.236 0.282-0.469 0.282-0.751v-13.611l2.534 4.411c0.095 0.282 0.328 0.423 0.564 0.516 0.328 0 0.564 0 0.844-0.141l0.046-0.046c0.236-0.141 0.375-0.328 0.469-0.657 0.095-0.282 0.046-0.516-0.046-0.751l-4.037-7.086c-0.141-0.095-0.282-0.236-0.375-0.282-0.187-0.141-0.61-0.328-1.033-0.423z"></path>
<path fill="#444444" d="M30.748 19.656c-0.375 0-0.705-0.046-0.939-0.095h-1.313c-0.469 0.046-0.939 0.095-1.362 0.095-0.328 0.046-0.705 0.046-0.939 0.095-0.375 0.095-0.564 0.282-0.751 0.516-0.095 0.095-0.141 0.282-0.282 0.423l-3.896 6.712c-0.141 0.236-0.236 0.469-0.095 0.798 0.046 0.282 0.282 0.469 0.469 0.657h0.095c0.282 0.141 0.516 0.236 0.844 0.141 0.282-0.095 0.423-0.282 0.564-0.469l2.252-3.849v13.188c0 0.282 0.046 0.516 0.236 0.751 0.095 0.141 0.282 0.328 0.469 0.328h0.844c0.423-0.141 0.705-0.705 0.705-1.595v-5.727c0-0.375 0.046-0.657 0.236-0.844 0.095-0.236 0.282-0.328 0.469-0.328h0.892c0.141 0 0.328 0.095 0.469 0.328 0.095 0.187 0.236 0.469 0.236 0.751v6.009c0 0.892 0.282 1.362 0.892 1.454h0.657c0.236 0 0.375-0.141 0.469-0.328 0.141-0.236 0.282-0.469 0.282-0.751v-13.611l2.534 4.411c0.141 0.236 0.375 0.423 0.657 0.423 0.282 0.046 0.516 0.046 0.798-0.095h0.046c0.236-0.141 0.375-0.375 0.469-0.705 0.095-0.282 0.095-0.516-0.046-0.751l-4.037-7.040c-0.095-0.141-0.282-0.236-0.328-0.328-0.375-0.282-0.751-0.423-1.221-0.516-0.141 0.046-0.328 0.046-0.375-0.046z"></path>
<path fill="#444444" d="M31.076 18.061c0.564-0.657 0.892-1.362 0.892-2.3 0-0.844-0.328-1.644-0.892-2.3-0.657-0.564-1.362-0.892-2.3-0.892-0.844 0-1.644 0.328-2.3 0.892-0.657 0.657-0.939 1.454-0.892 2.3-0.046 0.892 0.282 1.644 0.892 2.3s1.454 0.892 2.3 0.892c0.892 0.046 1.644-0.236 2.3-0.892z"></path>
</svg>
