<?xml version="1.0" standalone="no"?>
<!DOCTYPE svg PUBLIC "-//W3C//DTD SVG 1.1//EN" "http://www.w3.org/Graphics/SVG/1.1/DTD/svg11.dtd" >
<svg xmlns="http://www.w3.org/2000/svg" xmlns:xlink="http://www.w3.org/1999/xlink" version="1.1">
<metadata>
Created by FontForge 20150401 at Thu Sep 17 13:49:05 2015
 By anichols
</metadata>
<defs>
<font id="icomanta" horiz-adv-x="512" >
  <font-face 
    font-family="icomanta"
    font-weight="400"
    font-stretch="normal"
    units-per-em="512"
    panose-1="2 0 5 9 0 0 0 0 0 0"
    ascent="448"
    descent="-64"
    bbox="-2 -64.6316 664 448.5"
    underline-thickness="25"
    underline-position="-76"
    unicode-range="U+E600-E648"
  />
<missing-glyph 
d="M17 0v341h136v-341h-136zM34 17h102v307h-102v-307z" />
    <glyph glyph-name=".notdef" 
d="M17 0v341h136v-341h-136zM34 17h102v307h-102v-307z" />
    <glyph glyph-name=".null" horiz-adv-x="0" 
 />
    <glyph glyph-name="nonmarkingreturn" 
 />
    <glyph glyph-name="uniE600" unicode="&#xe600;" 
d="M512 242v-100h-206v-206h-100v206h-206v100h206v206h100v-206h206z" />
    <glyph glyph-name="uniE601" unicode="&#xe601;" 
d="M512 139l-313 -180v115h-199v351h120v-231h79v126z" />
    <glyph glyph-name="uniE602" unicode="&#xe602;" 
d="M512 363l-256 -342l-256 342h512z" />
    <glyph glyph-name="uniE603" unicode="&#xe603;" 
d="M427 -64l-342 256l342 256v-512z" />
    <glyph glyph-name="uniE604" unicode="&#xe604;" 
d="M85 448l342 -256l-342 -256v512z" />
    <glyph glyph-name="uniE605" unicode="&#xe605;" 
d="M0 21l256 342l256 -342h-512z" />
    <glyph glyph-name="uniE606" unicode="&#xe606;" 
d="M97 340l159 -184l159 184h97l-256 -296l-256 296h97z" />
    <glyph glyph-name="uniE607" unicode="&#xe607;" 
d="M404 351l-184 -159l184 -159v-97l-296 256l296 256v-97z" />
    <glyph glyph-name="uniE608" unicode="&#xe608;" 
d="M108 33l184 159l-184 159v97l296 -256l-296 -256v97z" />
    <glyph glyph-name="uniE609" unicode="&#xe609;" 
d="M415 44l-159 184l-159 -184h-97l256 296l256 -296h-97z" />
    <glyph glyph-name="uniE60A" unicode="&#xe60a;" 
d="M485 264q-28 0 -43 -5q-26 62 -59 73h-3q-41 8 -124 8q-37 0 -68 -2t-44 -4l-12 -2h-3q-33 -11 -59 -73q-15 5 -43 5q-25 0 -27 -14q-2 -12 16 -16q10 -3 24 -1q0 -1 -1.5 -2t-4 -4.5t-5 -7.5t-5.5 -10.5t-4.5 -14t-1.5 -18t2 -21.5v-103q0 -5 5 -5h88q5 0 5 5v17h276
v-17q0 -5 5 -5h88q5 0 5 5v103q3 16 2 29t-4.5 22t-7.5 15t-7 9l-3 3q35 -4 40 13q3 13 -17 17q-4 1 -10 1zM134 312h244q24 -8 44 -74h-7q-46 16 -159 16t-159 -16h-7q20 66 44 74zM145 145q-1 0 -39 -0.5t-42 -0.5q-6 0 -11 3t-8 8t-3 11t3 10t8 6.5t11 2.5q35 0 48 -4
q10 -2 19.5 -6t17 -9.5t7.5 -10.5q0 -2 -1.5 -4.5t-4 -4t-5.5 -1.5zM312 78h-112v33h112v-33zM448 144q-4 0 -42 0.5t-39 0.5q-5 0 -8 3t-3 7t4.5 8t11 7.5t14 6.5t14.5 4q13 4 48 4q10 0 16 -5t6 -14t-6.5 -15.5t-15.5 -6.5z" />
    <glyph glyph-name="uniE60B" unicode="&#xe60b;" 
d="M387 -11h-104v226l188 233h-434l192 -232v-227h-103q-12 0 -19 -8.5t-7 -18t7 -18t19 -8.5h261q13 0 20 8.5t7 18t-7 18t-20 8.5zM255 317q0 14 10 24t24 10t24 -10t10 -24q0 -9 -4.5 -17t-12.5 -12.5t-17 -4.5q-14 0 -24 10t-10 24z" />
    <glyph glyph-name="uniE60C" unicode="&#xe60c;" 
d="M416 -38q-14 8 -22 31q15 12 20.5 30t-0.5 36q-8 22 -30.5 32.5t-46.5 2.5q-16 -6 -28 -19l-39 115l94 256q-38 -72 -109 -217q-68 146 -105 219l89 -258l-42 -113q-11 13 -27 19q-24 9 -47 -1t-31 -32.5t2.5 -44.5t34.5 -31t47 1t31 32q0 1 1 2v1l46 124l43 -126v-1
q1 0 1 -0.5v-1.5q5 -13 15.5 -22.5t24.5 -13.5t29 -1q12 -31 35 -43q5 -3 12 -1q5 2 8 6q7 12 -6 19zM179.5 30q-4.5 -12 -16.5 -17t-24.5 -0.5t-18 16.5t-1 24t16.5 17t24.5 0.5t18 -16.5t1 -24zM254 181q-7 0 -7 7t7 7t7 -7t-7 -7zM366 10q-9 -3 -17 -2t-14.5 6.5
t-8.5 13.5q-5 12 1 23.5t19 16t25 -1t16 -17.5q2 -8 0.5 -16t-7.5 -14.5t-14 -8.5z" />
    <glyph glyph-name="uniE60D" unicode="&#xe60d;" 
d="M214 114q29 54 64.5 105t66 85.5t57 61t41.5 39.5l15 12l54 22q-8 -6 -22 -18t-52.5 -53.5t-72.5 -88t-73.5 -122t-64.5 -156.5q-26 42 -68 86.5t-72 67.5l-29 22l79 14q46 -34 77 -77zM354 221q15 24 32 50v-261q0 -27 -19 -46t-46 -19h-256q-27 0 -46 19t-19 46v256
q0 27 19 46t46 19h273q-12 -14 -26 -32h-247q-14 0 -23.5 -9.5t-9.5 -23.5v-256q0 -14 9.5 -23.5t23.5 -9.5h256q14 0 23.5 9.5t9.5 23.5v211z" />
    <glyph glyph-name="uniE60E" unicode="&#xe60e;" 
d="M386 272q1 0 1 1v-5v-257q0 -26 -17.5 -44.5t-43.5 -20.5h1h-262q-27 0 -46 19t-19 46v257q0 23 15 41t37 22q6 2 13 2h257q26 0 44.5 -18t19.5 -43zM355 11v9v203v45q0 13 -10 23t-23 10h-10h-247q-3 0 -7 -1q-16 -4 -23 -20q-3 -6 -3 -12v-257q0 -14 9.5 -23.5
t23.5 -9.5h257q13 0 23 9.5t10 23.5z" />
    <glyph glyph-name="uniE60F" unicode="&#xe60f;" 
d="M0 312v62h62v-62h-62zM123 312v62h389v-62h-389zM0 161v62h62v-62h-62zM123 161v62h389v-62h-389zM0 10v62h62v-62h-62zM123 10v62h389v-62h-389z" />
    <glyph glyph-name="uniE610" unicode="&#xe610;" 
d="M255.5 448q70.5 0 120.5 -50t50 -121q0 -28 -9 -55t-26 -48.5t-39 -37.5q-2 -11 -4 -27.5t-3.5 -25.5t-1.5 -10q0 -2 -1 -4q3 -5 3 -11q0 -7 -4 -13q4 -5 4 -12q0 -6 -3 -11q6 -9 2 -22q-2 -10 -8.5 -16.5t-14.5 -6.5h-5q1 -2 1 -3q0 -11 -8.5 -19.5t-22 -13.5t-30.5 -5
v0h-1q-25 0 -42.5 11t-17.5 27v3h-5q-7 0 -14 6.5t-9 16.5q-3 13 3 22q-4 5 -4 11q0 7 5 12q-5 6 -5 13q0 6 4 11l-2 4q0 1 -1 10t-3.5 25.5t-3.5 27.5q-35 24 -55 61t-20 80q0 71 50 121t120.5 50zM290 -28q5 4 1.5 9t-8.5 1q-11 -8 -27 -8t-27 8q-5 4 -9 -1t2 -9
q14 -11 33.5 -11t34.5 11zM310 -2q10 0 10 10q0 6 -6 9q-49 -11 -85 -19h81zM315 23q9 2 7 11.5t-11 6.5q-48 -10 -114 -25q-10 -2 -8 -11.5t12 -7.5q1 1 29 7l56 12t29 7zM315 48q9 2 7 11.5t-11 7.5q-2 0 -57.5 -12.5t-56.5 -12.5q-10 -2 -8 -11.5t12 -7.5q55 12 114 25z
M240 169l4 -84h25l4 86l34 92q2 6 8 4q1 -1 3 -2v44q0 5 -1.5 9t-4.5 7t-8 4.5t-11 1.5t-11 -1.5t-8 -4.5t-4 -7t-1 -9v-47q0 -1 -0.5 -1.5t-2 -1t-4 -0.5h-5.5h-1h-5t-3.5 0.5t-2 1t-0.5 1.5v47q0 5 -1.5 9t-4.5 7t-7.5 4.5t-11 1.5t-11 -1.5t-7.5 -4.5t-4.5 -7t-1.5 -9
v-43q1 0 2 1q5 2 8 -4zM282 66h-81q-10 0 -10 -10q0 -6 6 -9q49 11 85 19zM319 156q33 17 53.5 49.5t20.5 71.5q0 57 -40.5 97t-97 40t-96.5 -40t-40 -97q0 -39 20 -71.5t54 -49.5q8 -69 8 -70v-1h30l-4 82l-33 91v2h-1q-1 -1 -3 -1h-5.5h-5.5t-3.5 0.5t-2 1t-0.5 1.5v49v28
q0 5 4 5h17h22h2h4.5h2.5q12 0 20 -3q7 -2 12 -6q5 4 11 6q8 3 20 3h10q12 0 20 -3t13 -7.5t7.5 -10.5t2.5 -12v-49q0 -1 -1 -1.5l-2 -1t-3 -0.5h-5.5h-6t-3.5 1h-1v-2l-33 -91l-4 -82h28v1z" />
    <glyph glyph-name="uniE611" unicode="&#xe611;" 
d="M256 448q71 0 121 -50t50 -121q0 -28 -9.5 -55t-26 -48.5t-39.5 -37.5q-2 -11 -4 -27.5t-3 -25.5t-2 -10q0 -2 -1 -4q4 -5 4 -11q0 -7 -5 -13q5 -5 5 -12q0 -6 -4 -11q6 -9 3 -22q-3 -10 -9.5 -16.5t-13.5 -6.5h-5v-3q0 -16 -17.5 -27t-42.5 -11h-1h-0.5h-0.5
q-25 0 -42.5 11t-17.5 27v3h-5q-7 0 -13.5 6.5t-9.5 16.5q-3 13 3 22q-4 5 -4 11q0 7 5 12q-5 6 -5 13q0 6 4 11q-1 2 -1 4q-1 1 -2 10t-3 25.5t-4 27.5q-34 24 -54.5 61t-20.5 80q0 71 50 121t121 50zM290 -28q6 4 2 9t-9 1q-11 -8 -27 -8t-27 8q-5 4 -8.5 -1t1.5 -9
q15 -11 34.5 -11t33.5 11zM310 -2q10 0 10 10q0 6 -6 9q-49 -11 -85 -19h81zM315 23q10 2 8 11.5t-12 6.5q-48 -10 -114 -25q-10 -2 -8 -11.5t12 -7.5q1 1 29 7l56 12t29 7zM315 48q10 2 8 11.5t-12 7.5q-2 0 -57.5 -12.5t-56.5 -12.5q-10 -2 -8 -11.5t12 -7.5q55 12 114 25
zM191 56q0 -6 7 -9q48 11 84 19h-81q-10 0 -10 -10zM319 156q33 17 53.5 49.5t20.5 71.5q0 57 -40 97t-97 40t-97 -40t-40 -97q0 -39 20.5 -71.5t53.5 -49.5q8 -69 9 -70v-1h108v1zM322 292q10 -6 0 -11l-93 -57q-4 -2 -7 -0.5t-3 6.5v113q0 5 3 6.5t7 -0.5z" />
    <glyph glyph-name="uniE612" unicode="&#xe612;" 
d="M256 448q71 0 121 -50t50 -121q0 -28 -9.5 -55t-26 -48.5t-39.5 -37.5q-2 -11 -4 -27.5t-3 -25.5t-2 -10q0 -2 -1 -4q4 -5 4 -11q0 -7 -5 -13q5 -5 5 -12q0 -6 -4 -11q6 -9 3 -22q-3 -10 -9.5 -16.5t-13.5 -6.5h-5v-3q0 -16 -17.5 -27t-42.5 -11h-1h-0.5h-0.5
q-25 0 -42.5 11t-17.5 27v3h-5q-7 0 -13.5 6.5t-9.5 16.5q-3 13 3 22q-4 5 -4 11q0 7 5 12q-5 6 -5 13q0 6 4 11q-1 2 -1 4q-1 1 -2 10t-3 25.5t-4 27.5q-34 24 -54.5 61t-20.5 80q0 71 50 121t121 50zM290 -28q6 4 2 9t-9 1q-11 -8 -27 -8t-27 8q-5 4 -8.5 -1t1.5 -9
q15 -11 34.5 -11t33.5 11zM310 -2q10 0 10 10q0 6 -6 9q-49 -11 -85 -19h81zM315 23q10 2 8 11.5t-12 6.5q-48 -10 -114 -25q-10 -2 -8 -11.5t12 -7.5q1 1 29 7l56 12t29 7zM315 48q10 2 8 11.5t-12 7.5q-2 0 -57.5 -12.5t-56.5 -12.5q-10 -2 -8 -11.5t12 -7.5q55 12 114 25
zM191 56q0 -6 7 -9q48 11 84 19h-81q-10 0 -10 -10zM319 156q33 17 53.5 49.5t20.5 71.5q0 57 -40 97t-97 40t-97 -40t-40 -97q0 -39 20.5 -71.5t53.5 -49.5q8 -69 9 -70v-1h108v1z" />
    <glyph glyph-name="uniE613" unicode="&#xe613;" 
d="M256 263q39 0 66.5 -27.5t27.5 -66.5t-27.5 -67t-66.5 -28t-67 28t-28 67t28 66.5t67 27.5zM512 348v-177.5v-177.5h-512v313l112 37q17 5 31 5h33v43h162v-43h174zM256 31q57 0 97 40.5t40 97.5q0 37 -18 69t-50 50t-69 18q-57 0 -97.5 -40t-40.5 -97t40.5 -97.5
t97.5 -40.5zM103 377v-17l-82 -27v44h82z" />
    <glyph glyph-name="uniE614" unicode="&#xe614;" 
d="M256 -64q-106 0 -181 75t-75 181t75 181t181 75t181 -75t75 -181t-75 -181t-181 -75zM256 406q-88 0 -151 -63t-63 -151t63 -151t151 -63t151 63t63 151t-63 151t-151 63zM250 165v197h33v-197h-33zM133 165v33h150v-33h-150z" />
    <glyph glyph-name="uniE615" unicode="&#xe615;" 
d="M474 394q16 0 27 -11t11 -27v-244q0 -16 -11 -27t-27 -11h-292l-84 -84v84h-60q-16 0 -27 11t-11 27v244q0 8 3 15q8 18 27 22q4 1 8 1h425h11zM147 218q11 0 19 8t8 19t-8 18.5t-19 7.5t-18.5 -7.5t-7.5 -18.5t7.5 -19t18.5 -8zM256 218q11 0 18.5 8t7.5 19t-7.5 18.5
t-18.5 7.5t-18.5 -7.5t-7.5 -18.5t7.5 -19t18.5 -8zM365 218q7 0 13 3.5t9.5 10t3.5 13.5q0 11 -7.5 18.5t-18.5 7.5t-19 -7.5t-8 -18.5t8 -19t19 -8z" />
    <glyph glyph-name="uniE616" unicode="&#xe616;" 
d="M418 227v-97h-153v97h153zM290 137h20l39 84h-20zM328 137l39 84h-10l-39 -84h10zM511 291q4 -16 -3.5 -27t-21.5 -11v-271h-460v271q-14 0 -21.5 11t-3.5 27l25 54v57h460v-57zM54 374v-27h404v27h-404zM209 289h94l-5 43h-84zM303 281h-94v-13h94v13zM55 332l-23 -43
h93l14 43h-84zM32 281v-13h93v13h-93zM182 118q0 -3 2 -6t5 -5t6 -2q6 0 10 4t4 9.5t-4 9.5t-9.5 4t-9.5 -4t-4 -10zM458 10v243h-404v-243h47v211h120v-211h237zM480 268v13h-93v-13h93zM387 289h93l-23 43h-84z" />
    <glyph glyph-name="uniE617" unicode="&#xe617;" 
d="M219 310q-5 -7 -7 -100.5t-1 -183.5v-90h81q-3 361 -7 371q-1 1 -3.5 7.5t-3.5 9.5t-0.5 9.5t3.5 13.5q15 38 52.5 40.5t76.5 -26.5q1 -1 5 -4.5t6.5 -6t2.5 -1.5q-4 16 -13 30t-20 23.5t-23.5 17.5t-24.5 13t-22 8.5t-16 4.5l-6 2l-95 -1q-16 -8 -47 -8q-10 0 -16 2
t-7 5l-1 2h-45v-74h45q0 1 0.5 2.5t3.5 5.5t7.5 6t12.5 3t20 -2q17 -5 28.5 -16.5t15 -23.5t3 -23t-4.5 -16z" />
    <glyph glyph-name="uniE618" unicode="&#xe618;" 
d="M192 142l-185 64l498 242l-221 -512z" />
    <glyph glyph-name="uniE619" unicode="&#xe619;" 
d="M349 365q11 0 20.5 5.5t15 15t5.5 21.5q0 17 -12 29t-29 12t-29 -12t-12 -29.5t12 -29.5t29 -12zM392 356h-87q-6 0 -10.5 -1t-7 -2t-6 -5t-5 -5.5t-6 -9t-6.5 -11.5l-43 -105q-5 -8 -3 -15l-12 -21q-25 25 -44 25h-58q-16 0 -27 -11t-11 -27v-72q0 -13 13 -13t13 13v64
h6v-207q0 -11 8.5 -15.5t17 0.5t8.5 15v112h6v-112q0 -10 8.5 -15t17 -0.5t8.5 15.5v207h6l21 -13q10 -5 16 4q7 11 24 37q8 1 12 9l45 108v-332q0 -16 12.5 -22t24.5 0.5t12 21.5v185h8v-185q0 -15 12 -21.5t24 -0.5t12 22v318h9v-116q0 -12 9 -16.5t18 0t9 16.5v126
q0 22 -15.5 38.5t-38.5 16.5zM135 212q12 0 21 8.5t9 21t-9 21t-21 8.5t-20.5 -8.5t-8.5 -20.5q0 -8 4 -15t10.5 -11t14.5 -4z" />
    <glyph glyph-name="uniE61A" unicode="&#xe61a;" 
d="M512 19l-83 -83l-173 173l-173 -173l-83 83l173 173l-173 173l83 83l173 -173l173 173l83 -83l-173 -173z" />
    <glyph glyph-name="uniE61B" unicode="&#xe61b;" 
d="M259 428q-13 0 -35 5.5t-39 10.5t-37 3.5t-35 -13.5q-22 -17 -36 -40.5t-19 -56t10 -67.5q14 -36 29 -65.5t21 -40.5t10 -29.5t3 -47.5q-3 -55 14.5 -103.5t35.5 -47.5q3 0 4 11.5t-2.5 27.5t-2 36t6 37.5t22.5 30.5t47 16q29 -3 47 -16t22.5 -30.5t6 -37.5t-2 -36
t-2.5 -27.5t5 -11.5q18 -1 35 47.5t15 103.5q-1 29 2.5 47.5t9.5 29.5t21 40.5t29 65.5q14 33 9.5 65t-17 55t-33.5 41q-10 9 -29 10.5t-37 -2t-41.5 -7.5t-36.5 -4z" />
    <glyph glyph-name="uniE61C" unicode="&#xe61c;" 
d="M291 397q-7 -12 -21 -17v17q14 8 14 23q0 12 -8 20t-20 8t-20 -8t-8 -20q0 -15 14 -23v-17q-14 5 -21 17h-121h-90q4 -14 24 -33.5t36 -25.5q147 -28 173 -31q0 -13 1 -60q-2 1 -6.5 1h-7.5q-55 2 -65 21q-4 6 2 12q6 9 29 0.5t29 -7.5q20 4 5 16q-9 7 -19 8
q-3 0 -11 -0.5t-18 -1.5q-18 0 -29 -12q-4 -5 -4 -10q0 -27 57 -39q-14 -9 -20 -23q-10 -25 35 -47q5 -2 14 -7l5 -2q-33 -20 -16 -48q6 -11 22 -22q-12 -10 -18.5 -16.5t-6 -17.5t13.5 -23q2 -2 6.5 -5.5t6.5 -4.5v-2q-4 -5 -6 -10q-4 -17 6 -36q1 -14 1 -15q-1 -2 -4 -6
q1 0 4 3v-10q0 -7 7 -7t7 7v1.5v3.5v5q3 -3 4 -3q-1 2 -4 6q1 12 1 15q10 19 6 36q-2 5 -6 10v2q2 1 6.5 4.5t6.5 5.5q13 12 13.5 23t-6 17.5t-18.5 16.5q16 11 22 22q17 28 -16 48q1 1 5 2q7 4 10.5 5.5t10 5t10 6t8.5 6t7 6.5t3.5 7t1.5 8.5t-2 9.5q-6 14 -20 23
q57 12 57 39q0 5 -4 10q-11 12 -29 12q-6 1 -11.5 1t-7.5 0.5t-5.5 0.5h-4.5q-16 -1 -24 -13q-5 -8 10 -11q6 -1 29 7.5t29 -0.5q14 -12 -14 -24q-20 -8 -49 -9h-7.5t-6.5 -1q1 47 1 60l173 31q16 6 36 25.5t24 33.5h-211zM207 197q-3 24 37 30q0 -11 0.5 -31t0.5 -27l-1 1
q-1 0 -4.5 2t-6 3t-6 3t-6 3.5t-5 3.5t-4.5 3.5t-3.5 4t-1.5 4.5zM239 108q-15 18 7 34v-41zM246 34q-21 18 -3 35l1.5 1.5t2.5 1.5v-19.5v-19.5zM266 34l-1 -1v9v9.5v10.5v10q1 0 2.5 -1.5l1.5 -1.5q18 -17 -3 -35zM273 108l-7 -7v41q22 -16 7 -34zM267 170v-1q0 41 1 58
q40 -6 37 -30q-1 -3 -2 -5t-4 -4.5t-5.5 -4.5t-6.5 -4t-6.5 -3.5t-7 -3.5t-6.5 -2z" />
    <glyph glyph-name="uniE61D" unicode="&#xe61d;" 
d="M510 251q2 -5 2 -10v-176q0 -11 -8 -19t-19 -8h-44v-61l-60 61h-211q-11 0 -19 8t-8 19v176q0 11 8 19t19 8h8h307q3 0 5 -1q14 -2 20 -16zM249 141q5 0 9.5 3t7 7t2.5 10q0 7 -5.5 13t-13.5 6t-13.5 -6t-5.5 -13.5t5.5 -13.5t13.5 -6zM327 141q4 0 7.5 1.5t6 4.5
t4.5 6.5t2 7.5q0 7 -6 13t-13.5 6t-13.5 -6t-6 -13.5t6 -13.5t13 -6zM406 141q5 0 9.5 3t7 7t2.5 10q0 7 -5.5 13t-13.5 6t-13.5 -6t-5.5 -13.5t5.5 -13.5t13.5 -6zM278 407q9 0 15.5 -6.5t6.5 -15.5v-101h-122h-8q-12 0 -22 -5.5t-15.5 -15.5t-5.5 -22v-22h-20l-49 -49v49
h-36q-6 0 -11 3t-8 8.5t-3 11.5v143q0 4 2 8q4 11 16 13q2 1 4 1h250h6zM86 304q5 0 8.5 2t5.5 5.5t2 7.5q0 7 -4.5 11.5t-11 4.5t-11 -4.5t-4.5 -11t4.5 -11t10.5 -4.5zM150 304q4 0 8 2t6 5.5t2 7.5q0 7 -4.5 11.5t-11 4.5t-11 -4.5t-4.5 -11t4.5 -11t10.5 -4.5zM214 304
q6 0 11 4.5t5 11t-5 11t-11 4.5q-3 0 -6 -1t-5 -3.5t-3.5 -5t-1.5 -6.5q0 -6 5 -10.5t11 -4.5z" />
    <glyph glyph-name="uniE61E" unicode="&#xe61e;" 
d="M0 -64l6 37l31 -31zM8 -11l13 85l117 -117l-85 -13zM503 355q7 -7 8.5 -15t-3.5 -13l-34 -35l-118 117l35 35q5 5 13 3.5t15 -8.5zM35 88l304 304l117 -117l-304 -304z" />
    <glyph glyph-name="uniE61F" unicode="&#xe61f;" 
d="M0 448h512v-512h-512v512zM332 299v57h-50q-20 0 -34.5 -6t-21 -13.5t-10 -18.5t-3.5 -15v-10v-45h-33v-55h33v-164h67v164h46q4 26 6 55h-51v38q0 4 4.5 8.5t9.5 4.5h37z" />
    <glyph glyph-name="uniE620" unicode="&#xe620;" 
d="M188 349q0 9 0.5 15.5t6 24t15.5 29t33 21t54 9.5h78v-90h-57q-9 0 -16 -7t-7 -13v-59h80l-10 -87h-71v-256h-106v256h-51v86h51v71z" />
    <glyph glyph-name="uniE621" unicode="&#xe621;" 
d="M512 206h-12v45q0 6 -6 6h-21q-6 0 -6 -6v-118q0 -6 6 -6h21q6 0 6 6v45h12v28zM447 286h-21q-6 0 -6 -6v-176q0 -6 6 -6h21q6 0 6 6v176q0 6 -6 6zM400 314h-21q-6 0 -6 -6v-102h-234v102q0 6 -6 6h-21q-6 0 -6 -6v-232q0 -6 6 -6h21q6 0 6 6v102h234v-102q0 -6 6 -6h21
q6 0 6 6v232q0 6 -6 6zM39 257h-21q-6 0 -6 -6v-45h-12v-28h12v-45q0 -6 6 -6h21q6 0 6 6v118q0 6 -6 6zM86 286h-21q-6 0 -6 -6v-176q0 -6 6 -6h21q6 0 6 6v176q0 6 -6 6z" />
    <glyph glyph-name="uniE622" unicode="&#xe622;" 
d="M496 297l16 16l-30 30l-16 -17h-420l-16 17l-30 -30l16 -16v-288l-16 -16l30 -30l16 16h420l16 -16l30 30l-16 16v288zM469 9l-3 -3h-420l-3 3v288l3 2h420l3 -2v-288zM67 32h378v241h-378v-241zM390.5 238q11.5 0 19.5 -8t8 -20q0 -7 -3.5 -13.5t-10 -10.5t-14.5 -4
q-11 0 -19.5 8.5t-8.5 20t8.5 19.5t20 8zM85 76q12 7 20 21q2 2 5.5 9t5.5 10.5t6.5 10.5t7 10.5t8 9.5t9.5 7.5t10.5 5.5t12 2.5t13.5 -0.5q14 -2 33 -17t35.5 -31t42.5 -28t54 -9q-35 6 -47 23q1 3 4 8t18 13t35 8q16 0 27 -9.5t21.5 -24t20.5 -20.5v-25h-342v26zM256 405
l109 -70h25l-134 86l-134 -86h25z" />
    <glyph glyph-name="uniE623" unicode="&#xe623;" 
d="M256 448q106 0 181 -75t75 -181t-75 -181t-181 -75t-181 75t-75 181t75 181t181 75zM353 261v-3v-2h-1h4h4.5h5.5q8 0 10 2t4.5 1t2.5 -4q1 -6 1 -10t2 -5q3 -1 5 -1q7 1 11 -3q7 -6 13 -5q4 0 4 3q1 4 1.5 4.5t5.5 0.5q2 0 7 -1t7 -1q6 0 21 2q1 1 2 3v11q0 1 -2 8
q-11 -3 -14 -3h-3l-1 1l-2 1q-2 0 -7 6q-1 1 -2 4q0 1 -0.5 2t-2 1.5l-1.5 0.5q-2 -2 -4 -5v-1t1 -1q4 -2 1 -7q0 -1 -1 -2t-1 -2l-5 4q-1 1 -2 2.5t-1 2.5q-1 2 -5 4h-2h-6q2 -4 -2 -9q-2 -2 -2 -4q-1 -3 -4 -2l-6 3l-1 2v1l3 1q2 -1 6 2l0.5 1.5t-0.5 2.5q-7 4 -13 7
q-1 0 -10 4v-2v-2l2 -8q0 -5 -5 -3q-1 0 -2 -1q-3 -1 -4 2q-1 6 2 8q1 1 1 3v5q-5 -4 -9 -2q1 -3 1 -4v-4l-6 5l-5 -3v-1q2 0 5 1q-1 -3 -6 -4q-4 0 -3 -4l1 0.5t2 0.5q0 -2 -0.5 -3.5t-2.5 -3t-2 -2.5q1 -1 3 -2q-2 0 -6 -1v-1h9v1l-1.5 0.5l-1.5 0.5v0l5 6zM434 291v-2
q0 -6 2 -8q5 -2 9.5 1.5t8.5 1.5q3 -1 6.5 -1t3.5 2q1 3 -1 4q-5 4 -10 7q-2 1 -5 0q-5 -2 -8 3q-2 3 -3 2q-2 -2 -3 -4v-6zM445 302l3 -2l3 2l-3 3zM408 271l-7 3q-2 2 -2 3t3 4q1 -4 2 -6l1 3q4 -2 3 -7zM394 280v2q-2 1 -8 6q-1 -5 6 -8h2zM480 188q2 -10 7 -15q0 6 1 12
q-2 8 -4 11q-3 7 -7 14l-8 14q-1 0 -5 2v-1l1 -2t1 -3l3 -5t4 -7l5 -15q0 -1 1 -2q0 -2 1 -3zM55 92q-3 5 0 11l1 7h1q3 1 5 1q-1 1 -2 5l-3 -6h-1q-4 3 -5 4q-8 5 -13 13q-3 7 -7 10q8 -33 25 -61q2 9 -1 16zM178 -26q38 -14 78 -14q67 0 124 36h-3q1 1 1 2v2q3 8 0 17v3
q6 9 2 18q-3 6 -2 9q5 7 8 12q4 6 4 10q0 1 0.5 2.5t0.5 2.5v5q0 1 -0.5 2t-0.5 2q-1 7 -7 10q-6 4 -3 10l1 5q1 4 2 4q4 8 -5 8h-8q-4 0 -6 3q-2 5 -7 2t-6 -3q-29 -5 -44 -3q-8 2 -21 13q-1 1 -2 3q-2 2 -3 2q-4 4 -8 7q-5 4 -6 13q0 2 5 10q3 6 -1 12q-2 4 -2 7q0 2 3 6
q9 13 14 19q0 1 6 5q0 1 3 2.5t4 3t0 4.5v1q4 5 5 6q2 3 5.5 7t5.5 6q-4 6 -10 5q-1 0 -3 2l-2 4q-1 3 -1 4q2 11 0 15v1t1 1q5 3 7 3h9h9q2 0 3 2q1 4 -2 9t-8 5q-3 0 -3.5 3t3.5 4q1 0 7 2q4 -1 8 5l-2 1q-2 -1 -8 -2t-9 -2h-5q0 1 3 5h-1l-1 4l2 4l2 4q-2 4 -6 3t-2 -6
q2 -3 -1 -4q0 -1 -3 -2.5t-5 -1.5q-3 -1 -4.5 0t-0.5 5v1q-4 5 2 9q4 2 6 2q5 0 3 5q-1 3 0 6t4 3q3 1 4 -2l1 -0.5t1 -1.5l2 -2l1 -2.5t2 -3.5l8 -8q2 -2 4 -2q4 -2 4 -6q0 -1 0.5 -2t2 -0.5t5.5 4.5l1 1l1 2q4 3 8 5q3 1 2 3t-5 8q-1 2 1 3q4 3 7 -1q0 -1 0.5 -1.5
l0.5 -0.5q-3 -5 3 -8q3 -1 5 0t4.5 -0.5t3.5 1.5v4h2h2.5h2.5q-2 4 -3 4q-1 4 0 5q5 -6 6 -6l3 1l-1 2q-3 1 -3 4v4v4q0 3 -3 2q-1 0 -4 -1q-4 -4 -3 -10q1 -5 -2 -6q-1 -1 -3 -2.5t-3 -2.5h-4v4q1 3 0 4q-1 2 -6 6q-3 3 -7 0q-1 -2 -5 -2t-5 2q-1 1 -2 2.5t-1.5 3t-1.5 2.5
q-4 6 1.5 11t6.5 8v2q1 2 1 3q0 8 1 11q1 1 1.5 4t1.5 4q2 4 5 5q-45 21 -95 21h-3.5h-3.5v-1h1q3 -1 2 -5q0 -1 -1 -6q6 -1 6 -2q4 -3 1.5 -9.5t-13.5 -11.5q-4 -2 -5 -6q0 -3 -1 -3q-2 -1 -12 -7q-5 -3 -5.5 -3.5t-2 -5t-2.5 -6.5q-4 -5 -5 -11t-8 -8q-2 -1 -3 1
q-2 3 -9 3q-2 0 -7 3l-4 2l-1 3q0 1 -1 4t-2 5v4v4q-2 4 2 10l2.5 3t2.5 4v4q1 2 2.5 6t3.5 5q4 6 6 12q1 3 -1 4q-27 -8 -49 -20l4 -3l2 -2v-2q7 -8 4 -14l-2 -3l7 -7t0.5 -2.5t-5 -4.5t-5.5 -2q-3 0 -4 -3q-2 -8 -9 -8q-1 -5 -5 -3l-2 2l-2 2t-2 1q-2 -1 -3 -3.5t0 -3.5
q2 -2 1 -7l-1 -4q3 -1 5 -1q2 1 4 4q5 5 7 -1q1 -7 1.5 -13.5t4.5 -8.5q7 -2 5 -6l4 -3q0 -8 -1 -11q-2 -4 2 -6q5 -3 3 -6v-2.5v-1.5q0 -4 -0.5 -4.5t-1.5 0t-2 0.5q-2 2 -4 1q-1 0 -2 1q-1 0 -5 1q-1 1 -4 2t-4 1q5 6 6 10q0 1 -0.5 1.5t-1.5 0.5q-18 -1 -19 0h-3
q0 -1 -4 -2q3 -2 3.5 -2t1.5 -1l1 -1l-2 -2l-2 -1q3 -8 3 -8.5t7 -2.5q0 1 2 3l3 3q0 -1 1 -3l2 -4q-2 0 -4.5 -1t-4.5 -2t-4 -1l-8 -4q-3 -2 -5 0q-2 3 -6 2q-7 -1 -9 -7q-1 -4 -5 -4q-8 -1 -9 -7l-2 -2q-6 -2 -5 -9q0 -9 -10 -13q-15 -6 -11 -21q1 -2 1 -12q1 -2 -1 -2h-2
q-4 11 -5 13q0 6 -4 8q-1 0 -3 2q-4 4 -8 0q-2 -3 -4 -1q-1 -11 -1 -13q0 -10 1 -22q3 2 6 1q4 -1 2 -4q0 -1 -1 -15q-1 -4 4 -5q4 0 5 -2q3 -4 3 -8q0 -7 2 -12q4 -8 9 -6q6 1 9 -4q1 0 4 -4l1 1q-1 -2 -1 -3l5 1l8 -4q8 -4 13 -2q1 0 3 -1q1 0 4 -1l1 1q4 -9 9 -10
q1 0 2 -2q5 -6 12 -6q9 -1 14 -7q1 0 2.5 -1.5t2 -2.5t2.5 -3t3 -3.5t0 -4.5l1 -1q3 -1 8 -2l4.5 -1.5t6.5 -2.5q7 -3 19 -4q3 -1 8 -3l6 -3t5 -3q7 -3 5 -8q-4 -9 -6 -10q-7 -6 -6 -15q1 -1 0 -3v-2t-0.5 -3t-1 -2.5t-0.5 -2.5q-1 -3 -4 -4l-10 -2q-6 -2 -3 -7q2 -5 -1 -7
q-2 -1 -2 -3zM436 253q-3 -2 -7 -1v1h7zM458 257q1 -2 -2 -5q-2 3 2 5zM94 149v-1h5v1h-5zM60 154l-3 -1l3 -2l2 1zM71 158q12 1 19 -9h-6h-7q-1 0 -3 1l-4 1q-2 1 -5.5 4t-6.5 4l-3 6h-0.5h-1.5q-4 -1 -5 3q-2 5 -6 2l-3 1v4q2 2 3 2q6 -1 9 -3q1 0 9 -6l1 -0.5t1 -1.5
q3 0 9 -8v0q-2 -1 -4 -1q2 -4 7 -3q-1 1 -1.5 2t-1.5 2v0z" />
    <glyph glyph-name="uniE624" unicode="&#xe624;" 
d="M0 448h512v-512h-512v512zM281 273q0 19 -5.5 32.5t-10.5 17.5t-14 9l33 5l12 10h-81q-53 0 -79 -22q-27 -23 -27 -60q0 -33 19 -51.5t53 -18.5h9q0 -6 -0.5 -12t-0.5 -9q11 -10 14 -19q-60 -4 -84 -19q-31 -18 -31 -57q0 -26 24.5 -44t68.5 -18q53 0 83.5 24.5
t30.5 57.5t-34 62l-15 12q-14 11 -14 18.5t12 19.5q12 9 18 15.5t12 19t7 27.5zM468 264v18h-65v65h-18v-65h-65v-18h65v-65h18v65h65zM187 330q9 0 18.5 -6t15.5 -14t9 -15q3 -6 4 -17.5t0.5 -25t-8.5 -24.5t-22 -13q-24 -4 -39.5 19.5t-14.5 51.5q0 20 9 31q10 13 28 13z
M164 134q19 6 35 6q29 0 47.5 -14.5t18.5 -32.5q0 -20 -19.5 -36t-43.5 -17q-35 0 -54.5 12.5t-19.5 35.5q0 33 36 46z" />
    <glyph glyph-name="uniE625" unicode="&#xe625;" 
d="M281 414l-17 -13q-31 -2 -44 -6q12 -7 18.5 -12.5t14 -23.5t6.5 -44q0 -21 -8 -37.5t-16.5 -25t-24.5 -20.5l-4.5 -4.5t-4.5 -5l-3 -4.5t-3 -6t-1 -6q0 -11 19 -26l20 -16q23 -19 34.5 -38t11.5 -46q0 -44 -41 -77t-112 -33q-61 0 -93.5 24t-32.5 59q0 53 42 78
q33 20 113 25q-4 12 -19 26q0 4 0.5 11.5t0.5 16.5h-12q-46 0 -71.5 25t-25.5 70q0 49 36 80q36 29 107 29h110zM238 72q0 24 -25 43.5t-64 20.5q-21 0 -46 -8q-50 -19 -50 -63q0 -31 26.5 -48t73.5 -16q33 0 59 22t26 49zM156 237q20 2 30.5 17t11 33.5t-1 33.5t-4.5 24
q-4 9 -12.5 19.5t-21 19t-25.5 8.5q-24 0 -37 -17q-13 -16 -13 -42q-1 -38 20 -69.5t53 -26.5zM425 328h87v-26h-87v-86h-25v86h-87v26h87v86h25v-86z" />
    <glyph glyph-name="uniE626" unicode="&#xe626;" 
d="M256 448q106 0 181 -75t75 -181t-75 -181t-181 -75t-181 75t-75 181t75 181t181 75zM256 -29q21 0 34 14t13 35t-13 35t-34 14q-11 0 -19.5 -4t-15 -10t-10 -15.5t-3.5 -19.5q0 -14 6 -25t17 -17.5t25 -6.5zM324 205q18 20 27 32t18 33t9 42q0 40 -29 67.5t-84 27.5
q-58 0 -98 -26l18 -55q25 19 63 19q52 -1 52 -45q0 -27 -40 -74q-42 -52 -38 -103l2 -16h67v13q-2 43 33 85z" />
    <glyph glyph-name="uniE627" unicode="&#xe627;" 
d="M483 178v-192h-175v174h-104v-174h-175v192h-29l256 220l129 -111v70h42v-106l85 -73h-29z" />
    <glyph glyph-name="uniE628" unicode="&#xe628;" 
d="M203 130q23 0 38.5 -16t16.5 -38h-191q0 23 15.5 38.5t38.5 15.5h82zM162.5 139q-17.5 0 -30 12.5t-12.5 30t12.5 30t30 12.5t30 -12.5t12.5 -30t-12.5 -30t-30 -12.5zM258 195v34h186v-34h-186zM287 125v34h157v-34h-157zM471 355q17 0 29 -12t12 -29v-276
q0 -17 -12 -29t-29 -12h-430q-17 0 -29 12t-12 29v276q0 17 12 29t29 12h151v18q0 6 4.5 10t10.5 4h98q4 0 7.5 -2t5.5 -5t2 -7v-18h151zM256 346q-4 0 -7.5 -2t-5.5 -5.5t-2 -7.5t2 -7.5t5.5 -5.5t7.5 -2t7.5 2t5.5 5.5t2 7.5q0 6 -4.5 10.5t-10.5 4.5zM480 38v276
q0 9 -9 9h-151v-24q9 -6 9 -16q0 -8 -5.5 -13.5t-13.5 -5.5h-108q-8 0 -13.5 5.5t-5.5 13.5q0 10 9 16v24h-151q-9 0 -9 -9v-276q0 -9 9 -9h430q9 0 9 9z" />
    <glyph glyph-name="uniE629" unicode="&#xe629;" 
d="M282 421v13q0 6 -4 10t-10 4t-10.5 -4t-4.5 -10v-12q-93 -2 -163.5 -69.5t-84.5 -167.5q26 21 63 21q41 0 68 -24q26 24 67 24q25 0 46 -10v-66q0 -11 0.5 -39t0.5 -43.5t-1 -39.5q-1 -15 -9 -24.5t-24 -8.5q-8 0 -15 5t-11 12t-6 15q0 1 -1 7.5t-3 8.5q-7 13 -21 10
q-21 -4 -11 -38q7 -27 29.5 -44.5t49.5 -14.5q15 2 26.5 9t18.5 17t11.5 23t4.5 27q0 100 -1 181q23 13 51 13q41 0 67 -24q27 24 68 24q17 0 34 -5q-17 88 -79.5 149.5t-145.5 70.5z" />
    <glyph glyph-name="uniE62A" unicode="&#xe62a;" 
d="M499 101l-67 189q3 5 3 12q0 4 -1 8q6 1 8 4q11 8 6 15q-6 8 -15.5 2l-9.5 -6l-18 10q-72 42 -135 46v24q4 1 4 2v6q0 1 -4 2v7q1 0 1 1t2 10.5t2 10.5q0 4 -19 4t-19 -4q0 -1 2 -10.5t2 -10.5t1 -1v-7q-4 -1 -4 -2v-6q0 -1 4 -2v-24q-63 -4 -135 -46q-15 -10 -18 -10
l-9.5 6t-15.5 -2q-5 -7 6 -15q2 -3 8 -4q-1 -4 -1 -8q0 -7 3 -12l-67 -189q-3 -4 -3 -7v-5q0 -11 24 -18.5t57.5 -7.5t57.5 7.5t24 18.5v5q0 3 -3 7l-67 189q3 5 3 12q0 5 -2 10q3 1 3 2q16 6 58 18.5t63 12.5q13 0 18 -5v-186h-2q-3 0 -3 -3h-1q-4 0 -4 -4.5t4 -4.5h4
q-7 -5 -7 -14q0 -4 1.5 -14t5 -23.5t8.5 -16.5q-6 -2 -10.5 -9t-6 -12.5t-1.5 -7.5v-43q-32 -2 -32 -10v-10q-39 -7 -39 -17v-8q0 -9 27 -15t66 -6t66 6t27 15v8q0 10 -39 17v10q0 8 -32 10v43q0 1 -0.5 3.5t-2 6.5t-3.5 7.5t-5 7t-7 4.5q7 5 11 25t4 29t-7 14h4q4 0 4 4.5
t-4 4.5h-1q0 3 -3 3h-2v186q5 5 18 5q15 0 42.5 -7t49 -14t29.5 -10q1 -1 3 -2q-2 -5 -2 -10q0 -7 3 -12l-67 -189q-3 -4 -3 -7v-5q0 -11 24 -18.5t57.5 -7.5t57.5 7.5t24 18.5v5q0 3 -3 7zM149 113q-24 8 -58 8t-58 -8l58 164zM421 121q-34 0 -58 -8l58 164l58 -164
q-24 8 -58 8z" />
    <glyph glyph-name="uniE62B" unicode="&#xe62b;" 
d="M275 223v1v-1zM0 448h512v-512h-512v512zM169 47v206h-69v-206h69zM135 281q17 0 27.5 10t10.5 25q0 16 -10.5 26t-27.5 10t-28 -10t-11 -26q0 -15 10.5 -25t27.5 -10h1zM416 47v118q0 46 -22 69.5t-57 23.5q-40 0 -62 -34v29h-68v-206h68v115q0 11 2 17q10 25 36 25
q34 0 34 -47v-110h69z" />
    <glyph glyph-name="uniE62C" unicode="&#xe62c;" 
d="M512 137v-190h-110v177q0 75 -55 75q-41 0 -57 -40q-3 -9 -3 -27v-185h-110q1 300 0 330h110v-46l-1 -1h1v1q35 54 99 54q56 0 91 -37.5t35 -110.5zM62 437q28 0 44.5 -16.5t16.5 -40.5q0 -25 -17 -41t-44.5 -16t-44.5 16t-17 41q0 24 17 40.5t45 16.5zM7 -53v330h109
v-330h-109z" />
    <glyph glyph-name="uniE62D" unicode="&#xe62d;" 
d="M109 211q-17 34 -17 73q0 68 48 116t116 48t116 -48t48 -116q0 -39 -17 -73l-147 -275zM256 359q-28 0 -48 -20t-20 -48.5t20 -48.5t48 -20t48 20t20 49q0 11 -3.5 21.5t-9.5 18.5t-14.5 14.5t-19 10t-21.5 3.5z" />
    <glyph glyph-name="uniE62E" unicode="&#xe62e;" 
d="M170 326h-36l36 44v8h-47v-10h33l-36 -43v-9h50v10zM39 297q0 8 -6 13.5t-14 5.5t-13.5 -5.5t-5.5 -13.5v-291h39v81h434v-81h39v120h-473v171zM107 202q16 0 27 11.5t11 27.5t-11 27t-27 11t-27.5 -11t-11.5 -27q0 -11 5 -20t14 -14t20 -5zM461 215q-50 7 -264 37
q-3 1 -6 1q-6 0 -11 -3t-8 -8.5t-3 -11.5v-49h-91q-8 0 -14 -6t-6 -14q0 -4 2 -7.5t4.5 -6t6 -4t7.5 -1.5h434v19v20v1q0 19 -8 23.5t-43 9.5z" />
    <glyph glyph-name="uniE62F" unicode="&#xe62f;" 
d="M631 193v3q0 6 -2 9.5t-5 5.5t-8 3t-11 1l-20 -6l-14 25q14 4 21 5q10 2 20 2q24 0 38 -12t14 -38v-71q-7 -3 -20 -5q-12 -3 -27 -3q-12 0 -22 2.5t-17.5 7.5t-11.5 12.5t-4 19t5 19.5t12.5 12.5t17.5 6.5t19 2q7 0 15 -1zM631 140v31q-2 1 -6 1q-3 1 -6 1
q-12 0 -18.5 -4.5t-6.5 -13.5q0 -6 2.5 -9.5t6 -5t8.5 -1.5q3 -1 7 -1t7 1q1 0 2 1h4zM293 193v3q0 6 -1.5 9.5t-5 5.5t-8.5 3t-11 1l-20 -6l-14 25q14 4 21 5q10 2 20 2q24 0 38 -12t14 -38v-71q-7 -3 -20 -5q-12 -3 -27 -3q-12 0 -22 2.5t-17.5 7.5t-11.5 12.5t-4 19
t5 19.5t13 12.5t17.5 6.5t18.5 2q7 0 15 -1zM293 140v31q-2 1 -6 1q-3 1 -6 1q-12 0 -18.5 -4.5t-6.5 -13.5q0 -6 2.5 -9.5t6.5 -5t8 -1.5q3 -1 7 -1t7 1q1 0 3 1h3zM206 114h-34v73q0 9 -1.5 14.5t-4.5 7.5t-9 2q-12 0 -28 -9v-6v-6v-76h-34v73q0 14 -3 19t-12 5
q-11 0 -28 -9v-88h-33v120l33 13v-14q19 8 30 8q24 0 36 -13q24 13 41 13q47 0 47 -51v-76zM460 114h-32v73q0 11 -2.5 17t-5 6.5t-7.5 0.5q-15 0 -31 -9v-88h-32v120l32 13v-14q20 8 33 8q27 0 36 -14.5t9 -39.5v-73zM543 144l14 -25q-18 -7 -29 -7q-29 0 -37.5 15.5
t-8.5 41.5v88l33 14v-32h24l15 -27h-39v-43q0 -13 2 -18.5t5.5 -7t10.5 -1.5q3 0 10 2z" />
    <glyph glyph-name="uniE630" unicode="&#xe630;" 
d="M499 13v-1h-89v198q0 35 -9 49t-32 14q-31 0 -75 -25v-16.5v-16.5v-203h-90v198q0 35 -9 49t-32 14q-29 0 -75 -25v-236h-90v321l90 37v-38q51 22 80 22q65 0 97 -36q25 14 57 25t52 11q125 0 125 -138v-203z" />
    <glyph glyph-name="uniE631" unicode="&#xe631;" 
d="M416 216l96 -239h-512l96 239h91l23 -54h-84l-53 -131h366l-53 131h-84l23 54h91zM179 283q-9 18 -9 38q0 35 25.5 60.5t60.5 25.5t60.5 -25.5t25.5 -60.5q0 -20 -9 -38l-77 -177zM256 360q-15 0 -25.5 -10.5t-10.5 -25t10.5 -25t25.5 -10.5q7 0 13.5 3t11.5 7.5t8 11
t3 14.5q0 14 -10.5 24.5t-25.5 10.5z" />
    <glyph glyph-name="uniE632" unicode="&#xe632;" 
d="M488 17h-440v374q0 10 -7 17t-17 7t-17 -7t-7 -17v-422h488q10 0 17 7t7 17t-7 17t-17 7zM279 119l168 169l38 -38v131h-131l37 -37l-109 -108l-67 65l-143 -139v-119l143 144z" />
    <glyph glyph-name="uniE633" unicode="&#xe633;" 
d="M0 448h512v-512h-512v512zM37 287v-189l93 95zM475 -27v54l-126 130l-34 -35q-23 -23 -58 -23t-58 24l-34 35l-128 -131v-54h438zM475 98v185l-91 -91zM475 354v57h-438v-54l197 -200q9 -8 23 -8t23 8z" />
    <glyph glyph-name="uniE634" unicode="&#xe634;" 
d="M0 385h512v-386h-512v386zM273 167l181 182h-393l179 -182q7 -6 17 -6t16 6zM165 193l-129 131v-264zM190 167l-129 -132h391l-129 131l-25 -24q-16 -17 -41 -17t-42 17zM348 192l128 -132v261z" />
    <glyph glyph-name="uniE635" unicode="&#xe635;" 
d="M436 429q0 -3 38 -236.5t38 -237.5q0 -8 -5.5 -13.5t-13.5 -5.5t-14 5.5t-6 13.5q0 3 -32 200q-49 6 -88 -1.5t-79.5 -23t-59.5 -20.5q-79 -18 -141 9t-73 62q140 -43 219 85q68 112 181 144q-2 17 -2 19q0 8 5.5 13.5t13.5 5.5t13.5 -5.5t5.5 -13.5z" />
    <glyph glyph-name="uniE636" unicode="&#xe636;" 
d="M436 429q0 -3 38 -236.5t38 -237.5q0 -8 -5.5 -13.5t-13.5 -5.5q-6 0 -10 2.5t-7 7t-3 9.5q0 3 -32 200q-49 6 -88 -1.5t-79.5 -23t-59.5 -20.5q-58 -13 -104.5 -1.5t-74.5 31.5t-35 41q140 -43 219 85q68 112 181 144q-2 17 -2 19q0 8 5.5 13.5t13.5 5.5t13.5 -5.5
t5.5 -13.5zM402 192q14 0 30 -1q-21 132 -30 184q-94 -30 -154 -127q-53 -86 -131 -106q17 -6 61.5 -1.5t80.5 20.5q70 31 143 31z" />
    <glyph glyph-name="uniE637" unicode="&#xe637;" 
d="M365 138q63 0 104 -43t43 -101h-512q1 60 43.5 102t101.5 42h220zM257 163q-31 0 -57 15t-41.5 41.5t-15.5 56.5q0 47 33.5 80.5t80.5 33.5q31 0 57 -15t41 -41.5t15 -57.5q0 -47 -33 -80t-80 -33z" />
    <glyph glyph-name="uniE638" unicode="&#xe638;" 
d="M352 414q8 -1 13.5 -7t5.5 -14v-436q0 -8 -6.5 -14.5t-15.5 -6.5h-186q-9 0 -15.5 6.5t-6.5 14.5v436q0 9 6.5 15.5t15.5 6.5h159v18q0 6 4.5 10.5t10.5 4.5t10.5 -4.5t4.5 -10.5v-19zM217 -35v27q0 3 -3 3h-39q-4 0 -4 -3v-27q0 -3 4 -3h39q3 0 3 3zM217 7v27q0 3 -3 3
h-39q-4 0 -4 -3v-27q0 -4 4 -4h39q3 0 3 4zM217 48v27q0 3 -3 3h-39q-4 0 -4 -3v-27q0 -3 4 -3h39q3 0 3 3zM217 89v27q0 4 -3 4h-39q-4 0 -4 -4v-27q0 -3 4 -3h39q3 0 3 3zM284 -35v27q0 3 -3 3h-50q-3 0 -3 -3v-27q0 -3 3 -3h50q3 0 3 3zM284 7v27q0 3 -3 3h-50
q-3 0 -3 -3v-27q0 -4 3 -4h50q3 0 3 4zM284 48v27q0 3 -3 3h-50q-3 0 -3 -3v-27q0 -3 3 -3h50q3 0 3 3zM284 89v27q0 4 -3 4h-50q-3 0 -3 -4v-27q0 -3 3 -3h50q3 0 3 3zM341 -35v27q0 3 -4 3h-39q-3 0 -3 -3v-27q0 -3 3 -3h39q4 0 4 3zM341 7v27q0 3 -4 3h-39q-3 0 -3 -3
v-27q0 -4 3 -4h39q4 0 4 4zM341 48v27q0 3 -4 3h-39q-3 0 -3 -3v-27q0 -3 3 -3h39q4 0 4 3zM341 89v27q0 4 -4 4h-39q-3 0 -3 -4v-27q0 -3 3 -3h39q4 0 4 3zM341 164v200q0 7 -5.5 12.5t-12.5 5.5h-134q-7 0 -12.5 -5.5t-5.5 -12.5v-200q0 -7 5.5 -12.5t12.5 -5.5h134
q3 0 5.5 1t4.5 2.5t4 4t3 5t1 5.5z" />
    <glyph glyph-name="uniE639" unicode="&#xe639;" 
d="M254 112q18 -15 29 -22.5t22 -13t18 -4.5t14 7l124 -124q-8 -8 -24 -13.5t-46.5 -5t-66.5 12.5t-86.5 46t-102.5 88q-50 51 -81.5 99.5t-42 82.5t-10.5 63.5t5 44.5t12 24l128 -127q-7 -6 -8 -14t3 -18t9.5 -18t14.5 -18q39 -49 89 -90zM381 124q6 6 14 6t14 -6l97 -97
q5 -5 5.5 -13t-5.5 -14v-1l-26 -25l-124 125zM190 315l-25 -25l-127 127l25 25q6 6 14 6t14 -6l99 -99q6 -6 6 -14t-6 -14z" />
    <glyph glyph-name="uniE63A" unicode="&#xe63a;" 
d="M157 99v39h197v-39h-197zM157 34v39h197v-39h-197zM486 322q11 0 18.5 -7.5t7.5 -17.5v-172q0 -11 -7.5 -18.5t-18.5 -7.5h-52v-119q0 -10 -7.5 -17.5t-17.5 -7.5h-306q-10 0 -17.5 7.5t-7.5 17.5v119h-52q-11 0 -18.5 7.5t-7.5 18.5v172q0 10 7.5 17.5t18.5 7.5h52v82
q0 10 7.5 17.5t17.5 7.5h306q10 0 17.5 -7.5t7.5 -17.5v-82h52zM394 -6v172h-276v-172h276zM394 322v67h-276v-67h276zM440.5 216q8.5 0 15 6.5t6.5 15t-6.5 15t-15 6.5t-15 -6.5t-6.5 -15t6.5 -15t15 -6.5z" />
    <glyph glyph-name="uniE63B" unicode="&#xe63b;" 
d="M146 203v78h79v-78h-79zM168 259v-35h35v35h-35zM247 216v22h83v-22h-83zM247 246v21h116v-21h-116zM407 401q5 0 9.5 -1.5t8 -4t6 -6.5t4 -8.5t1.5 -8.5v-406q0 -13 -8.5 -21.5t-20.5 -8.5h-302q-12 0 -20.5 8.5t-8.5 21.5v406q0 8 4 14.5t10.5 10.5t14.5 4h108
q0 1 -1 1v2q0 18 13 31t31 13t31 -13t13 -31l-0.5 -1t-0.5 -2h108zM256 425q-6 0 -11 -2.5t-7.5 -7.5t-2.5 -11q0 -8 6 -14.5t15 -6.5q6 0 11 3t7.5 8t2.5 10q0 9 -6 15t-15 6zM388 -15v368h-38q0 -14 -10 -24t-24 -10h-120q-14 0 -24 10t-10 24h-38v-368h264z" />
    <glyph glyph-name="uniE63C" unicode="&#xe63c;" 
d="M415 63v62q0 11 -1 14t-3.5 4.5t-8.5 1.5v-105q8 0 10.5 4t2.5 19zM214 37q4 0 5.5 3.5t1.5 17.5v73q0 11 -1.5 14.5t-5.5 3.5q-3 0 -4.5 -2.5t-1.5 -15.5v-74q0 -14 1 -17t5 -3zM0 8q0 -15 10.5 -25.5t25.5 -10.5h440q15 0 25.5 10.5t10.5 25.5v295h-512v-295zM360 172
h31q30 0 40.5 -2.5t16 -9t7 -14t1.5 -30.5v-56q0 -21 -2 -28t-7 -11.5t-12.5 -6t-22.5 -1.5h-52v159zM277 172h42v-127h25v-32h-67v159zM166 106q0 25 1 34q2 10 8 18.5t16 12.5t23 4t23 -4t16.5 -12.5t7.5 -17.5q1 -10 1 -35v-27q0 -24 -1 -34t-7 -18t-16 -12.5t-24 -4.5
q-13 0 -23 4t-16 12.5t-7.5 18t-1.5 34.5v27zM60.5 157.5q4.5 8.5 15.5 13.5q10 4 25 4q16 0 27.5 -5t15 -13t3.5 -27v-6h-38v12q0 8 -1.5 10.5t-5.5 2.5q-3 0 -5 -3t-2 -10q0 -8 2 -12t12 -9q27 -17 34.5 -27.5t7.5 -33.5q0 -17 -4 -25t-15.5 -13.5t-26.5 -5.5q-17 0 -29 6
q-11 6 -15 16t-4 28v10h39v-19q0 -9 1.5 -11.5t5.5 -2.5t6 3t2 10q0 14 -3.5 18t-19.5 14q-15 11 -20 15.5t-8.5 12.5t-3.5 21q0 18 4.5 26.5zM19 346h79v-16q0 -5 4 -9.5t10 -4.5t10 4.5t4 9.5v16h260v-16q0 -5 4 -9.5t10 -4.5t10 4.5t4 9.5v16h79q8 0 13.5 5.5t5.5 13
t-5.5 13t-13.5 5.5h-79v16q0 5 -4 9t-10 4t-10 -4t-4 -9v-16h-260v16q0 5 -4 9t-10 4t-10 -4t-4 -9v-16h-79q-8 0 -13.5 -5.5t-5.5 -13t5.5 -13t13.5 -5.5z" />
    <glyph glyph-name="uniE63D" unicode="&#xe63d;" 
d="M478 179q-1 -2 -7 -11.5t-2 -19.5q5 -15 6 -19t-2 -20q-2 -4 -6 -10t-4 -9t1 -15q6 -25 -2 -38q-3 -3 -7 -6.5t-7 -6t-5.5 -6.5t-4.5 -9q0 -1 -1.5 -19t-6.5 -24q-5 -5 -10.5 -8t-12.5 -6t-11 -6q-9 -7 -61.5 -9.5t-82.5 1.5q-4 1 -26.5 7.5t-53 12t-59.5 5.5v29v176
q35 5 44 36q11 36 29.5 63.5t48.5 58.5q29 30 37 75q0 3 0.5 16.5t4 21t12.5 9.5q17 3 32 -13t20 -34q3 -14 -1.5 -42t-12.5 -42q-28 -50 -21 -65q4 -9 17 -10h103q22 0 32 -12q7 -9 12 -16q12 -19 8 -35zM80 182q6 0 10.5 -4.5t4.5 -10.5v-195q0 -7 -4.5 -11.5t-10.5 -4.5
h-39q-9 0 -8 12q8 189 9 205q0 8 8 9h30zM68 -34q17 0 17 10t-17 10q-6 0 -11 -3t-5 -7q0 -2 1 -3.5t2.5 -2.5t3.5 -2t4.5 -1.5t4.5 -0.5z" />
    <glyph glyph-name="uniE63E" unicode="&#xe63e;" 
d="M227 438v-115h-17v115q0 6 -4.5 8.5t-9 0t-4.5 -8.5v-115h-16v115q0 6 -5 8.5t-9.5 0t-4.5 -8.5v-115h-16v114q0 7 -5 10t-10 0t-5 -9v-155q0 -16 10.5 -26t25.5 -10v-281q0 -19 13.5 -26.5t27 0t13.5 26.5v281q14 0 24.5 10.5t10.5 23.5v157q0 6 -4.5 8.5t-9.5 0
t-5 -8.5zM307 402v-263h29v-173q0 -18 14 -25.5t27.5 0t13.5 25.5v436q0 22 -13 34t-28.5 12t-29 -12t-13.5 -34z" />
    <glyph glyph-name="uniE63F" unicode="&#xe63f;" 
d="M365 368l-74 53h142v-53h-68zM255 166l4 -53h-259v53h255zM0 29h373l23 -53h-396v53zM242 421l4 -53h-246v53h242zM248 294l4 -52h-252v52h248zM512 179l-97 -5l88 -183l-58 -28l-88 181l-61 -70l-16 309z" />
    <glyph glyph-name="uniE640" unicode="&#xe640;" 
d="M512 -14l-50 -50l-166 180q-54 -42 -123.5 -37.5t-118.5 53.5q-54 54 -54 131t54 131t131 54t131 -54q49 -49 53.5 -118.5t-37.5 -123.5zM291.5 156.5q44.5 44.5 44.5 107t-44.5 106.5t-107 44t-106.5 -44t-44 -106.5t44 -107t106.5 -44.5t107 44.5z" />
    <glyph glyph-name="uniE641" unicode="&#xe641;" 
d="M429 294q14 -25 21 -52h57q5 -25 5 -50t-5 -50h-57q-7 -27 -21 -52l40 -40q-29 -42 -71 -71l-40 40q-25 -14 -52 -21v-57q-25 -5 -50 -5t-50 5v57q-27 7 -52 21l-40 -40q-43 29 -71 71l40 40q-14 25 -21 52h-57q-5 25 -5 50t5 50h57q7 27 21 52l-40 40q29 42 71 71
l40 -40q25 14 52 21v57q25 5 50 5t50 -5v-57q27 -7 52 -21l40 40q42 -29 71 -71zM325 123q29 29 29 69t-29 69t-69 29t-69 -29t-29 -69t29 -69t69 -29t69 29z" />
    <glyph glyph-name="uniE642" unicode="&#xe642;" 
d="M409 -26.5q0 -15.5 11 -26.5t26 -11q10 0 19 5t14 13.5t5 18.5q0 16 -11 27t-26.5 11t-26.5 -11t-11 -26.5zM114 -26.5q0 -15.5 11 -26.5t27 -11q10 0 18.5 5t13.5 13.5t5 18.5q0 16 -11 27t-26.5 11t-26.5 -11t-11 -26.5zM13 434q0 -6 4 -10t10 -4h48q40 -256 51 -324
l-23 -66h372q4 0 7.5 2t5 5t1.5 7q0 3 -1 5.5t-3 4.5t-4.5 3t-5.5 1h-333q1 2 12 33h345v219l-390 75l-10 63h-72q-4 0 -7 -2t-5 -5t-2 -7zM417 166h54v-47h-54v47zM417 242h54v-66h-54v66zM417 297q7 -1 14 -2.5t12 -2.5l10 -2t8.5 -1.5t6 -1t3.5 -0.5v-35h-54v45zM347 166
h60v-47h-60v47zM347 242h60v-66h-60v66zM347 311q8 -2 20 -4.5t22.5 -4.5t17.5 -3v-47h-60v59zM272 166h65v-47h-65v47zM272 242h65v-66h-65v66zM272 325q11 -2 33 -6.5t32 -6.5v-60h-65v73zM201 166h61v-47h-61v47zM201 242h61v-66h-61v66zM201 338q11 -2 61 -11v-75h-61
v86zM143 166h49v-47h-41zM131 242h61v-66h-50zM113 355q8 -1 20.5 -3.5t28.5 -5.5t30 -6v-88h-62z" />
    <glyph glyph-name="uniE643" unicode="&#xe643;" 
d="M256 435l60 -186h196l-158 -114l60 -186l-158 114l-158 -114l60 186l-158 114h196z" />
    <glyph glyph-name="uniE644" unicode="&#xe644;" 
d="M194 194q33 -1 41 -24q9 -28 -21 -43l5 -19l-17 -6l-6 18q-19 -6 -33 -3l-1 23q17 -3 32 2q18 6 14 17q-3 9 -24 9q-36 1 -43 23q-9 26 20 42l-6 17l18 6l5 -16q16 4 28 2l1 -22q-16 2 -27 -2q-16 -5 -13 -15q3 -8 27 -9zM502 362.5q13 -2.5 10 -15.5q-4 -17 -14 -31.5
t-25 -24.5t-33 -14q5 -7 7 -14q7 -20 -3 -39l-47 -93q-10 -19 -31 -25q-1 0 -1 -1l-254 -81q-7 -3 -15 -3q-17 0 -30 9.5t-18 25.5l-46 142q-6 19 3.5 37.5t29.5 25.5l253 81q1 1 2 1q20 7 40 -3l81 -42q5 1 11 2q25 3 42.5 17.5t21.5 35.5q3 12 16 9.5zM375 239q-1 5 -4 8
q-4 -7 -4 -16q-1 -12 -13 -12h-2q-5 1 -8.5 5t-2.5 9q1 11 4 19q-7 -3 -10 -9q-4 -8 -2 -17q5 -15 21 -15q4 0 7 1q9 3 13 11t1 16zM425 234q6 10 2 22q-4 10 -13 16q-18 -3 -28 -9q7 -7 10 -17q5 -17 -3 -33t-25 -22q-7 -2 -14 -2q-14 0 -25.5 8.5t-15.5 21.5q-6 18 2.5 34
t25.5 21q6 2 13 2h6q9 8 21 14l-61 31q-7 3 -13 3t-10 -2h-2l-254 -82q-11 -4 -16 -14t-2 -22l46 -142q6 -19 27 -19q4 0 8 1l256 82q12 4 18 15z" />
    <glyph glyph-name="uniE645" unicode="&#xe645;" 
d="M69 232l415 109l-29 107l-442 -117l28 -107v-288h458v296h-430zM435 414l14 -53l-45 -12l-65 39zM261 368l65 -39l-84 -23l-65 39zM99 325l65 -39l-103 -27l-13 52zM253 204h87l-53 -55h-87zM70 204h102l-52 -55h-50v55zM471 -36h-401v157h401v-157zM471 149h-103l53 55
h50v-55z" />
    <glyph glyph-name="uniE646" unicode="&#xe646;" 
d="M0 448h512v-512h-512v512zM393 262q6 4 12 10t10 10.5t7 8t5 5.5l1 3q-8 -4 -18 -7t-16 -4l-6 -1q6 5 10.5 9t7.5 8t5.5 7.5t4 6t2 5t0.5 3.5l1 1q-26 -15 -45 -17q-5 4 -11 8.5t-17 9.5t-25.5 4t-30.5 -9q-45 -22 -36 -77q-18 0 -36 4t-32 10t-26.5 14t-21.5 16
t-15.5 14.5t-9.5 10.5l-3 4q-13 -30 -8.5 -51t17.5 -32l12 -11q-6 -1 -14 1.5t-13 4.5l-5 2q1 -26 15.5 -43.5t27.5 -21.5l13 -5q-6 -1 -13.5 -1.5t-12.5 -0.5l-5 1q7 -22 23.5 -34t29.5 -13l13 -2q-24 -17 -50.5 -24.5t-40.5 -5.5l-15 2q57 -37 126 -31.5t120 53.5
q31 29 47 67.5t16 62.5v25z" />
    <glyph glyph-name="uniE647" unicode="&#xe647;" 
d="M512 350q-20 -30 -52 -55q-2 -3 0 -15t-3 -38.5t-12.5 -54t-28 -61.5t-50.5 -61q-76 -72 -178.5 -79.5t-187.5 47.5q3 -1 9 -2t24 -0.5t35.5 3.5t42.5 13.5t46 27.5q-3 0 -8 0.5t-18.5 4t-25.5 10.5t-25 22t-21 35q28 -4 47 2q-3 1 -8.5 2.5t-19 9t-24.5 18t-20.5 30
t-11.5 43.5q3 -1 8.5 -3.5t18 -5.5t21.5 -3q-3 2 -8 6t-16 17.5t-17 28.5t-4.5 39t14.5 50q3 -5 9 -12.5t27.5 -26.5t44.5 -33.5t59.5 -26t74.5 -11.5q-6 35 5.5 66.5t47.5 49.5q23 11 44.5 12t38 -6t25.5 -13.5t16 -12.5q29 2 67 25q-1 -4 -3 -9t-13 -20.5t-30 -29.5
q32 4 60 17z" />
    <glyph glyph-name="uniE648" unicode="&#xe648;" 
d="M102 448h31l20 -73h2l19 73h32l-36 -107v-76h-31v72zM208 369q0 16 11.5 25t30.5 9q17 0 28 -9.5t11 -25.5v-70q0 -17 -11 -27t-30 -10q-18 0 -29 10.5t-11 27.5v70zM237 296q0 -5 3 -8t8.5 -3t8.5 3t3 8v74q0 4 -3 7t-9 3q-5 0 -8 -3t-3 -7v-74zM390 400v-135h-28v15
q-7 -9 -15.5 -13t-16.5 -4q-9 0 -14 6t-5 18v113h28v-104q0 -5 1.5 -7t5.5 -2q3 0 7.5 3t8.5 7v103h28zM305 98q5 0 8 -3.5t3 -9.5v-63q0 -6 -2.5 -8.5t-6.5 -2.5q-3 0 -6 1t-6 4v77q3 2 5.5 3.5t4.5 1.5zM390 97q6 0 8.5 -3t2.5 -11v-12h-22v12q0 8 3 11q2 3 8 3zM446 193
q9 -9 14 -41t5.5 -49.5t0.5 -27.5q0 -99 -20 -119q-9 -9 -56.5 -14t-90.5 -5l-43 -1q-170 0 -190 20t-20 118v1q0 98 20 118q4 4 16.5 7.5t29.5 5.5t37 3.5t38.5 2t34 1t25 0.5h9.5h9.5t25 -0.5t34 -1t38 -2t36.5 -3.5t30 -5.5t17 -7.5zM171 135v24h-85v-24h29v-142h27v142
h29zM252 -7v123h-25v-94q-3 -4 -7 -6.5t-7 -2.5q-4 0 -5.5 2t-1.5 7v94h-24v-103q0 -11 4 -16.5t13 -5.5q7 0 14 4t14 11v-13h25zM341 18v69q0 15 -6 22.5t-18 7.5q-6 0 -11.5 -2.5t-10.5 -8.5v53h-25v-166h25v9q5 -5 11 -8q5 -3 12 -3q11 0 17 7t6 20zM426 51v0v32
q0 17 -9 26.5t-26 9.5q-16 0 -26.5 -10t-10.5 -26v-55q0 -18 9.5 -28t25.5 -10q19 0 28 9.5t9 28.5v6h-25v-6q0 -10 -2.5 -13.5t-8.5 -3.5t-8.5 4t-2.5 13v23h47z" />
  </font>
</defs>
</svg>
